<?xml version="1.0" standalone="no"?>
<!DOCTYPE svg PUBLIC "-//W3C//DTD SVG 20010904//EN"
 "http://www.w3.org/TR/2001/REC-SVG-20010904/DTD/svg10.dtd">
<svg version="1.0" xmlns="http://www.w3.org/2000/svg"
 width="431.000000pt" height="431.000000pt" viewBox="0 0 431.000000 431.000000"
 preserveAspectRatio="xMidYMid meet">
<metadata>
Created by potrace 1.11, written by Peter Selinger 2001-2013
</metadata>
<g transform="translate(0.000000,431.000000) scale(0.100000,-0.100000)"
fill="#000000" stroke="none">
<path d="M3890 4231 c0 -6 -12 -11 -27 -10 -16 1 -54 -6 -87 -16 -32 -9 -66
-19 -75 -20 -9 -2 -18 -4 -21 -5 -3 -1 -8 -2 -12 -1 -5 0 -8 -3 -8 -9 0 -5 -9
-10 -20 -10 -11 0 -20 -5 -20 -11 0 -5 -4 -7 -10 -4 -5 3 -10 3 -10 -2 0 -11
-51 -34 -62 -27 -5 3 -7 2 -6 -3 2 -4 -7 -18 -19 -30 -13 -13 -23 -20 -23 -16
0 4 -6 -1 -13 -12 -9 -11 -19 -15 -27 -10 -9 5 -11 4 -6 -4 4 -6 1 -17 -6 -25
-7 -8 -28 -33 -47 -55 -18 -22 -39 -38 -45 -34 -6 3 -8 3 -4 -2 8 -9 -13 -40
-71 -105 -22 -25 -41 -49 -41 -53 0 -5 -5 -5 -10 -2 -6 4 -9 2 -8 -3 3 -10
-45 -75 -84 -114 -10 -10 -18 -23 -18 -29 0 -6 -9 -8 -22 -4 -17 5 -19 4 -9
-3 12 -9 12 -12 -1 -26 -9 -8 -19 -12 -22 -8 -4 3 -4 -1 -1 -10 4 -10 -2 -22
-17 -32 -13 -9 -21 -19 -20 -22 2 -3 -12 -23 -31 -44 -19 -22 -32 -42 -28 -46
3 -4 -1 -5 -10 -1 -11 4 -16 0 -15 -11 0 -9 -5 -16 -12 -14 -8 1 -11 -2 -8 -7
4 -5 -1 -16 -9 -24 -8 -9 -15 -20 -15 -26 0 -5 -6 -14 -13 -18 -6 -4 -18 -20
-26 -35 -8 -15 -18 -25 -23 -22 -4 3 -8 -1 -8 -9 0 -19 -34 -49 -45 -40 -4 5
-5 3 -2 -3 8 -14 -27 -66 -38 -57 -4 5 -5 3 -2 -4 4 -6 0 -18 -8 -26 -8 -9
-15 -20 -15 -26 0 -6 -7 -11 -16 -11 -8 0 -13 -4 -9 -9 3 -6 -11 -27 -32 -48
-21 -20 -31 -33 -23 -28 16 10 10 0 -34 -51 -10 -12 -18 -25 -17 -28 0 -3 -13
-20 -29 -38 -17 -18 -30 -36 -30 -41 0 -4 -4 -6 -9 -3 -5 3 -8 -2 -7 -12 0
-11 -6 -16 -17 -16 -14 2 -15 -1 -7 -11 8 -10 7 -16 -7 -24 -10 -6 -14 -11
-10 -11 4 0 -1 -10 -13 -22 -11 -12 -20 -28 -20 -36 0 -8 -6 -12 -14 -9 -10 4
-13 1 -10 -8 3 -8 -4 -22 -15 -32 -12 -9 -21 -23 -21 -30 0 -7 -4 -13 -9 -13
-5 0 -11 -9 -14 -21 -3 -12 -10 -18 -16 -14 -7 3 -8 0 -5 -9 3 -9 2 -16 -4
-16 -5 0 -12 -9 -15 -21 -4 -13 -10 -18 -18 -13 -8 4 -10 3 -5 -4 4 -7 2 -12
-3 -12 -6 0 -10 -3 -9 -7 2 -8 -30 -62 -42 -73 -4 -3 -28 -40 -54 -83 -27 -42
-55 -81 -63 -86 -8 -4 -14 -11 -14 -14 3 -23 -1 -28 -15 -23 -14 5 -15 4 -4
-9 7 -8 9 -15 4 -15 -5 0 -27 -27 -48 -60 -22 -33 -44 -60 -49 -60 -6 0 -8 -3
-4 -6 3 -4 -7 -26 -23 -50 -17 -23 -30 -47 -30 -53 0 -6 -4 -11 -10 -11 -5 0
-10 -7 -10 -15 0 -7 -6 -18 -12 -22 -7 -4 -20 -21 -29 -38 -9 -16 -21 -29 -28
-27 -7 1 -10 -2 -6 -8 4 -6 -3 -25 -14 -43 -43 -71 -89 -91 -115 -52 -33 50
-57 98 -52 103 3 2 -4 16 -14 30 -16 19 -18 28 -8 39 9 11 8 13 -3 11 -8 -2
-13 3 -11 10 1 6 -2 12 -7 12 -6 0 -8 9 -6 20 2 11 -1 20 -6 20 -6 0 -8 4 -5
9 4 5 1 11 -5 13 -6 2 -11 16 -11 31 0 15 -5 27 -10 27 -5 0 -6 4 -3 10 3 6 1
10 -4 10 -6 0 -11 11 -11 25 0 14 -4 25 -10 25 -5 0 -10 8 -10 18 0 23 -59 86
-100 107 -24 13 -46 15 -89 10 -31 -3 -67 -7 -81 -8 -14 -2 -37 -11 -52 -21
-15 -10 -33 -14 -39 -10 -8 5 -9 3 -4 -6 6 -10 4 -12 -11 -6 -10 4 -15 4 -11
0 9 -10 -43 -35 -56 -27 -5 3 -7 1 -3 -5 3 -6 -3 -13 -14 -17 -11 -3 -20 -11
-20 -17 0 -6 -3 -9 -6 -5 -8 8 -109 -92 -117 -116 -4 -10 -10 -16 -14 -14 -8
5 -12 -20 -14 -86 0 -25 -4 -35 -12 -31 -7 3 -4 -1 6 -9 19 -16 23 -67 6 -84
-8 -8 -7 -13 2 -18 8 -5 10 -4 5 3 -4 7 -3 12 2 12 17 0 22 -13 9 -28 -9 -13
-9 -14 1 -8 6 4 13 2 13 -3 1 -6 2 -17 3 -23 1 -7 -2 -19 -7 -26 -7 -9 -6 -11
7 -6 17 7 23 -11 6 -21 -5 -3 -10 -12 -9 -18 0 -9 2 -9 6 1 2 6 9 12 14 12 6
0 5 -8 -1 -20 -9 -17 -8 -19 7 -13 16 6 16 5 4 -10 -12 -15 -11 -17 3 -17 19
0 17 -22 -4 -32 -11 -5 -9 -7 6 -7 12 -1 25 -8 28 -17 3 -8 2 -12 -4 -9 -6 3
-10 1 -10 -4 0 -6 5 -11 10 -11 6 0 10 -6 10 -12 0 -7 6 -25 14 -39 8 -16 10
-32 5 -40 -14 -23 -10 -32 7 -18 15 12 16 11 10 -8 -4 -12 -2 -24 4 -28 12 -7
14 -41 3 -48 -5 -2 -3 -3 4 -1 18 4 24 -8 10 -24 -10 -13 -9 -15 8 -8 11 4 16
4 13 0 -4 -4 -3 -15 3 -25 7 -13 6 -19 -1 -19 -6 0 -2 -9 8 -20 10 -11 25 -40
32 -63 8 -23 20 -55 29 -72 8 -16 14 -36 12 -44 -1 -7 2 -10 7 -7 8 5 22 -26
27 -59 0 -5 7 -9 14 -7 8 2 10 -4 6 -18 -5 -14 -2 -20 10 -20 9 0 13 -5 10
-10 -4 -6 -10 -8 -14 -6 -4 3 -8 -1 -8 -9 0 -11 4 -12 14 -3 19 16 58 -19 42
-38 -8 -10 -6 -12 10 -9 12 2 19 0 16 -5 -3 -5 -1 -11 5 -15 5 -3 10 -1 10 5
0 6 4 9 10 5 5 -3 7 -13 4 -23 -5 -15 -5 -15 6 1 8 13 16 15 29 7 10 -5 21 -6
25 -3 3 3 6 2 6 -3 0 -6 -5 -15 -12 -22 -9 -9 -9 -12 0 -12 7 0 12 4 12 10 0
5 3 9 8 9 18 -3 33 2 28 9 -7 11 35 9 53 -2 8 -5 17 -3 23 5 8 11 9 10 4 -3
-3 -12 -1 -15 9 -11 8 3 12 10 8 17 -4 6 1 4 12 -4 10 -8 19 -15 20 -15 1 0
10 7 20 15 15 12 17 12 10 1 -6 -11 -4 -13 11 -7 36 15 49 13 60 -7 10 -17 12
-18 17 -3 5 11 3 15 -5 10 -7 -5 -8 -3 -4 5 5 7 14 10 20 8 7 -3 19 -1 26 3 8
5 25 3 41 -5 24 -13 29 -13 40 2 10 12 10 15 2 9 -7 -4 -13 -2 -13 3 0 9 28
16 52 12 4 0 5 5 2 13 -3 8 0 17 7 22 7 4 10 3 7 -2 -3 -5 -1 -18 3 -29 9 -19
9 -19 5 2 -4 23 65 128 77 117 3 -4 -4 -15 -16 -26 l-22 -19 27 16 c23 14 26
20 17 36 -6 13 -6 19 1 19 5 0 10 7 10 16 0 9 5 12 12 8 7 -5 9 -2 5 9 -3 9 0
18 9 21 9 3 12 10 9 16 -3 5 1 10 10 10 9 0 14 4 11 9 -3 5 1 14 9 21 8 7 12
17 8 23 -4 6 -1 7 7 2 10 -6 12 -4 7 8 -3 9 1 18 10 21 18 7 35 -2 28 -15 -10
-15 2 -10 16 8 8 9 9 14 3 10 -7 -4 -17 0 -24 8 -10 12 -9 15 6 15 14 0 15 3
6 8 -20 13 30 62 58 57 13 -2 19 -1 16 3 -4 4 -12 7 -17 7 -5 0 -9 3 -9 8 0 4
0 12 0 17 0 6 5 10 11 10 5 0 8 -4 5 -8 -3 -5 1 -9 9 -9 11 0 12 4 4 14 -6 7
-8 21 -4 30 6 17 7 17 21 -1 16 -23 19 -14 4 15 -7 13 -7 19 0 19 5 0 10 5 10
10 0 6 10 25 22 43 13 18 24 33 25 35 1 2 12 -1 25 -8 21 -10 21 -10 6 3 -22
17 -23 31 -3 24 8 -4 17 -1 21 5 4 6 3 8 -4 4 -6 -3 -13 -2 -17 4 -3 5 -1 10
4 10 6 0 11 7 11 15 0 8 5 15 11 15 5 0 8 3 6 8 -3 4 1 13 9 19 10 10 15 10
23 -5 6 -9 10 -12 11 -7 0 6 -4 17 -10 25 -12 19 6 40 34 41 20 0 20 1 1 8
-18 7 -18 8 -1 18 10 5 16 14 14 19 -1 5 7 13 20 19 12 5 22 14 22 19 0 4 7 2
17 -5 15 -13 15 -12 3 8 -13 20 -15 20 -27 5 -7 -9 -13 -13 -13 -8 0 4 10 21
23 36 12 16 30 40 40 54 19 28 40 35 31 12 -3 -8 -2 -16 3 -19 4 -3 8 8 8 23
1 17 -4 26 -10 24 -5 -3 -2 1 8 10 11 8 26 12 35 9 14 -4 15 -3 2 5 -8 6 -19
8 -25 4 -5 -3 -4 2 4 12 10 12 16 13 21 6 5 -7 9 -4 13 9 3 12 1 19 -4 15 -5
-3 -9 0 -9 5 0 13 27 15 32 2 2 -5 10 -2 18 7 13 14 12 15 -2 10 -21 -9 -30 1
-15 17 9 10 15 10 26 1 12 -9 12 -8 2 12 -8 15 -8 22 -1 22 6 0 9 4 5 9 -3 5
5 17 17 26 13 8 22 19 20 22 -2 4 2 9 10 11 9 2 8 0 -2 -8 -13 -10 -13 -11 0
-7 8 2 14 14 13 25 -2 15 2 20 11 16 8 -3 17 0 22 7 4 7 3 10 -4 5 -6 -3 -13
-2 -17 4 -3 5 1 10 9 10 8 0 18 5 22 12 5 7 2 9 -7 4 -8 -4 -5 0 5 8 11 9 17
18 14 22 -8 7 28 44 43 44 5 0 7 4 4 10 -6 10 6 14 35 11 13 -2 13 -1 0 8 -8
5 -18 7 -22 5 -4 -3 -5 2 -2 11 5 12 9 13 20 4 12 -10 13 -9 8 4 -6 18 19 51
30 39 4 -3 4 1 0 11 -3 10 -1 17 5 17 6 0 11 -5 11 -12 0 -6 3 -8 6 -5 4 4 1
14 -7 24 -12 15 -12 16 3 10 12 -4 15 -2 12 7 -3 8 5 21 18 30 13 9 22 19 21
21 -7 12 -2 26 7 20 5 -3 7 -13 4 -23 -5 -13 -4 -14 4 -3 5 7 16 18 23 23 11
8 10 9 -3 5 -12 -4 -16 0 -15 13 1 15 4 16 14 8 8 -6 17 -8 20 -4 11 11 11 56
0 49 -6 -4 -7 -1 -3 6 5 7 15 10 23 7 8 -3 11 -2 8 4 -6 10 55 110 69 110 5 0
3 -7 -4 -15 -9 -10 -9 -15 -1 -15 6 0 11 5 11 11 0 8 6 7 18 -2 14 -11 15 -11
5 1 -7 8 -13 22 -13 33 0 14 5 17 23 12 20 -5 20 -5 4 5 -18 11 -18 13 -1 31
11 12 25 17 38 14 19 -5 19 -5 3 5 -17 11 -15 30 4 30 6 0 7 -5 3 -12 -4 -7
-3 -8 4 -4 6 4 9 13 6 21 -3 7 2 25 12 40 14 21 23 25 43 21 22 -5 23 -4 8 4
-17 11 -15 30 4 30 6 0 7 -4 4 -10 -10 -16 1 -12 15 6 8 8 9 14 4 13 -21 -4
-25 2 -10 16 17 17 30 20 21 5 -3 -5 -1 -10 4 -10 14 0 14 13 0 27 -8 8 -4 15
12 27 13 9 20 16 15 16 -4 0 6 16 23 35 17 20 31 40 31 46 0 6 5 7 11 4 7 -5
5 -13 -5 -24 -19 -21 -20 -31 -4 -31 6 0 8 3 5 7 -4 3 3 18 15 31 13 14 17 22
11 18 -7 -4 -13 -2 -13 3 0 6 4 11 10 11 5 0 9 3 9 8 -3 18 2 32 11 32 5 0 7
-7 4 -15 -4 -8 -1 -15 6 -15 6 0 9 4 5 9 -3 6 3 15 12 21 17 11 17 11 1 6 -10
-3 -18 -3 -18 1 0 11 65 92 74 93 5 0 2 -8 -5 -17 -11 -15 -10 -14 9 1 23 20
30 32 12 21 -5 -3 -10 1 -10 10 0 9 4 14 9 10 5 -3 12 4 16 15 6 20 20 26 28
13 2 -5 2 -2 0 5 -1 7 2 22 8 33 9 17 13 18 26 7 15 -12 15 -11 4 11 -8 15 -9
21 -2 17 6 -4 15 4 21 18 5 14 14 26 20 26 6 0 8 5 4 12 -5 8 -2 9 11 4 16 -6
16 -4 4 11 -8 9 -9 14 -3 10 7 -4 15 0 18 9 5 13 9 14 21 4 8 -7 12 -17 8 -24
-3 -6 -2 -7 2 -3 12 10 16 39 5 32 -16 -10 -16 19 -1 35 9 9 23 26 31 38 8 12
20 22 27 22 6 0 15 4 18 10 3 6 -1 7 -12 4 -16 -5 -16 -4 1 6 14 10 20 9 28
-1 7 -10 8 -8 3 7 -3 13 0 28 9 37 8 8 12 18 8 22 -4 5 -1 5 6 1 7 -4 12 -2
12 6 0 7 20 36 45 63 24 28 45 56 45 63 0 7 5 10 11 6 7 -4 0 -17 -17 -35 -15
-16 -24 -29 -18 -29 5 0 -4 -11 -20 -23 -22 -18 -26 -26 -16 -32 8 -5 11 -4 7
2 -4 6 4 18 18 27 14 9 24 22 22 29 -1 6 4 11 11 9 8 -1 11 2 8 7 -3 5 1 14
10 21 8 7 13 19 10 25 -6 16 10 40 26 40 7 0 13 7 13 15 0 8 15 30 33 48 24
25 38 32 55 27 l22 -6 -23 14 c-12 7 -20 16 -16 20 4 4 14 1 22 -6 12 -9 14
-9 8 0 -8 15 10 53 26 53 6 0 3 -9 -7 -20 -10 -11 -14 -20 -9 -20 15 0 35 38
24 45 -6 4 -7 11 -4 17 5 7 12 5 20 -7 12 -16 13 -15 11 11 -1 21 2 29 14 28
9 -1 16 5 16 12 0 7 -5 11 -11 8 -6 -3 -3 1 7 10 11 8 25 12 31 10 7 -3 19 3
27 13 12 16 12 17 -1 7 -17 -13 -52 -15 -44 -2 3 4 11 8 19 8 9 0 12 8 10 20
-2 11 0 18 6 15 5 -4 9 -1 9 5 0 6 4 8 10 5 6 -4 7 1 3 11 -4 11 -2 15 4 11 6
-4 9 6 6 29 -3 27 -1 34 9 28 13 -8 -3 16 -29 44 -14 15 -101 33 -108 22 -4
-7 -26 -7 -45 0 -12 4 -82 1 -87 -4 -3 -3 -14 -1 -24 4 -12 7 -20 7 -24 0 -5
-8 -11 -7 -21 1 -10 8 -14 8 -14 0z m-933 -1756 c0 -8 -4 -15 -9 -15 -4 0 -8
7 -8 15 0 8 4 15 8 15 5 0 9 -7 9 -15z m-1184 -1589 c4 -10 1 -13 -8 -9 -8 3
-12 9 -9 14 7 12 11 11 17 -5z"/>
<path d="M2134 4012 c5 -8 -9 -11 -46 -11 -54 0 -199 -7 -208 -11 -3 -1 -9 -2
-13 -1 -5 1 -24 -3 -43 -8 -25 -7 -34 -6 -34 2 0 8 -4 7 -9 -2 -5 -8 -19 -12
-35 -9 -14 3 -23 1 -20 -3 3 -5 -4 -9 -14 -9 -11 0 -63 -11 -117 -25 -53 -14
-101 -22 -107 -19 -7 5 -8 2 -3 -6 6 -10 4 -12 -8 -7 -10 3 -17 2 -17 -3 0 -6
-8 -10 -18 -10 -10 0 -22 -3 -26 -7 -4 -5 -11 -8 -14 -9 -4 0 -19 -6 -33 -12
-15 -6 -35 -12 -45 -14 -11 -2 -25 -9 -32 -16 -8 -7 -18 -10 -23 -7 -5 4 -9 1
-9 -5 0 -7 -7 -9 -17 -6 -10 4 -14 4 -10 0 7 -7 -112 -70 -125 -66 -5 1 -8 -2
-8 -7 0 -5 -10 -13 -22 -17 -12 -3 -28 -12 -35 -18 -31 -28 -43 -36 -50 -36
-5 0 -25 -14 -46 -31 -21 -17 -42 -27 -48 -23 -8 4 -9 3 -5 -4 4 -7 3 -12 -1
-12 -5 0 -21 -11 -36 -26 -15 -14 -32 -22 -39 -18 -6 4 -8 3 -5 -3 3 -5 -10
-22 -29 -39 -20 -16 -61 -54 -91 -84 -31 -30 -61 -54 -67 -52 -6 2 -8 0 -4 -3
4 -4 -5 -20 -20 -35 -15 -15 -38 -42 -52 -60 -14 -18 -36 -45 -50 -59 -14 -15
-31 -39 -39 -54 -8 -14 -19 -24 -24 -20 -6 3 -7 2 -4 -4 7 -12 -21 -55 -32
-49 -4 3 -7 -4 -8 -14 -1 -11 -16 -40 -33 -65 -17 -25 -27 -45 -23 -45 4 0 1
-5 -7 -10 -8 -5 -15 -13 -15 -17 -1 -20 -38 -82 -46 -77 -5 3 -6 -2 -3 -11 4
-8 1 -21 -5 -29 -6 -7 -7 -17 -3 -21 4 -5 0 -6 -9 -2 -13 4 -16 1 -12 -14 3
-11 0 -19 -6 -19 -7 0 -9 -5 -6 -10 4 -6 1 -18 -7 -27 -7 -9 -12 -18 -10 -20
7 -10 0 -23 -10 -17 -7 4 -8 3 -4 -5 4 -6 -2 -36 -13 -66 -11 -30 -18 -55 -15
-55 4 0 2 -6 -4 -12 -6 -7 -11 -17 -11 -23 -3 -35 -14 -74 -20 -70 -4 2 -5
-10 -3 -27 4 -23 2 -29 -8 -23 -9 5 -11 4 -6 -3 10 -17 -5 -113 -16 -106 -6 4
-5 -4 2 -16 11 -21 10 -22 -6 -16 -18 6 -18 5 0 -9 11 -8 15 -15 9 -15 -6 0
-10 -8 -9 -17 2 -9 0 -33 -4 -54 -4 -21 -4 -43 1 -50 4 -8 1 -18 -9 -26 -16
-12 -16 -13 1 -7 9 3 17 1 17 -5 0 -6 -6 -11 -12 -11 -9 0 -8 -4 2 -10 12 -8
12 -10 -5 -10 -14 0 -16 -3 -7 -9 16 -10 22 -171 7 -171 -5 0 -3 -5 5 -10 10
-6 11 -10 3 -10 -9 0 -10 -7 -3 -25 7 -18 6 -25 -3 -25 -8 0 -9 -3 -1 -8 16
-11 24 -41 14 -47 -6 -4 -10 -1 -10 6 0 7 -3 9 -7 5 -5 -4 0 -14 11 -21 10 -8
16 -20 13 -27 -2 -7 0 -21 4 -30 5 -9 11 -34 13 -55 6 -47 13 -80 20 -92 4 -5
0 -12 -6 -14 -9 -4 -8 -6 3 -6 16 -1 19 -27 6 -49 -5 -8 -3 -10 6 -6 8 3 17
-2 21 -12 4 -11 2 -15 -7 -11 -8 3 -14 -1 -14 -9 0 -7 4 -11 9 -8 4 3 8 0 8
-6 0 -6 4 -8 10 -5 13 8 13 -17 0 -33 -6 -6 -7 -10 -4 -8 3 3 12 -1 19 -7 10
-9 10 -15 1 -26 -6 -8 -6 -12 -1 -9 6 3 20 -14 31 -38 12 -24 18 -41 13 -38
-5 3 -9 0 -9 -5 0 -6 5 -11 11 -11 5 0 7 -4 4 -10 -3 -5 1 -10 9 -10 15 0 21
-17 17 -47 -1 -7 3 -13 10 -13 6 0 8 -7 5 -16 -3 -8 -2 -13 2 -10 4 3 13 -4
20 -15 7 -11 8 -19 2 -19 -5 0 -10 -4 -10 -10 0 -5 7 -7 15 -4 8 4 15 1 15 -5
0 -6 -6 -11 -12 -12 -7 0 -3 -4 9 -9 14 -6 23 -18 23 -30 0 -14 4 -19 13 -14
8 5 7 2 -2 -9 -12 -15 -12 -17 1 -12 14 6 29 -13 32 -38 1 -4 8 -12 16 -18 13
-10 13 -10 -1 -6 -9 3 -16 -1 -16 -8 0 -7 8 -10 20 -7 16 4 18 1 13 -19 -3
-13 -3 -18 0 -11 8 18 22 15 29 -7 3 -11 19 -34 35 -51 16 -17 32 -40 35 -51
4 -10 10 -17 14 -14 11 6 35 -41 27 -54 -7 -11 5 -15 32 -12 17 3 15 -9 -5
-25 -17 -13 -17 -14 -1 -8 11 4 20 0 24 -10 3 -9 13 -16 21 -16 11 0 8 6 -8
20 -13 10 -20 19 -16 20 4 0 16 -8 27 -18 13 -12 16 -22 10 -32 -5 -8 -10 -19
-10 -25 1 -5 5 -2 11 8 10 17 29 15 29 -4 0 -6 -5 -7 -11 -3 -6 3 -3 -5 6 -20
20 -30 30 -35 15 -7 -6 12 -6 22 -1 26 5 3 12 -4 16 -15 4 -11 10 -18 14 -15
5 2 17 -5 27 -16 16 -17 16 -22 4 -29 -13 -8 -12 -10 3 -10 9 0 17 6 18 13 0
6 5 -3 10 -21 5 -17 15 -32 21 -32 9 0 9 3 0 12 -29 29 -8 24 25 -7 20 -19 40
-32 45 -29 4 3 13 -5 20 -16 7 -12 28 -28 46 -37 17 -8 32 -20 32 -25 0 -5 -4
-6 -10 -3 -16 10 -12 -11 5 -25 13 -11 14 -10 10 3 -4 8 -1 18 6 23 8 4 10 3
5 -4 -4 -7 -2 -13 3 -13 6 -1 17 -2 23 -3 7 0 14 -9 16 -20 3 -11 0 -16 -7
-11 -6 3 -9 11 -6 16 3 5 -1 6 -9 3 -13 -5 -11 -10 9 -26 19 -15 28 -17 42 -8
15 9 14 10 -7 6 -14 -3 -19 -3 -12 0 6 3 9 11 6 16 -9 15 15 1 44 -26 13 -12
25 -20 28 -18 13 7 23 0 17 -14 -5 -13 -2 -15 13 -10 10 3 25 1 33 -3 13 -8
13 -12 0 -27 -12 -16 -12 -17 1 -9 23 14 50 16 50 3 0 -6 3 -9 6 -5 4 3 21 -1
38 -10 17 -10 34 -18 39 -19 4 -1 8 -2 10 -4 1 -1 10 -3 20 -5 26 -5 30 -12
12 -19 -9 -3 -14 -2 -11 2 3 5 -1 9 -9 9 -10 0 -12 -4 -5 -12 5 -7 8 -15 5
-19 -3 -3 1 -2 7 4 16 13 68 13 68 -1 0 -6 12 -9 28 -7 19 2 26 -1 24 -11 -3
-12 -1 -12 14 0 15 13 16 12 10 -11 -4 -14 -4 -20 1 -15 11 14 60 17 68 5 4
-6 12 -7 18 -3 7 3 4 -3 -6 -14 -12 -14 -15 -23 -7 -28 6 -3 10 -3 9 2 -4 21
3 22 26 7 23 -15 25 -15 19 0 -3 9 -10 13 -15 10 -5 -3 -9 0 -9 5 0 6 7 11 15
11 8 0 15 -4 15 -9 0 -5 13 -7 29 -6 21 2 28 -1 24 -11 -3 -8 -9 -14 -15 -14
-5 0 -7 4 -4 8 3 5 -1 9 -9 9 -20 0 -19 -13 1 -21 10 -4 25 1 37 11 19 18 19
17 13 -7 l-7 -25 14 24 c10 17 16 20 22 11 4 -6 18 -10 31 -7 14 2 27 1 29 -3
3 -4 18 -6 35 -5 17 1 32 0 35 -4 2 -4 24 -6 48 -6 31 1 44 -2 40 -10 -2 -7 5
-15 17 -18 16 -4 19 -2 11 7 -8 9 -7 13 4 13 8 0 15 -7 15 -16 0 -11 3 -10 14
5 8 10 18 16 22 12 4 -4 13 -3 20 3 9 8 11 6 7 -9 -3 -12 2 -22 12 -26 9 -3
14 -2 10 4 -4 7 5 9 24 5 22 -4 31 -1 31 9 0 18 47 18 54 0 7 -18 26 -18 26 0
0 8 4 18 10 21 5 3 7 0 4 -8 -3 -8 0 -18 7 -23 7 -4 10 -3 5 4 -3 6 -2 13 3
16 5 3 11 -1 15 -9 4 -11 11 -13 29 -6 14 6 30 5 41 -1 10 -5 20 -7 23 -4 4 3
1 6 -6 6 -9 0 -9 5 -1 20 6 11 15 18 21 15 17 -11 61 -16 55 -6 -4 5 3 7 16 3
14 -3 19 -1 14 6 -4 7 1 9 16 7 12 -3 26 1 30 8 6 9 8 9 8 -2 0 -11 3 -11 15
-1 8 7 15 9 15 6 0 -4 10 -2 21 5 15 8 19 8 15 0 -4 -6 -3 -11 3 -11 6 0 9 -6
7 -12 -1 -7 -1 -10 1 -5 3 4 10 4 16 1 8 -5 8 -2 0 7 -17 18 -17 34 0 20 8 -6
17 -8 21 -4 4 4 12 1 17 -7 9 -13 10 -13 6 0 -2 8 -11 14 -20 14 -9 -1 -14 2
-11 8 3 5 15 6 26 2 13 -4 18 -2 14 4 -3 6 2 9 11 7 10 -1 27 5 37 14 11 9 16
11 13 5 -9 -15 31 -26 40 -12 3 6 1 8 -5 4 -6 -3 -14 -1 -18 6 -4 7 -4 10 1 6
4 -4 13 -3 20 2 6 5 22 12 36 14 13 3 24 5 24 7 0 6 52 5 61 -2 7 -5 11 -3 11
6 0 8 -4 12 -8 9 -4 -2 -11 1 -15 8 -4 7 -4 10 1 6 4 -4 15 -2 23 5 11 8 14 9
9 0 -5 -8 -1 -11 12 -10 10 0 17 6 14 13 -2 7 1 15 8 20 8 4 10 3 5 -4 -4 -7
-3 -12 3 -12 6 0 8 -7 5 -15 -4 -8 -1 -15 5 -15 6 0 10 5 8 12 -1 7 4 12 11
13 14 0 17 13 6 23 -4 4 -4 2 -1 -4 3 -6 0 -11 -8 -11 -18 0 -20 14 -2 20 21
8 49 -13 42 -31 -5 -14 -4 -14 6 -5 10 10 9 17 -7 34 -10 13 -14 20 -8 16 6
-4 19 2 28 12 10 11 28 18 42 16 15 -1 24 3 24 12 0 8 4 12 8 9 5 -3 18 2 28
12 36 32 58 47 50 35 -4 -7 -3 -13 1 -13 5 0 14 9 21 21 11 17 16 18 28 8 12
-10 13 -9 8 7 -4 10 -4 16 1 12 4 -4 16 3 26 15 10 12 18 18 19 12 0 -5 7 0
15 12 9 13 22 20 31 16 9 -3 14 0 12 8 -2 9 4 13 16 11 10 -2 15 1 12 6 -3 5
3 17 14 27 11 10 20 15 20 10 0 -4 -8 -14 -17 -22 -14 -11 -14 -13 -3 -10 8 2
20 14 26 26 13 24 23 17 19 -12 -2 -9 1 -15 5 -12 5 3 7 15 5 27 -3 12 5 30
18 44 24 25 47 31 47 12 0 -6 3 -8 6 -5 4 4 2 13 -4 20 -7 8 -9 16 -6 20 9 9
35 -4 28 -14 -3 -5 2 -6 11 -3 14 6 14 8 -2 21 -17 14 -17 14 4 10 14 -3 21 0
20 7 -1 6 4 10 11 8 8 -1 11 2 7 8 -5 8 -11 7 -21 -1 -8 -6 -14 -8 -14 -3 0 5
16 20 34 34 19 14 32 28 30 31 -2 4 3 10 12 13 12 5 15 2 10 -9 -3 -10 -2 -14
5 -9 6 3 9 15 6 25 -3 12 7 29 34 52 21 19 35 38 31 42 -4 5 -1 5 6 1 7 -4 12
-1 12 9 0 8 10 20 23 25 12 5 16 9 9 9 -7 1 -10 6 -7 11 4 6 12 7 18 3 18 -11
38 -12 31 -2 -3 5 -9 7 -14 4 -4 -3 -11 2 -14 11 -3 8 -2 12 4 9 6 -3 10 1 10
9 0 9 5 16 11 16 5 0 7 -5 3 -12 -4 -6 -3 -8 4 -4 6 3 9 15 7 26 -2 11 0 20 6
20 5 0 8 3 7 8 -2 6 49 91 63 102 3 3 9 13 12 24 4 10 13 16 21 13 8 -3 20 2
28 11 12 15 11 16 -4 4 -24 -19 -34 4 -12 29 9 10 13 19 9 19 -4 0 -1 8 7 18
9 9 19 27 22 40 4 12 11 22 16 22 5 0 6 7 3 17 -4 11 -3 14 6 9 8 -5 11 -3 10
5 -5 23 12 60 23 53 7 -5 8 -2 4 5 -5 7 0 21 10 32 19 21 29 53 13 43 -5 -3
-7 -9 -4 -14 3 -5 1 -11 -5 -15 -5 -3 -10 0 -10 7 1 17 25 49 34 43 3 -3 2 0
-3 6 -11 13 7 61 20 54 4 -3 11 0 15 6 4 7 3 9 -4 5 -6 -3 -13 -2 -16 3 -3 5
1 12 10 15 14 5 14 9 3 23 -8 10 -9 14 -2 10 6 -4 14 -3 18 3 3 5 -1 10 -9 10
-9 0 -16 5 -16 11 0 6 8 9 18 7 11 -3 19 0 19 8 0 7 -4 11 -8 8 -7 -4 -7 13 0
59 0 5 5 6 9 3 5 -3 9 1 9 9 0 8 -4 12 -9 9 -4 -3 -8 0 -8 5 0 6 4 11 9 11 5
0 8 11 6 25 -2 23 6 30 28 26 5 -1 6 3 2 9 -3 6 -10 8 -15 5 -5 -3 -8 4 -7 15
1 11 6 20 12 21 5 0 1 4 -10 9 -15 7 -16 9 -4 9 12 1 15 8 11 26 -4 21 -1 24
14 19 17 -5 17 -4 2 5 -20 13 -16 45 9 75 10 11 11 15 3 9 -18 -16 -29 -16
-26 0 3 23 17 37 29 30 7 -4 6 0 -2 10 -15 19 -26 23 -15 5 5 -7 3 -8 -5 -4
-9 6 -8 13 6 29 10 11 14 18 8 15 -6 -4 -10 17 -11 53 0 36 3 56 9 52 6 -4 7
-1 1 8 -15 24 -16 62 -2 70 9 6 7 9 -7 9 -17 0 -17 2 -5 10 10 6 11 10 3 10
-8 0 -13 14 -12 38 0 45 -6 91 -14 99 -4 3 -2 15 4 26 9 15 8 18 -2 12 -9 -6
-11 -3 -6 8 4 10 2 17 -5 17 -6 0 -3 9 8 21 10 11 14 20 9 19 -6 -2 -17 -2
-24 -1 -12 1 -12 4 -3 13 7 7 12 17 12 23 0 5 -5 3 -11 -5 -9 -12 -10 -11 -6
7 3 12 -2 31 -10 43 -8 12 -12 24 -9 27 3 3 2 11 -4 17 -5 7 -12 27 -15 46 -3
19 -10 37 -16 38 -5 2 -7 8 -4 13 3 4 -1 21 -9 37 -8 16 -12 32 -9 36 4 3 1 6
-6 6 -7 0 -10 4 -7 8 3 5 -4 23 -15 41 -11 18 -17 36 -14 41 3 5 1 11 -5 15
-5 3 -17 23 -26 43 -10 20 -24 45 -32 55 -8 9 -12 17 -7 17 4 0 2 7 -5 15 -10
12 -10 18 1 33 11 14 11 15 -1 5 -16 -14 -31 -17 -28 -5 1 4 -3 17 -10 30 -7
12 -10 27 -7 32 3 6 -1 7 -9 4 -11 -4 -16 0 -16 10 0 9 -9 24 -20 33 -21 19
-28 39 -8 27 7 -4 8 -3 4 5 -4 6 -12 8 -18 5 -7 -5 -9 -1 -5 9 4 10 2 16 -5
14 -6 -1 -24 17 -40 41 -16 23 -33 42 -37 42 -9 0 -91 -87 -141 -148 -18 -23
-38 -39 -44 -35 -6 3 -8 3 -4 -2 4 -4 4 -13 -2 -20 -10 -13 -2 -55 11 -55 14
0 11 -28 -3 -34 -7 -3 -3 -3 9 -1 25 7 55 -28 46 -54 -4 -9 -3 -13 1 -9 5 4
14 1 21 -5 11 -10 11 -16 -1 -34 -13 -20 -12 -21 10 -17 17 3 28 -3 39 -20 15
-22 15 -24 -3 -19 -11 3 -16 11 -13 19 3 8 3 14 0 14 -3 0 -8 -7 -11 -16 -4
-10 3 -18 24 -26 35 -12 40 -28 8 -22 -16 3 -18 2 -7 -3 9 -5 15 -16 13 -25
-1 -10 3 -21 8 -25 7 -3 8 -1 4 5 -4 7 -1 12 6 12 10 0 9 3 -2 11 -13 9 -13
10 0 6 15 -4 16 -7 19 -48 0 -11 6 -17 11 -14 10 6 14 -15 11 -44 -2 -7 2 -10
8 -6 9 5 13 -7 10 -31 0 -4 5 -10 11 -14 9 -6 9 -13 -1 -31 -12 -23 -11 -23 6
-9 17 14 18 13 12 -2 -3 -10 -2 -20 2 -23 5 -2 11 -14 14 -25 3 -13 1 -18 -6
-13 -7 4 -5 -1 3 -11 13 -17 20 -43 24 -91 0 -11 4 -22 8 -25 14 -11 12 -81
-2 -91 -12 -9 -12 -10 3 -5 11 4 17 0 18 -12 0 -9 2 -30 4 -45 3 -19 0 -27 -8
-24 -7 3 -11 10 -9 16 1 7 -2 9 -9 5 -9 -5 -7 -12 7 -23 24 -21 28 -39 12 -59
-8 -9 -8 -13 -2 -9 8 5 13 -7 16 -38 2 -31 -1 -45 -9 -45 -7 0 -13 -5 -13 -11
0 -5 4 -8 9 -5 5 3 11 -3 14 -14 3 -12 -1 -24 -11 -30 -15 -8 -15 -9 2 -10 20
0 20 0 0 -16 -10 -8 -13 -13 -6 -9 7 4 12 0 12 -9 0 -8 -6 -17 -12 -19 -10 -4
-9 -6 1 -6 11 -1 11 -4 0 -18 -10 -11 -10 -14 -1 -9 7 4 12 1 12 -9 0 -9 -5
-13 -11 -9 -7 4 -7 -1 1 -16 7 -13 8 -25 3 -29 -5 -3 -8 -15 -8 -26 0 -11 -5
-31 -13 -44 -8 -13 -9 -20 -3 -17 6 4 11 3 11 -3 0 -5 -5 -13 -10 -16 -7 -5
-8 -11 -1 -18 6 -8 5 -19 -5 -31 -7 -10 -11 -23 -8 -27 3 -5 2 -15 -3 -21 -8
-13 -11 -27 -17 -66 -1 -12 -6 -25 -9 -29 -4 -3 -7 -15 -7 -25 0 -10 -4 -18
-9 -18 -5 0 -11 -18 -15 -40 -4 -27 -10 -39 -18 -34 -6 4 -8 3 -5 -4 9 -14 -3
-43 -14 -36 -5 3 -6 -3 -2 -12 3 -10 2 -15 -3 -12 -5 4 -10 -6 -11 -20 0 -14
-9 -32 -19 -39 -10 -7 -14 -13 -10 -13 5 0 3 -6 -3 -13 -6 -8 -7 -18 -3 -22 4
-5 0 -6 -9 -3 -12 5 -15 1 -11 -17 2 -12 -2 -26 -9 -30 -8 -6 -10 -4 -4 6 5 8
4 10 0 6 -5 -4 -10 -13 -11 -20 -3 -24 -46 -87 -55 -81 -5 3 -9 2 -8 -3 3 -20
-2 -34 -11 -28 -6 3 -7 -1 -4 -9 4 -11 0 -16 -11 -16 -9 0 -14 -4 -11 -9 3 -5
-6 -21 -19 -35 -14 -15 -25 -30 -25 -33 0 -4 -26 -32 -59 -64 -32 -32 -56 -61
-52 -65 3 -4 -2 -4 -12 -1 -10 4 -16 3 -13 -2 3 -4 -20 -31 -52 -59 -76 -67
-112 -95 -112 -86 0 4 -8 -2 -17 -12 -26 -29 -89 -65 -98 -56 -5 4 -5 2 -2 -5
4 -7 -10 -20 -35 -33 -24 -12 -68 -35 -98 -51 -30 -16 -56 -30 -57 -30 -2 0
-12 -3 -23 -6 -11 -3 -20 -9 -20 -14 0 -5 -3 -8 -7 -7 -5 1 -24 -4 -43 -11
-36 -14 -51 -19 -72 -24 -7 -1 -17 -5 -23 -9 -5 -3 -26 -9 -45 -14 -44 -10
-38 -8 -89 -23 -23 -7 -49 -10 -56 -7 -8 3 -15 1 -17 -4 -3 -9 -55 -19 -148
-26 -36 -3 -66 -7 -69 -9 -2 -3 -13 0 -24 6 -14 8 -18 8 -13 0 10 -15 -277 -3
-354 14 -14 4 -38 8 -55 10 -16 2 -43 9 -60 15 -16 6 -31 11 -32 11 -15 -4
-43 1 -40 7 3 4 -11 8 -30 9 -20 1 -41 7 -46 12 -6 6 -24 11 -39 11 -15 0 -28
5 -28 10 0 6 -6 10 -14 10 -8 0 -35 9 -61 20 -32 14 -44 24 -39 32 6 9 3 9 -9
-1 -9 -7 -17 -9 -17 -4 0 5 -18 16 -40 23 -22 7 -40 17 -40 22 0 4 -7 8 -16 8
-9 0 -12 5 -8 12 4 7 3 8 -5 4 -12 -8 -131 62 -131 77 0 4 -5 7 -11 7 -6 0
-17 6 -24 13 -8 6 -26 21 -41 32 -14 11 -39 32 -55 47 -16 15 -29 24 -29 21 0
-4 -16 8 -35 27 -19 18 -31 38 -28 43 3 6 1 7 -4 4 -13 -8 -36 17 -25 27 4 4
2 6 -4 4 -6 -2 -26 13 -43 32 -18 19 -43 47 -57 62 -13 15 -24 29 -24 32 0 3
-13 20 -30 38 -16 18 -30 38 -30 45 0 7 -5 13 -11 13 -5 0 -8 4 -5 9 3 5 -1
11 -9 15 -8 3 -15 10 -15 17 0 6 -9 24 -21 40 -11 16 -21 38 -22 48 0 11 -4
18 -8 15 -6 -3 -30 44 -32 63 0 4 -7 14 -14 21 -7 8 -11 18 -8 23 4 5 1 9 -5
9 -6 0 -9 4 -5 9 3 5 1 12 -5 16 -6 4 -8 11 -5 16 4 5 2 9 -2 9 -13 0 -46 97
-37 111 4 8 3 9 -4 5 -8 -5 -12 3 -12 23 0 17 -5 31 -11 31 -7 0 -10 15 -7 39
2 22 1 39 -2 39 -18 -1 -21 4 -9 19 10 11 10 14 2 9 -9 -5 -13 1 -13 19 0 17
4 24 12 19 7 -4 8 -3 4 5 -4 6 -12 8 -18 5 -7 -5 -9 2 -4 20 3 14 2 26 -3 26
-5 0 -9 14 -9 30 1 17 5 30 10 30 5 0 2 7 -6 16 -18 18 -21 34 -5 34 5 0 7 -5
3 -12 -5 -7 -3 -8 6 -3 10 6 10 11 -3 20 -18 13 -24 41 -7 30 6 -4 7 1 3 11
-5 13 -3 15 7 9 8 -5 11 -4 6 3 -4 6 -12 9 -19 6 -8 -3 -12 10 -11 46 0 27 4
53 7 57 4 3 1 13 -6 21 -10 13 -9 14 2 8 10 -7 12 -3 6 14 -6 17 -4 21 6 14
11 -6 12 -5 3 7 -6 8 -10 25 -7 39 2 14 5 42 6 62 2 34 17 67 17 38 0 -7 2
-11 5 -8 3 3 1 17 -6 31 -9 20 -8 31 4 56 9 17 11 31 6 31 -6 0 -7 5 -4 10 4
6 12 7 18 4 9 -5 9 -4 0 6 -8 9 -9 19 -2 32 5 10 7 18 3 18 -3 0 -1 6 5 13 6
8 8 17 4 20 -3 4 -1 8 5 8 26 3 31 4 38 11 3 4 -3 5 -16 3 -17 -3 -20 -1 -15
13 4 9 8 22 9 27 1 6 5 16 9 23 5 6 5 12 0 12 -4 0 3 7 15 16 19 13 21 18 10
32 -8 9 -8 13 -2 9 7 -4 15 0 18 9 9 24 7 31 -5 14 -14 -19 -10 -10 31 78 18
39 39 72 46 72 8 0 14 5 14 11 0 5 -6 7 -12 3 -7 -4 -5 2 4 13 10 11 18 24 18
30 0 6 5 13 11 15 5 2 11 12 13 22 1 10 10 24 20 31 10 7 17 17 16 21 -1 5 4
10 11 13 7 2 9 -1 4 -9 -5 -9 -4 -11 4 -6 8 5 9 12 2 19 -6 8 -5 18 4 30 7 10
16 14 19 8 3 -5 0 -12 -6 -14 -10 -4 -10 -6 0 -6 7 -1 10 -6 6 -13 -4 -6 -3
-8 4 -4 6 3 9 18 6 32 -3 16 -1 23 6 19 6 -3 7 0 4 9 -4 11 0 16 10 16 9 0 16
5 16 11 0 5 -6 7 -12 3 -7 -5 1 8 17 28 34 40 74 67 92 61 17 -6 27 17 14 30
-9 9 -11 8 -6 -5 4 -11 2 -18 -5 -18 -6 0 -10 8 -8 18 2 11 12 16 26 15 15 -2
20 2 16 12 -3 8 1 22 10 31 14 14 19 14 34 2 15 -12 16 -11 3 4 -11 15 -11 19
1 23 8 3 27 1 42 -5 17 -6 25 -6 21 0 -3 6 -12 10 -20 10 -8 0 -17 5 -21 12
-5 8 -2 9 12 4 10 -4 15 -4 12 0 -4 4 -3 15 3 26 10 19 11 19 32 1 21 -18 21
-18 7 1 -14 18 -13 19 4 13 15 -6 16 -5 8 6 -8 10 -6 16 11 27 20 12 21 12 8
-4 -12 -14 -12 -16 3 -10 9 3 16 16 16 27 0 20 0 20 15 1 9 -12 14 -14 15 -6
0 7 5 10 12 6 7 -4 8 -3 4 5 -4 6 -12 8 -18 5 -7 -5 -8 -2 -4 5 5 7 14 10 21
7 8 -3 19 2 25 9 7 8 17 12 22 9 6 -4 14 0 19 7 15 23 10 34 -6 13 -8 -10 -15
-14 -15 -7 0 6 10 19 22 28 21 14 24 14 35 -2 8 -10 13 -12 13 -4 0 7 4 10 8
7 5 -3 9 1 9 9 0 11 -4 12 -14 4 -7 -6 -13 -7 -13 -3 0 5 9 15 20 21 16 11 22
9 36 -10 17 -23 17 -23 1 23 -1 3 2 6 7 7 5 1 13 7 18 15 8 10 9 10 5 -2 -2
-8 -10 -14 -16 -12 -7 1 -10 -2 -6 -8 4 -6 15 -4 31 6 24 16 35 32 12 18 -9
-5 -8 -2 1 9 8 10 16 15 19 12 3 -3 12 1 20 8 13 9 14 9 8 0 -10 -19 5 -16 18
3 6 8 18 16 26 17 8 2 21 6 28 11 7 4 19 2 28 -5 12 -10 13 -9 8 6 -5 13 -4
16 4 11 7 -4 12 -1 13 6 0 7 5 3 11 -9 6 -13 16 -23 22 -23 6 0 5 5 -2 12 -18
18 -15 33 4 18 12 -11 18 -10 32 5 9 10 11 15 5 11 -7 -4 -13 -3 -13 2 0 14
47 21 60 8 8 -8 11 -7 8 4 -2 8 3 15 10 16 6 1 13 2 15 4 2 2 21 6 65 14 20 4
32 2 32 -4 0 -6 5 -8 10 -5 6 4 8 10 6 14 -3 4 7 7 22 6 15 -1 30 3 34 9 4 6
6 -4 3 -22 -2 -18 0 -30 5 -27 5 3 6 13 3 22 -4 10 -2 14 5 9 6 -3 14 -1 18 5
4 8 3 9 -4 5 -7 -4 -12 -2 -12 4 0 7 8 9 21 5 12 -4 19 -3 16 1 -3 5 11 9 31
8 21 0 40 4 43 9 3 5 9 1 12 -8 4 -9 3 -13 -3 -10 -6 3 -10 1 -10 -4 0 -6 5
-11 11 -11 5 0 7 -5 3 -12 -4 -6 -3 -8 4 -5 5 4 9 17 8 30 -3 21 1 22 75 23
43 0 76 -3 73 -8 -3 -4 -17 -6 -32 -3 -31 5 -61 -8 -43 -19 6 -4 11 -3 11 3 0
5 9 9 20 8 11 -1 20 -5 20 -10 0 -4 4 -6 9 -3 5 4 11 3 14 -1 2 -5 2 -2 1 5
-2 7 6 12 19 12 18 0 19 2 7 11 -12 8 -11 9 5 7 11 -2 26 -9 33 -16 8 -7 17
-10 22 -7 5 3 10 -1 13 -7 2 -7 8 -9 13 -5 10 9 -16 28 -28 21 -4 -3 -8 -1 -8
5 0 5 9 9 20 8 11 -1 20 -4 20 -7 0 -3 26 -7 58 -8 116 -5 123 -6 117 -19 -12
-31 -15 -46 -4 -26 9 18 20 22 50 21 36 -1 59 -21 38 -32 -5 -2 -4 -3 3 -2 7
2 14 8 14 14 3 23 4 24 17 13 8 -6 18 -7 22 -3 5 4 4 1 0 -7 -6 -11 -4 -13 8
-8 9 3 19 2 22 -3 3 -5 14 -7 25 -5 12 2 18 0 15 -5 -3 -5 -14 -7 -25 -5 -11
2 -20 0 -20 -5 0 -8 9 -10 73 -10 30 0 31 -2 16 -33 -9 -19 -8 -20 3 -6 19 22
55 29 69 13 6 -8 15 -11 20 -9 4 3 17 -3 28 -14 12 -12 27 -18 36 -15 8 4 15
1 15 -6 0 -6 -4 -8 -10 -5 -6 3 -7 -1 -3 -10 4 -12 8 -13 13 -4 5 6 15 9 24 6
9 -4 15 -1 13 6 -1 7 6 11 16 11 12 -1 15 2 9 10 -6 7 8 33 39 74 26 34 50 58
54 52 8 -13 25 -13 25 1 0 5 -4 7 -10 4 -5 -3 -10 1 -10 9 0 8 5 18 12 22 7 5
8 3 3 -6 -6 -9 -4 -11 4 -6 7 5 10 14 7 21 -3 8 1 19 9 25 16 14 9 40 -12 40
-8 0 -11 5 -8 10 3 6 -3 10 -15 10 -18 0 -56 16 -70 30 -3 3 -9 6 -15 7 -17 4
-179 65 -197 74 -10 5 -27 9 -38 9 -12 0 -19 4 -16 9 3 4 -6 6 -21 3 -18 -3
-24 -1 -19 6 4 8 2 10 -8 6 -8 -3 -21 -2 -27 2 -7 4 -27 9 -43 10 -17 2 -42 5
-56 9 -48 11 -166 27 -210 28 -25 1 -48 7 -52 12 -5 6 -8 5 -8 -3 0 -9 -8 -10
-27 -6 -15 4 -37 8 -48 8 -11 1 -26 6 -34 10 -10 6 -12 5 -7 -2z m556 -396 c0
-2 -7 -7 -16 -10 -8 -3 -12 -2 -9 4 6 10 25 14 25 6z m-1105 -16 c3 -5 1 -10
-4 -10 -6 0 -11 5 -11 10 0 6 2 10 4 10 3 0 8 -4 11 -10z m-405 -184 c0 -2 -6
-9 -14 -15 -11 -9 -16 -9 -22 0 -4 8 -3 9 4 5 7 -4 12 -2 12 3 0 6 5 11 10 11
6 0 10 -2 10 -4z m-660 -810 c0 -3 -4 -8 -10 -11 -5 -3 -10 -1 -10 4 0 6 5 11
10 11 6 0 10 -2 10 -4z m1810 -2571 c0 -1 -12 -2 -26 -2 -17 0 -22 2 -13 7 10
7 39 3 39 -5z m-230 -3 c0 -4 -9 -8 -19 -8 -11 0 -17 4 -15 8 3 4 12 8 20 8 8
0 14 -4 14 -8z"/>
<path d="M4007 3824 c-3 -3 -3 -12 0 -20 3 -9 0 -14 -7 -12 -7 2 -15 -4 -17
-12 -4 -12 -3 -12 5 -2 5 8 13 13 18 13 5 -1 10 8 10 19 1 22 0 23 -9 14z"/>
<path d="M3943 3736 c0 -7 6 -13 14 -13 7 0 13 4 13 8 0 4 -6 9 -13 12 -8 3
-14 0 -14 -7z"/>
<path d="M3076 3717 c3 -10 9 -15 12 -12 3 3 0 11 -7 18 -10 9 -11 8 -5 -6z"/>
<path d="M2023 3676 c-3 -5 -2 -7 3 -4 12 8 35 -17 26 -28 -4 -4 -1 -4 6 0 10
6 10 11 2 21 -8 10 -7 14 2 18 7 3 3 4 -10 4 -13 -1 -26 -6 -29 -11z"/>
<path d="M1941 3664 c0 -11 3 -14 6 -6 3 7 2 16 -1 19 -3 4 -6 -2 -5 -13z"/>
<path d="M2190 3670 c0 -5 5 -10 10 -10 6 0 10 5 10 10 0 6 -4 10 -10 10 -5 0
-10 -4 -10 -10z"/>
<path d="M2280 3668 c0 -4 4 -8 9 -8 6 0 12 4 15 8 3 5 -1 9 -9 9 -8 0 -15 -4
-15 -9z"/>
<path d="M2340 3665 c8 -11 14 -21 15 -22 0 -1 8 4 18 12 16 11 16 13 2 19 -9
3 -13 2 -10 -4 9 -14 -8 -12 -25 3 -12 10 -12 9 0 -8z"/>
<path d="M3926 3668 c3 -5 10 -6 15 -3 13 9 11 12 -6 12 -8 0 -12 -4 -9 -9z"/>
<path d="M1900 3655 c-9 -10 -9 -15 -1 -15 6 0 11 5 11 11 0 5 5 7 12 3 7 -4
8 -3 4 4 -9 15 -11 15 -26 -3z"/>
<path d="M2407 3653 c3 -7 9 -10 14 -7 14 8 11 21 -5 21 -8 0 -12 -6 -9 -14z"/>
<path d="M1805 3649 c-4 -6 -5 -12 -2 -15 2 -3 7 2 10 11 7 17 1 20 -8 4z"/>
<path d="M2230 3651 c0 -6 4 -13 10 -16 6 -3 7 1 4 9 -7 18 -14 21 -14 7z"/>
<path d="M2315 3650 c3 -5 8 -10 11 -10 2 0 4 5 4 10 0 6 -5 10 -11 10 -5 0
-7 -4 -4 -10z"/>
<path d="M3014 3652 c4 -7 1 -12 -6 -12 -7 0 -19 -9 -26 -20 -7 -11 -8 -20 -3
-20 5 0 12 7 15 16 3 8 10 13 15 10 5 -3 11 1 15 9 3 8 0 17 -6 21 -7 4 -8 3
-4 -4z"/>
<path d="M1734 3638 c-3 -5 -10 -6 -15 -3 -5 4 -9 1 -9 -4 0 -14 17 -14 25 0
5 7 15 5 31 -6 24 -15 24 -15 13 3 -12 19 -36 25 -45 10z"/>
<path d="M2464 3639 c-3 -6 -3 -13 0 -16 3 -4 6 -1 6 5 0 16 27 15 32 0 3 -8
6 -7 10 3 7 18 -37 25 -48 8z"/>
<path d="M2558 3638 c10 -13 10 -17 0 -20 -8 -3 -9 -6 -1 -11 18 -12 23 21 5
35 -15 11 -16 11 -4 -4z"/>
<path d="M1685 3631 c-3 -6 -11 -9 -16 -6 -5 3 -6 -1 -3 -9 3 -9 10 -16 16
-16 5 0 7 4 4 9 -4 5 0 11 6 14 7 2 10 7 7 11 -4 4 -10 2 -14 -3z"/>
<path d="M2595 3619 c-4 -6 -5 -12 -2 -15 2 -3 7 2 10 11 7 17 1 20 -8 4z"/>
<path d="M1620 3600 c-6 -11 -7 -20 -2 -20 6 0 12 9 15 20 3 11 3 20 1 20 -2
0 -8 -9 -14 -20z"/>
<path d="M2670 3580 c-9 -6 -10 -10 -3 -10 6 0 15 5 18 10 8 12 4 12 -15 0z"/>
<path d="M2955 3580 c-3 -5 -1 -10 4 -10 6 0 11 5 11 10 0 6 -2 10 -4 10 -3 0
-8 -4 -11 -10z"/>
<path d="M2750 3576 c0 -14 31 -39 38 -30 4 5 5 8 3 6 -2 -1 -13 5 -23 15 -10
9 -18 13 -18 9z"/>
<path d="M1475 3560 c-4 -6 -11 -8 -16 -5 -5 4 -9 1 -9 -4 0 -14 17 -14 25 -1
4 6 11 7 17 4 7 -4 8 -2 4 4 -9 15 -13 15 -21 2z"/>
<path d="M1531 3554 c0 -11 3 -14 6 -6 3 7 2 16 -1 19 -3 4 -6 -2 -5 -13z"/>
<path d="M2720 3556 c0 -2 7 -7 16 -10 8 -3 12 -2 9 4 -6 10 -25 14 -25 6z"/>
<path d="M2801 3537 c-8 -10 -7 -14 2 -14 8 0 14 6 14 14 0 7 -1 13 -2 13 -2
0 -8 -6 -14 -13z"/>
<path d="M3793 3535 c0 -8 4 -12 9 -9 5 3 6 10 3 15 -9 13 -12 11 -12 -6z"/>
<path d="M1480 3530 c-9 -6 -10 -10 -3 -10 6 0 15 5 18 10 8 12 4 12 -15 0z"/>
<path d="M1383 3509 c11 -17 14 -16 20 7 1 4 -6 8 -15 10 -14 2 -15 -1 -5 -17z"/>
<path d="M1426 3514 c-5 -14 -4 -15 9 -4 17 14 19 20 6 20 -5 0 -12 -7 -15
-16z"/>
<path d="M2833 3505 c0 -8 4 -12 9 -9 5 3 6 10 3 15 -9 13 -12 11 -12 -6z"/>
<path d="M3718 3461 c-12 -12 -14 -21 -7 -31 9 -13 10 -12 6 2 -5 14 11 29 35
32 15 2 16 12 0 13 -9 0 -25 -7 -34 -16z"/>
<path d="M1230 3431 c0 -6 4 -13 10 -16 6 -3 7 1 4 9 -7 18 -14 21 -14 7z"/>
<path d="M1165 3370 c-3 -6 1 -7 9 -4 18 7 21 14 7 14 -6 0 -13 -4 -16 -10z"/>
<path d="M1020 3286 c0 -2 7 -7 16 -10 8 -3 12 -2 9 4 -6 10 -25 14 -25 6z"/>
<path d="M3590 3279 c0 -5 5 -7 10 -4 6 3 10 8 10 11 0 2 -4 4 -10 4 -5 0 -10
-5 -10 -11z"/>
<path d="M3546 3252 c-3 -5 1 -9 9 -9 8 0 12 4 9 9 -3 4 -7 8 -9 8 -2 0 -6 -4
-9 -8z"/>
<path d="M926 3212 c-3 -5 1 -9 9 -9 8 0 15 4 15 9 0 4 -4 8 -9 8 -6 0 -12 -4
-15 -8z"/>
<path d="M3513 3195 c0 -8 4 -15 9 -15 4 0 8 4 8 9 0 6 -4 12 -8 15 -5 3 -9
-1 -9 -9z"/>
<path d="M3516 3148 c3 -5 10 -6 15 -3 13 9 11 12 -6 12 -8 0 -12 -4 -9 -9z"/>
<path d="M3440 3125 c-7 -9 -8 -15 -2 -15 5 0 12 7 16 15 3 8 4 15 2 15 -2 0
-9 -7 -16 -15z"/>
<path d="M3475 3131 c-3 -5 -2 -12 3 -15 5 -3 9 1 9 9 0 17 -3 19 -12 6z"/>
<path d="M870 3126 c0 -2 8 -10 18 -17 15 -13 16 -12 3 4 -13 16 -21 21 -21
13z"/>
<path d="M804 3088 c-16 -18 -22 -27 -13 -20 9 6 20 8 24 4 5 -4 6 -2 3 3 -7
13 17 36 28 27 4 -4 4 -1 0 6 -9 16 -8 17 -42 -20z"/>
<path d="M3428 3093 c7 -3 16 -2 19 1 4 3 -2 6 -13 5 -11 0 -14 -3 -6 -6z"/>
<path d="M3470 2989 c0 -5 5 -7 10 -4 6 3 10 8 10 11 0 2 -4 4 -10 4 -5 0 -10
-5 -10 -11z"/>
<path d="M3540 2950 c0 -5 5 -10 11 -10 5 0 7 5 4 10 -3 6 -8 10 -11 10 -2 0
-4 -4 -4 -10z"/>
<path d="M3293 2920 c-1 -11 2 -20 7 -20 4 0 7 7 6 15 -3 23 -12 26 -13 5z"/>
<path d="M682 2919 c-19 -7 -23 -29 -6 -29 3 0 2 5 -2 12 -5 7 -2 9 9 5 9 -3
18 0 21 9 3 8 4 14 3 13 -1 0 -12 -4 -25 -10z"/>
<path d="M3549 2913 c-13 -16 -12 -17 4 -4 16 13 21 21 13 21 -2 0 -10 -8 -17
-17z"/>
<path d="M276 2903 c-6 -14 -5 -15 5 -6 7 7 10 15 7 18 -3 3 -9 -2 -12 -12z"/>
<path d="M640 2830 c-8 -5 -12 -12 -9 -15 4 -3 12 1 19 10 14 17 11 19 -10 5z"/>
<path d="M3170 2777 c-11 -19 -11 -20 1 -11 8 6 21 13 28 16 13 4 13 5 0 10
-9 4 -21 -2 -29 -15z"/>
<path d="M3175 2750 c-3 -5 -1 -10 4 -10 6 0 11 5 11 10 0 6 -2 10 -4 10 -3 0
-8 -4 -11 -10z"/>
<path d="M3670 2676 c0 -2 7 -7 16 -10 8 -3 12 -2 9 4 -6 10 -25 14 -25 6z"/>
<path d="M553 2655 c0 -8 4 -12 9 -9 5 3 6 10 3 15 -9 13 -12 11 -12 -6z"/>
<path d="M3713 2615 c0 -8 4 -12 9 -9 5 3 6 10 3 15 -9 13 -12 11 -12 -6z"/>
<path d="M3016 2572 c-2 -4 0 -14 6 -22 8 -12 9 -11 4 4 -5 14 -2 17 9 12 9
-3 13 -2 10 4 -7 12 -22 13 -29 2z"/>
<path d="M3741 2514 c0 -11 3 -14 6 -6 3 7 2 16 -1 19 -3 4 -6 -2 -5 -13z"/>
<path d="M86 2392 c-3 -5 1 -9 9 -9 8 0 12 4 9 9 -3 4 -7 8 -9 8 -2 0 -6 -4
-9 -8z"/>
<path d="M2875 2381 c-3 -5 0 -13 6 -17 7 -4 9 -3 5 4 -3 5 0 13 6 15 9 4 10
6 1 6 -6 1 -14 -3 -18 -8z"/>
<path d="M3770 2356 c0 -2 7 -7 16 -10 8 -3 12 -2 9 4 -6 10 -25 14 -25 6z"/>
<path d="M434 2319 c-3 -6 -2 -15 3 -20 5 -5 9 -1 9 11 0 23 -2 24 -12 9z"/>
<path d="M435 2230 c-3 -5 -1 -10 4 -10 6 0 11 5 11 10 0 6 -2 10 -4 10 -3 0
-8 -4 -11 -10z"/>
<path d="M2745 2201 c-3 -5 -1 -12 5 -16 6 -4 7 -11 4 -17 -4 -7 -2 -8 5 -4 8
6 9 12 2 20 -6 7 -8 16 -4 19 3 4 4 7 0 7 -3 0 -8 -4 -12 -9z"/>
<path d="M413 2031 c0 -11 5 -18 9 -15 4 3 5 11 1 19 -7 21 -12 19 -10 -4z"/>
<path d="M2615 2031 c-6 -11 13 -26 22 -17 4 3 1 6 -6 6 -7 0 -9 5 -6 10 3 6
4 10 1 10 -3 0 -7 -4 -11 -9z"/>
<path d="M4153 1855 c0 -8 4 -15 9 -15 4 0 8 4 8 9 0 6 -4 12 -8 15 -5 3 -9
-1 -9 -9z"/>
<path d="M2467 1824 c-3 -3 -3 -13 0 -22 5 -11 3 -13 -7 -7 -8 5 -11 4 -6 -3
4 -6 13 -9 22 -5 10 4 12 9 4 18 -5 6 -7 15 -3 18 3 4 4 7 1 7 -2 0 -7 -3 -11
-6z"/>
<path d="M2435 1770 c-3 -5 -1 -10 4 -10 6 0 11 5 11 10 0 6 -2 10 -4 10 -3 0
-8 -4 -11 -10z"/>
<path d="M2385 1701 c-6 -11 13 -26 22 -17 4 3 1 6 -6 6 -7 0 -9 5 -6 10 3 6
4 10 1 10 -3 0 -7 -4 -11 -9z"/>
<path d="M84 1669 c-4 -7 -3 -9 4 -5 5 3 13 0 15 -6 4 -9 6 -10 6 -1 1 17 -16
25 -25 12z"/>
<path d="M2335 1631 c-3 -5 -2 -12 3 -15 5 -3 9 1 9 9 0 17 -3 19 -12 6z"/>
<path d="M2290 1548 c0 -6 3 -8 7 -5 3 4 13 1 22 -6 14 -11 14 -10 2 6 -15 20
-31 22 -31 5z"/>
<path d="M993 1498 c1 -15 6 -23 11 -18 4 4 4 16 -2 26 -9 16 -10 14 -9 -8z"/>
<path d="M2233 1460 c-1 -11 1 -22 5 -24 4 -2 8 7 8 20 1 13 -1 24 -5 24 -4 0
-7 -9 -8 -20z"/>
<path d="M1050 1310 c0 -5 5 -10 11 -10 5 0 7 5 4 10 -3 6 -8 10 -11 10 -2 0
-4 -4 -4 -10z"/>
<path d="M200 1285 c-7 -9 -11 -17 -9 -20 3 -2 10 5 17 15 14 24 10 26 -8 5z"/>
<path d="M2107 1278 c-12 -10 -14 -17 -6 -28 9 -13 10 -13 6 0 -2 8 3 20 12
27 9 7 13 13 10 13 -3 0 -13 -6 -22 -12z"/>
<path d="M1081 1240 c7 -14 12 -28 11 -32 -1 -5 3 -8 8 -8 15 0 12 12 -11 40
l-20 25 12 -25z"/>
<path d="M3996 1252 c-2 -4 4 -8 14 -8 10 0 16 4 14 8 -3 4 -9 8 -14 8 -5 0
-11 -4 -14 -8z"/>
<path d="M247 1197 c-3 -8 1 -14 8 -14 7 0 11 6 8 14 -3 7 -6 13 -8 13 -2 0
-5 -6 -8 -13z"/>
<path d="M2051 1184 c0 -11 3 -14 6 -6 3 7 2 16 -1 19 -3 4 -6 -2 -5 -13z"/>
<path d="M1106 1173 c-6 -14 -5 -15 5 -6 7 7 10 15 7 18 -3 3 -9 -2 -12 -12z"/>
<path d="M3935 1131 c-3 -5 -2 -12 3 -15 5 -3 9 1 9 9 0 17 -3 19 -12 6z"/>
<path d="M276 1108 c3 -5 10 -6 15 -3 13 9 11 12 -6 12 -8 0 -12 -4 -9 -9z"/>
<path d="M1124 1109 c-4 -7 -3 -9 4 -5 5 3 13 0 15 -6 4 -9 6 -10 6 -1 1 17
-16 25 -25 12z"/>
<path d="M1988 1093 c7 -3 16 -2 19 1 4 3 -2 6 -13 5 -11 0 -14 -3 -6 -6z"/>
<path d="M1157 1063 c-3 -5 4 -15 16 -23 21 -12 21 -12 7 6 -8 10 -15 20 -16
22 -1 2 -4 -1 -7 -5z"/>
<path d="M1955 1030 c3 -5 8 -10 11 -10 2 0 4 5 4 10 0 6 -5 10 -11 10 -5 0
-7 -4 -4 -10z"/>
<path d="M1173 1005 c0 -8 4 -12 9 -9 5 3 6 10 3 15 -9 13 -12 11 -12 -6z"/>
<path d="M3868 993 c7 -3 16 -2 19 1 4 3 -2 6 -13 5 -11 0 -14 -3 -6 -6z"/>
<path d="M354 972 c4 -3 14 -7 22 -8 9 -1 13 0 10 4 -4 3 -14 7 -22 8 -9 1
-13 0 -10 -4z"/>
<path d="M3855 970 c3 -5 8 -10 11 -10 2 0 4 5 4 10 0 6 -5 10 -11 10 -5 0 -7
-4 -4 -10z"/>
<path d="M1886 961 c-3 -5 2 -15 12 -22 15 -13 16 -12 4 3 -10 13 -10 17 0 21
9 4 9 6 1 6 -6 1 -14 -3 -17 -8z"/>
<path d="M3835 950 c-3 -5 -1 -10 4 -10 6 0 11 5 11 10 0 6 -2 10 -4 10 -3 0
-8 -4 -11 -10z"/>
<path d="M1229 933 c-13 -16 -12 -17 3 -5 13 10 17 10 21 0 2 -7 7 -10 11 -7
4 3 0 11 -7 18 -11 9 -17 7 -28 -6z"/>
<path d="M3815 920 c3 -5 8 -10 11 -10 2 0 4 5 4 10 0 6 -5 10 -11 10 -5 0 -7
-4 -4 -10z"/>
<path d="M1347 865 c3 -8 9 -12 14 -9 12 7 11 11 -5 17 -10 4 -13 1 -9 -8z"/>
<path d="M1720 871 c0 -6 4 -13 10 -16 6 -3 7 1 4 9 -7 18 -14 21 -14 7z"/>
<path d="M1430 855 c-11 -13 -10 -14 4 -9 9 3 16 10 16 15 0 13 -6 11 -20 -6z"/>
<path d="M1460 866 c0 -2 8 -10 18 -17 15 -13 16 -12 3 4 -13 16 -21 21 -21
13z"/>
<path d="M1616 863 c-3 -4 -6 -11 -6 -17 0 -6 5 -4 10 4 6 10 10 11 10 3 0 -7
5 -13 10 -13 6 0 10 4 10 9 0 11 -26 22 -34 14z"/>
<path d="M1695 860 c-3 -5 -1 -10 4 -10 6 0 11 5 11 10 0 6 -2 10 -4 10 -3 0
-8 -4 -11 -10z"/>
<path d="M1300 850 c8 -5 20 -10 25 -10 6 0 3 5 -5 10 -8 5 -19 10 -25 10 -5
0 -3 -5 5 -10z"/>
<path d="M1536 848 c3 -5 10 -6 15 -3 13 9 11 12 -6 12 -8 0 -12 -4 -9 -9z"/>
<path d="M1577 849 c7 -7 15 -10 18 -7 3 3 -2 9 -12 12 -14 6 -15 5 -6 -5z"/>
<path d="M1515 830 c3 -5 8 -10 11 -10 2 0 4 5 4 10 0 6 -5 10 -11 10 -5 0 -7
-4 -4 -10z"/>
<path d="M473 815 c0 -8 4 -15 9 -15 4 0 8 4 8 9 0 6 -4 12 -8 15 -5 3 -9 -1
-9 -9z"/>
<path d="M495 790 c-3 -5 -1 -10 4 -10 6 0 11 5 11 10 0 6 -2 10 -4 10 -3 0
-8 -4 -11 -10z"/>
<path d="M3740 789 c0 -5 5 -7 10 -4 6 3 10 8 10 11 0 2 -4 4 -10 4 -5 0 -10
-5 -10 -11z"/>
<path d="M3710 749 c0 -5 5 -7 10 -4 6 3 10 8 10 11 0 2 -4 4 -10 4 -5 0 -10
-5 -10 -11z"/>
<path d="M516 737 c3 -10 9 -15 12 -12 3 3 0 11 -7 18 -10 9 -11 8 -5 -6z"/>
<path d="M546 737 c3 -10 9 -15 12 -12 3 3 0 11 -7 18 -10 9 -11 8 -5 -6z"/>
<path d="M3670 721 c0 -5 5 -13 10 -16 6 -3 10 -2 10 4 0 5 -4 13 -10 16 -5 3
-10 2 -10 -4z"/>
<path d="M3639 703 c-13 -16 -12 -17 4 -4 16 13 21 21 13 21 -2 0 -10 -8 -17
-17z"/>
<path d="M3654 689 c-3 -6 -2 -15 3 -20 5 -5 9 -1 9 11 0 23 -2 24 -12 9z"/>
<path d="M3570 625 c-11 -13 -10 -14 4 -9 9 3 16 10 16 15 0 13 -6 11 -20 -6z"/>
<path d="M714 559 c-4 -7 -3 -9 4 -5 5 3 12 0 15 -6 2 -7 7 -10 11 -7 4 3 0
12 -8 18 -11 9 -16 9 -22 0z"/>
<path d="M700 536 c0 -2 8 -10 18 -17 15 -13 16 -12 3 4 -13 16 -21 21 -21 13z"/>
<path d="M3465 519 c-4 -6 -5 -12 -2 -15 2 -3 7 2 10 11 7 17 1 20 -8 4z"/>
<path d="M756 497 c3 -10 9 -15 12 -12 3 3 0 11 -7 18 -10 9 -11 8 -5 -6z"/>
<path d="M3435 490 c3 -5 8 -10 11 -10 2 0 4 5 4 10 0 6 -5 10 -11 10 -5 0 -7
-4 -4 -10z"/>
<path d="M826 465 c4 -8 11 -15 16 -15 6 0 5 6 -2 15 -7 8 -14 15 -16 15 -2 0
-1 -7 2 -15z"/>
<path d="M826 431 c9 -9 34 -9 34 -1 0 5 -9 8 -20 7 -10 -1 -17 -3 -14 -6z"/>
<path d="M898 393 c21 -22 29 -25 35 -15 5 8 6 16 3 19 -3 4 -6 1 -6 -6 0 -7
-9 -3 -22 9 -33 30 -41 24 -10 -7z"/>
<path d="M3290 390 c-6 -11 -15 -18 -19 -15 -5 3 -11 -1 -14 -8 -3 -7 3 -13
13 -13 10 0 18 4 17 7 -1 4 7 14 17 22 13 9 15 16 8 21 -6 3 -16 -3 -22 -14z"/>
<path d="M3336 388 c3 -5 10 -6 15 -3 13 9 11 12 -6 12 -8 0 -12 -4 -9 -9z"/>
<path d="M3197 333 c-3 -5 3 -14 13 -21 14 -9 21 -9 26 0 4 6 3 8 -4 4 -6 -3
-15 1 -20 10 -5 9 -12 12 -15 7z"/>
<path d="M1060 295 c-8 -10 -9 -15 -1 -15 6 0 11 5 11 12 0 6 11 2 23 -10 18
-17 24 -19 24 -7 0 8 -3 13 -5 10 -3 -3 -13 2 -22 10 -15 14 -18 14 -30 0z"/>
<path d="M3147 303 c-11 -11 -8 -21 9 -27 13 -5 14 -4 6 7 -7 8 -9 17 -5 20 3
4 4 7 1 7 -2 0 -8 -3 -11 -7z"/>
<path d="M3115 270 c3 -5 8 -10 11 -10 2 0 4 5 4 10 0 6 -5 10 -11 10 -5 0 -7
-4 -4 -10z"/>
<path d="M1155 250 c3 -5 8 -10 11 -10 2 0 4 5 4 10 0 6 -5 10 -11 10 -5 0 -7
-4 -4 -10z"/>
<path d="M3025 240 c-3 -5 -3 -10 2 -10 4 0 2 -4 -6 -9 -9 -6 -5 -8 14 -8 23
0 25 1 11 9 -9 5 -14 13 -11 19 4 5 4 9 1 9 -3 0 -8 -4 -11 -10z"/>
<path d="M3076 223 c-6 -14 -5 -15 5 -6 7 7 10 15 7 18 -3 3 -9 -2 -12 -12z"/>
<path d="M1200 220 c-9 -6 -10 -10 -3 -10 6 0 15 5 18 10 8 12 4 12 -15 0z"/>
<path d="M1251 190 c12 -33 24 -42 14 -10 -5 16 -3 19 12 13 23 -8 15 1 -14
16 -21 11 -22 10 -12 -19z"/>
<path d="M1214 199 c-3 -6 -2 -15 3 -20 5 -5 9 -1 9 11 0 23 -2 24 -12 9z"/>
<path d="M1300 180 c-8 -5 -12 -12 -9 -15 4 -3 12 1 19 10 14 17 11 19 -10 5z"/>
<path d="M1383 139 c9 -6 15 -14 12 -19 -3 -5 -1 -11 4 -14 5 -4 8 0 7 6 -3
21 -16 38 -29 38 -7 0 -4 -5 6 -11z"/>
<path d="M2805 140 c-4 -6 -10 -8 -14 -6 -3 3 -7 -4 -7 -15 0 -20 1 -19 16 0
10 14 23 19 40 16 22 -5 22 -4 5 4 -27 13 -33 13 -40 1z"/>
<path d="M1440 120 c-6 -11 -8 -20 -6 -20 3 0 10 9 16 20 6 11 8 20 6 20 -3 0
-10 -9 -16 -20z"/>
<path d="M2755 120 c3 -5 8 -10 11 -10 2 0 4 5 4 10 0 6 -5 10 -11 10 -5 0 -7
-4 -4 -10z"/>
<path d="M2815 110 c3 -5 8 -10 11 -10 2 0 4 5 4 10 0 6 -5 10 -11 10 -5 0 -7
-4 -4 -10z"/>
<path d="M1527 93 c3 -7 9 -10 14 -7 14 8 11 21 -5 21 -8 0 -12 -6 -9 -14z"/>
<path d="M2685 99 c-4 -5 -4 -13 -1 -16 3 -4 6 0 6 8 0 11 2 11 10 -1 6 -9 10
-10 10 -3 0 17 -17 25 -25 12z"/>
<path d="M1495 90 c-3 -5 -1 -10 4 -10 6 0 11 5 11 10 0 6 -2 10 -4 10 -3 0
-8 -4 -11 -10z"/>
<path d="M2659 98 c-5 -18 -6 -38 -1 -34 7 8 12 36 6 36 -2 0 -4 -1 -5 -2z"/>
<path d="M2516 62 c-3 -6 -17 -9 -31 -8 -13 2 -22 -1 -19 -6 3 -5 11 -7 17 -5
7 2 19 -2 29 -10 11 -10 18 -11 23 -3 3 6 3 10 -2 9 -20 -3 -27 2 -13 11 8 5
12 12 8 15 -3 4 -9 2 -12 -3z"/>
<path d="M1710 50 c0 -5 5 -10 10 -10 6 0 10 5 10 10 0 6 -4 10 -10 10 -5 0
-10 -4 -10 -10z"/>
<path d="M1759 48 c-8 -7 -12 -12 -10 -11 2 2 10 -2 18 -9 11 -9 12 -7 7 7 -6
14 -4 16 6 10 9 -5 11 -4 6 3 -9 15 -9 15 -27 0z"/>
<path d="M1801 34 c0 -11 3 -14 6 -6 3 7 2 16 -1 19 -3 4 -6 -2 -5 -13z"/>
<path d="M1823 34 c0 -9 4 -11 12 -4 7 5 14 9 16 7 2 -1 3 0 1 2 -7 11 -29 7
-29 -5z"/>
<path d="M2351 43 c-1 -17 16 -25 25 -12 4 7 3 9 -4 5 -5 -3 -13 0 -15 6 -4 9
-6 10 -6 1z"/>
<path d="M1660 36 c0 -2 8 -10 18 -17 15 -13 16 -12 3 4 -13 16 -21 21 -21 13z"/>
<path d="M1870 29 c0 -5 5 -7 10 -4 6 3 10 8 10 11 0 2 -4 4 -10 4 -5 0 -10
-5 -10 -11z"/>
<path d="M1906 28 c7 -10 24 -10 24 0 0 5 -7 9 -15 9 -8 0 -12 -4 -9 -9z"/>
<path d="M2415 30 c-3 -5 -1 -10 4 -10 6 0 11 5 11 10 0 6 -2 10 -4 10 -3 0
-8 -4 -11 -10z"/>
<path d="M2445 30 c3 -5 8 -10 11 -10 2 0 4 5 4 10 0 6 -5 10 -11 10 -5 0 -7
-4 -4 -10z"/>
<path d="M2016 22 c-3 -5 1 -9 9 -9 8 0 12 4 9 9 -7 10 -11 10 -18 0z"/>
<path d="M2146 18 c3 -4 9 -8 15 -8 5 0 9 4 9 8 0 5 -7 9 -15 9 -8 0 -12 -4
-9 -9z"/>
</g>
</svg>
