<?xml version="1.0" encoding="UTF-8"?>
<svg width="458px" height="512px" viewBox="0 0 458 512" version="1.1" xmlns="http://www.w3.org/2000/svg" xmlns:xlink="http://www.w3.org/1999/xlink">
    <!-- Generator: Sketch 47.1 (45422) - http://www.bohemiancoding.com/sketch -->
    <title>art_bg</title>
    <desc>Created with Sketch.</desc>
    <defs></defs>
    <g id="Page-1" stroke="none" stroke-width="1" fill="none" fill-rule="evenodd">
        <g id="art_bg" fill-rule="nonzero">
            <path d="M260.376,105.859 C250.055,104.718 239.499,104.139 229.002,104.139 C168.278,104.139 111.121,123.095 68.061,157.516 C24.522,192.32 0.544,238.738 0.544,288.222 C0.544,317.737 9.405,347.077 26.168,373.07 C42.263,398.027 65.68,420.035 93.885,436.716 C95.049,437.404 96.326,437.732 97.587,437.732 C100.077,437.732 102.505,436.453 103.865,434.154 C105.913,430.69 104.766,426.222 101.302,424.173 C46.529,391.782 15.116,342.23 15.116,288.223 C15.116,194.755 111.064,118.712 229.001,118.712 C238.965,118.712 248.982,119.261 258.774,120.343 C262.775,120.78 266.374,117.901 266.817,113.902 C267.259,109.902 264.375,106.301 260.376,105.859 Z" id="Shape" fill="#8DC449"></path>
            <path d="M390.473,157.942 C387.337,155.418 382.751,155.916 380.228,159.051 C377.705,162.186 378.202,166.773 381.337,169.295 C421.027,201.23 442.885,243.466 442.885,288.222 L442.885,288.449 C442.879,292.179 441.306,295.589 438.457,298.049 C435.56,300.551 431.719,301.67 427.917,301.116 C393.654,296.134 361.11,294.003 336.275,295.115 C304.095,296.557 287.65,303.024 284.52,315.467 C282.319,324.218 287.457,333.554 300.229,344.007 C309.991,351.997 324.14,360.649 342.283,369.723 C354.354,375.76 361.55,387.445 361.534,400.982 C361.518,414.414 354.359,425.987 342.384,431.941 C308.442,448.813 269.235,457.732 229,457.732 C216.341,457.732 203.657,456.848 191.301,455.104 C187.311,454.537 183.63,457.316 183.068,461.3 C182.505,465.285 185.28,468.971 189.264,469.533 C202.293,471.372 215.662,472.305 229,472.305 C271.474,472.305 312.925,462.86 348.871,444.99 C365.648,436.65 376.085,419.794 376.107,401 C376.13,382.104 365.667,365.125 348.802,356.69 C305.57,335.069 297.923,321.923 298.653,319.023 C299.193,316.876 307.122,311.009 336.928,309.674 C360.867,308.601 392.438,310.683 425.82,315.538 C433.807,316.698 441.884,314.345 447.982,309.079 C453.99,303.89 457.444,296.38 457.458,288.462 L457.458,288.222 C457.459,238.966 433.67,192.698 390.473,157.942 Z" id="Shape" fill="#8CD5F4"></path>
            <path d="M400.82,10.439 C400.795,10.272 400.771,10.112 400.747,9.952 C400.72,9.771 400.694,9.598 400.667,9.424 C400.64,9.247 400.611,9.052 400.586,8.885 C400.38,7.541 399.913,6.286 399.246,5.154 C398.329,3.596 397.022,2.281 395.395,1.361 C392.586,-0.227 389.26,-0.435 386.272,0.79 C385.928,0.931 385.562,1.082 385.187,1.237 C385.173,1.243 385.158,1.249 385.144,1.255 C375.326,5.322 355.25,14.147 335.395,25.901 C335.296,25.959 335.198,26.017 335.099,26.076 C334.505,26.429 333.911,26.784 333.318,27.142 C325.583,31.791 317.942,36.864 311.067,42.24 C310.898,42.372 310.744,42.519 310.589,42.664 C301.655,49.705 293.934,57.29 288.782,65.184 C278.328,81.203 277.744,102.871 278.97,117.734 C274.033,118.051 269.344,120.763 266.732,125.38 L259.077,138.917 C255.433,145.362 257.049,153.364 262.526,157.962 C250.4,173.2 225.518,205.972 200.832,247.579 C198.779,251.04 199.92,255.51 203.38,257.564 C206.843,259.618 211.311,258.476 213.365,255.016 C238.539,212.587 263.885,179.557 275.205,165.438 L316.735,188.923 C307.338,214.364 276.56,291.903 228.015,358.368 C197.442,400.227 155.723,454.376 126.108,492.429 C122.684,496.829 118.429,498.515 115.268,496.729 C112.107,494.941 111.36,490.425 113.366,485.224 C130.714,440.23 155.615,376.568 175.727,328.799 C180.443,317.597 185.823,306.009 191.717,294.359 C193.533,290.768 192.095,286.385 188.505,284.568 C184.915,282.751 180.531,284.19 178.714,287.78 C172.667,299.732 167.144,311.63 162.297,323.144 C142.114,371.082 117.155,434.893 99.77,479.981 C94.364,494.003 100.057,504.867 108.097,509.414 C110.988,511.049 114.421,512.003 118.064,512.003 C124.552,512.003 131.7,508.976 137.611,501.38 C167.288,463.246 209.104,408.971 239.786,366.964 C288.187,300.692 319.264,223.8 329.672,195.944 C331.254,196.491 332.904,196.772 334.569,196.772 C335.929,196.772 337.297,196.587 338.642,196.214 C342.54,195.132 345.784,192.596 347.775,189.075 L355.43,175.538 C357.422,172.016 357.923,167.93 356.841,164.032 C356.556,163.006 356.165,162.029 355.687,161.104 C369.054,154.494 387.313,142.828 395.65,125.617 C398.852,119.008 401.087,111.16 402.596,102.68 C402.633,102.528 402.682,102.381 402.71,102.225 C404.326,92.993 405.063,82.954 405.245,72.949 C405.248,72.774 405.252,72.598 405.255,72.423 C405.264,71.893 405.272,71.364 405.278,70.835 C405.567,46.062 402.529,21.912 400.82,10.439 Z M342.745,168.365 L335.09,181.902 C335.061,181.953 334.973,182.109 334.744,182.172 C334.516,182.235 334.361,182.148 334.31,182.118 L271.98,146.871 C271.704,146.715 271.608,146.364 271.763,146.09 L279.418,132.554 C279.523,132.368 279.718,132.263 279.918,132.263 C280.014,132.263 280.111,132.287 280.199,132.337 L342.529,167.584 C342.58,167.613 342.736,167.701 342.799,167.93 C342.863,168.159 342.774,168.314 342.745,168.365 Z M382.535,119.264 C374.547,135.753 352.943,146.643 342.803,150.997 L294.269,123.551 C292.776,112.619 290.974,88.491 300.987,73.149 C304.02,68.501 308.329,63.801 313.555,59.144 C313.661,59.781 313.757,60.414 313.844,60.999 C314.807,67.409 316.42,78.138 328.405,81.793 C337.472,84.558 344.024,80.376 347.937,77.875 C348.528,77.497 349.255,77.033 349.836,76.704 C350.272,77.193 350.933,78.055 351.807,79.528 C354.699,84.407 356.115,88.923 357.364,92.908 C359.884,100.946 362.999,110.88 378.674,110.88 C379.237,110.88 379.818,110.867 380.414,110.841 C382.197,110.763 384.03,110.596 385.9,110.356 C384.941,113.605 383.827,116.597 382.535,119.264 Z M390.743,67.909 C390.743,68.609 390.74,69.31 390.734,70.011 C390.65,78.839 390.13,87.318 389.066,95.052 C385.798,95.742 382.686,96.155 379.774,96.284 C378.047,96.359 375.005,96.342 374.062,95.371 C373.097,94.377 372.21,91.546 371.269,88.549 C369.856,84.043 368.098,78.435 364.344,72.1 C362.182,68.452 358.66,63.448 353.06,62.115 C352.078,61.882 351.133,61.779 350.225,61.779 C346.067,61.779 342.686,63.939 340.092,65.596 C336.612,67.82 335.071,68.591 332.656,67.855 C329.972,67.037 329.273,65.603 328.255,58.833 C327.823,55.962 327.309,52.543 325.928,49.352 C329.204,47.012 332.656,44.7 336.247,42.432 C336.889,42.028 337.533,41.627 338.179,41.228 C338.244,41.188 338.308,41.148 338.373,41.108 C356.769,29.775 376.382,20.832 386.942,16.312 C388.455,27.258 390.718,47.034 390.744,67.423 C390.744,67.585 390.744,67.747 390.743,67.909 Z" id="Shape" fill="#38AADB"></path>
            <path d="M170.401,140.221 C151.707,140.221 136.499,155.429 136.499,174.123 C136.499,192.817 151.707,208.025 170.401,208.025 C189.095,208.025 204.303,192.817 204.303,174.123 C204.303,155.429 189.095,140.221 170.401,140.221 Z M170.401,193.453 C159.742,193.453 151.071,184.782 151.071,174.123 C151.071,163.464 159.742,154.793 170.401,154.793 C181.06,154.793 189.731,163.464 189.731,174.123 C189.731,184.782 181.06,193.453 170.401,193.453 Z" id="Shape" fill="#8DC449"></path>
            <path d="M99.738,198.647 C81.044,198.647 65.836,213.856 65.836,232.55 C65.836,251.244 81.044,266.452 99.738,266.452 C118.432,266.452 133.64,251.244 133.64,232.55 C133.64,213.856 118.432,198.647 99.738,198.647 Z M99.738,251.88 C89.079,251.88 80.408,243.209 80.408,232.55 C80.408,221.891 89.079,213.22 99.738,213.22 C110.397,213.22 119.068,221.891 119.068,232.55 C119.067,243.209 110.396,251.88 99.738,251.88 Z" id="Shape" fill="#8DC449"></path>
            <path d="M86.214,294.244 C67.52,294.244 52.311,309.452 52.311,328.146 C52.311,346.84 67.52,362.048 86.214,362.048 C104.908,362.048 120.116,346.84 120.116,328.146 C120.116,309.452 104.908,294.244 86.214,294.244 Z M86.213,347.476 C75.554,347.476 66.883,338.805 66.883,328.146 C66.883,317.487 75.554,308.816 86.213,308.816 C96.872,308.816 105.543,317.488 105.543,328.146 C105.543,338.805 96.872,347.476 86.213,347.476 Z" id="Shape" fill="#8CD5F4"></path>
        </g>
    </g>
</svg>