<?xml version="1.0" encoding="UTF-8"?>
<svg width="340px" height="470px" viewBox="0 0 340 470" version="1.1" xmlns="http://www.w3.org/2000/svg" xmlns:xlink="http://www.w3.org/1999/xlink">
    <!-- Generator: Sketch 47.1 (45422) - http://www.bohemiancoding.com/sketch -->
    <title>bio-tech_bg</title>
    <desc>Created with Sketch.</desc>
    <defs></defs>
    <g id="Page-1" stroke="none" stroke-width="1" fill="none" fill-rule="evenodd">
        <g id="bio-tech_bg" fill-rule="nonzero">
            <path d="M339.917,461.94 C339.808,405.953 323.185,357.43 289.107,313.609 C259.709,275.805 221.086,246.005 183.733,217.185 C112.421,162.163 45.062,110.191 45.062,7.5 C45.062,3.358 41.704,2.84217094e-14 37.562,2.84217094e-14 L7.562,2.84217094e-14 C3.42,2.84217094e-14 0.062,3.358 0.062,7.5 C0.062,63.721 16.682,112.424 50.871,156.39 C74.274,186.485 103.527,211.503 133.33,234.998 C105.453,256.959 74.902,282.707 50.871,313.61 C16.682,357.576 0.062,406.278 0.062,462.5 C0.062,466.642 3.42,470 7.562,470 L37.562,470 C41.704,470 45.062,466.642 45.062,462.5 C45.062,454.712 45.448,447.224 46.184,440 L99.519,440 C103.661,440 107.019,436.642 107.019,432.5 C107.019,428.358 103.661,425 99.519,425 L48.278,425 C51.17,408.91 55.951,394.193 62.33,380.485 L248.069,380.485 C252.211,380.485 255.569,377.127 255.569,372.985 C255.569,368.843 252.211,365.485 248.069,365.485 L70.153,365.485 C79.403,349.541 90.91,334.921 104.159,320.969 L195.711,320.969 C199.853,320.969 203.211,317.611 203.211,313.469 C203.211,309.327 199.853,305.969 195.711,305.969 L119.298,305.969 C134.647,291.574 151.75,277.661 169.994,263.449 C235.977,314.761 294.918,366.44 294.918,462.5 C294.918,466.642 298.276,470 302.418,470 L332.418,470 C336.58,470 339.938,466.642 339.938,462.5 C339.938,462.312 339.931,462.125 339.917,461.94 L339.917,461.94 Z M95.728,307.837 C95.402,308.123 95.099,308.434 94.827,308.772 C86.554,317.344 78.803,326.248 71.775,335.646 C63.736,346.398 56.888,357.477 51.197,368.934 C50.902,369.392 50.659,369.885 50.468,370.404 C41.192,389.464 35.121,409.578 32.169,430.996 C32.107,431.301 32.07,431.615 32.046,431.933 C31.042,439.458 30.414,447.141 30.174,455 L15.169,455 C16.586,405.392 32.177,362.085 62.712,322.818 C86.559,292.154 117.566,266.407 145.502,244.507 C149.088,247.287 152.673,250.057 156.246,252.814 C156.747,253.201 157.247,253.587 157.748,253.973 C135.621,271.249 114.341,288.697 95.728,307.837 L95.728,307.837 Z M309.803,455 C308.379,408.576 293.63,368.021 264.833,331.241 C237.958,296.914 202.718,269.724 165.406,240.936 C128.796,212.688 90.939,183.479 62.712,147.182 C32.177,107.915 16.586,64.608 15.169,15 L30.177,15 C31.601,61.424 46.35,101.979 75.147,138.759 C102.022,173.086 137.262,200.276 174.572,229.062 C211.182,257.309 249.039,286.518 277.267,322.818 C307.803,362.085 323.394,405.392 324.811,455 L309.803,455 Z" id="Shape" fill="#38AADB"></path>
            <path d="M91.911,89.515 C87.769,89.515 84.411,92.873 84.411,97.015 C84.411,101.157 87.769,104.515 91.911,104.515 L121.911,104.515 C126.053,104.515 129.411,101.157 129.411,97.015 C129.411,92.873 126.053,89.515 121.911,89.515 L91.911,89.515 Z" id="Shape" fill="#8DC449"></path>
            <path d="M69.9,45 L291.784,45 C288.966,61.035 284.287,75.742 277.915,89.515 L151.911,89.515 C147.769,89.515 144.411,92.873 144.411,97.015 C144.411,101.157 147.769,104.515 151.911,104.515 L270.118,104.515 C261.007,120.248 249.561,134.859 236.071,149.031 L144.27,149.031 C140.128,149.031 136.77,152.389 136.77,156.531 C136.77,160.673 140.128,164.031 144.27,164.031 L220.902,164.031 C211.245,173.065 200.775,182.018 189.571,191.075 C186.35,193.679 185.849,198.401 188.453,201.622 C191.056,204.843 195.78,205.344 199,202.74 C232.396,175.743 267.18,144.464 288.692,101.21 C289.074,100.645 289.376,100.023 289.594,99.363 C298.259,81.489 304.657,61.585 307.779,39.118 C307.863,38.736 307.913,38.343 307.936,37.942 C308.919,30.573 309.558,22.937 309.803,15.001 L324.811,15.001 C323.394,64.609 307.802,107.916 277.267,147.183 C261.646,167.271 241.492,187.225 213.84,209.979 C210.642,212.611 210.182,217.337 212.814,220.536 C214.297,222.338 216.445,223.271 218.61,223.27 C220.287,223.27 221.975,222.71 223.371,221.562 C251.901,198.085 272.789,177.377 289.108,156.391 C323.298,112.425 339.918,63.723 339.918,7.501 C339.918,3.359 336.56,0.001 332.418,0.001 L302.418,0.001 C298.276,0.001 294.918,3.359 294.918,7.501 C294.918,15.288 294.552,22.777 293.837,30.001 L69.9,30.001 C65.758,30.001 62.4,33.359 62.4,37.501 C62.4,41.643 65.758,45 69.9,45 L69.9,45 Z" id="Shape" fill="#8CD5F4"></path>
            <path d="M270.082,425 L129.519,425 C125.377,425 122.019,428.358 122.019,432.5 C122.019,436.642 125.377,440 129.519,440 L270.082,440 C274.224,440 277.582,436.642 277.582,432.5 C277.582,428.358 274.224,425 270.082,425 Z" id="Shape" fill="#8DC449"></path>
        </g>
    </g>
</svg>