<?xml version="1.0" encoding="UTF-8"?>
<svg width="470px" height="470px" viewBox="0 0 470 470" version="1.1" xmlns="http://www.w3.org/2000/svg" xmlns:xlink="http://www.w3.org/1999/xlink">
    <!-- Generator: Sketch 47.1 (45422) - http://www.bohemiancoding.com/sketch -->
    <title>bio_bg</title>
    <desc>Created with Sketch.</desc>
    <defs></defs>
    <g id="Page-1" stroke="none" stroke-width="1" fill="none" fill-rule="evenodd">
        <g id="bio_bg" fill-rule="nonzero">
            <path d="M401.17,68.83 C356.784,24.444 297.771,0 235,0 C177.985,0 122.992,20.685 80.152,58.243 C77.037,60.973 76.726,65.713 79.457,68.827 C82.188,71.941 86.926,72.254 90.041,69.522 C130.144,34.363 181.625,15 235,15 C356.309,15 455,113.691 455,235 C455,356.309 356.309,455 235,455 C113.691,455 15,356.309 15,235 C15,181.624 34.363,130.143 69.523,90.04 C72.253,86.926 71.942,82.186 68.828,79.456 C65.713,76.726 60.975,77.036 58.244,80.151 C20.685,122.991 0,177.984 0,235 C0,297.771 24.444,356.784 68.83,401.17 C113.216,445.556 172.229,470 235,470 C297.771,470 356.784,445.556 401.17,401.17 C445.556,356.784 470,297.771 470,235 C470,172.229 445.556,113.216 401.17,68.83 Z" id="Shape" fill="#38AADB"></path>
            <path d="M305.71,295.104 C302.782,292.176 298.033,292.175 295.104,295.105 C291.613,298.596 287.833,301.757 283.825,304.574 L276.272,291.491 C293.672,278.743 305,258.174 305,235 C305,196.402 273.598,165 235,165 C208.477,165 185.352,179.828 173.479,201.63 L159.505,195.892 C163.477,188.246 168.628,181.164 174.896,174.897 C177.825,171.967 177.825,167.219 174.896,164.29 C171.967,161.362 167.218,161.362 164.29,164.29 C145.402,183.177 135,208.289 135,235 C135,239.143 138.358,242.5 142.5,242.5 C146.642,242.5 150,239.143 150,235 C150,226.315 151.304,217.832 153.801,209.764 L167.783,215.505 C165.984,221.698 165,228.235 165,235 C165,273.598 196.402,305 235,305 C245.066,305 254.633,302.848 263.291,299.006 L270.841,312.084 C266.394,314.157 261.769,315.852 257.011,317.124 C253.009,318.194 250.632,322.305 251.701,326.307 C252.597,329.661 255.629,331.872 258.942,331.872 C259.583,331.872 260.235,331.789 260.883,331.616 C269.322,329.361 277.413,325.996 284.947,321.645 C284.966,321.634 284.986,321.628 285.004,321.617 C285.042,321.595 285.077,321.568 285.114,321.546 C292.6,317.203 299.534,311.887 305.71,305.71 C308.64,302.781 308.64,298.032 305.71,295.104 L305.71,295.104 Z M180,235 C180,204.673 204.673,180 235,180 C265.327,180 290,204.673 290,235 C290,265.327 265.327,290 235,290 C204.673,290 180,265.327 180,235 Z" id="Shape" fill="#8DC449"></path>
            <path d="M292.504,334.614 C275.108,344.68 255.224,350 235,350 C230.858,350 227.5,353.357 227.5,357.5 C227.5,361.643 230.858,365 235,365 C257.858,365 280.34,358.982 300.016,347.597 C303.602,345.523 304.827,340.935 302.751,337.35 C300.678,333.764 296.087,332.538 292.504,334.614 Z" id="Shape" fill="#38AADB"></path>
            <path d="M169.984,122.403 C129.9,145.596 105,188.74 105,235 C105,239.143 108.358,242.5 112.5,242.5 C116.642,242.5 120,239.143 120,235 C120,194.076 142.031,155.906 177.496,135.386 C181.081,133.312 182.306,128.724 180.232,125.139 C178.157,121.552 173.566,120.329 169.984,122.403 Z" id="Shape" fill="#8CD5F4"></path>
            <path d="M121.863,121.862 C101.971,141.755 87.638,166.554 80.414,193.583 C79.344,197.585 81.721,201.695 85.723,202.766 C86.372,202.939 87.023,203.022 87.664,203.022 C90.977,203.022 94.009,200.809 94.905,197.457 C101.449,172.973 114.439,150.501 132.469,132.471 C135.398,129.541 135.398,124.793 132.469,121.864 C129.541,118.935 124.792,118.935 121.863,121.862 Z" id="Shape" fill="#38AADB"></path>
            <path d="M379.966,369.329 C383.106,372.027 387.841,371.671 390.542,368.528 C422.436,331.411 440,283.989 440,235 C440,121.963 348.037,30 235,30 C121.962,30 30,121.963 30,235 C30,348.037 121.962,440 235,440 C283.989,440 331.411,422.436 368.528,390.542 C371.67,387.843 372.028,383.107 369.329,379.966 C366.63,376.825 361.894,376.468 358.753,379.165 C324.354,408.722 280.404,425 235,425 C130.234,425 45,339.767 45,235 C45,130.233 130.234,45 235,45 C339.767,45 425,130.233 425,235 C425,280.404 408.722,324.354 379.165,358.753 C376.466,361.895 376.824,366.63 379.966,369.329 Z" id="Shape" fill="#8CD5F4"></path>
            <circle id="Oval" fill="#8CD5F4" cx="204.5" cy="385.5" r="7.5"></circle>
            <circle id="Oval" fill="#8CD5F4" cx="187.5" cy="90" r="7.5"></circle>
            <path d="M235.008,133.887 C247.425,133.887 258.341,125.503 261.557,113.499 C265.482,98.852 256.758,83.743 242.112,79.819 C239.779,79.194 237.38,78.877 234.981,78.877 C222.565,78.877 211.648,87.261 208.431,99.265 C204.507,113.912 213.231,129.021 227.877,132.945 C230.21,133.569 232.61,133.887 235.008,133.887 Z M222.921,103.146 C224.383,97.688 229.343,93.876 234.982,93.876 C236.07,93.876 237.163,94.021 238.231,94.307 C244.888,96.091 248.853,102.958 247.07,109.617 C245.607,115.075 240.648,118.887 235.009,118.887 C233.921,118.887 232.828,118.742 231.76,118.456 C225.102,116.672 221.137,109.804 222.921,103.146 Z" id="Shape" fill="#8DC449"></path>
            <path d="M134.411,356.143 C134.634,356.357 134.868,356.564 135.123,356.753 C135.15,356.773 135.179,356.786 135.206,356.805 C137.113,358.369 139.044,359.905 141.026,361.381 C145.809,364.943 151.483,366.824 157.433,366.824 C166.09,366.824 174.342,362.682 179.507,355.746 C188.562,343.583 186.034,326.321 173.872,317.266 C165.833,311.281 158.721,304.168 152.734,296.128 C147.568,289.191 139.317,285.051 130.661,285.051 C124.71,285.051 119.036,286.934 114.254,290.495 C102.091,299.551 99.565,316.813 108.62,328.975 C116.115,339.041 124.779,348.139 134.411,356.143 L134.411,356.143 Z M123.212,302.525 C125.386,300.906 127.962,300.05 130.66,300.05 C134.659,300.05 138.319,301.886 140.702,305.086 L138.886,306.438 C135.564,308.912 134.876,313.611 137.349,316.933 C138.821,318.91 141.081,319.954 143.37,319.954 C144.927,319.954 146.498,319.471 147.843,318.47 L150.441,316.536 C154.907,321.166 159.735,325.443 164.912,329.298 C170.44,333.414 171.589,341.261 167.474,346.789 C165.091,349.989 161.431,351.825 157.432,351.825 C154.733,351.825 152.157,350.97 149.983,349.351 L151.596,347.184 C154.069,343.862 153.381,339.163 150.058,336.69 C146.735,334.214 142.037,334.904 139.563,338.227 L138.426,339.754 C131.912,333.747 125.958,327.149 120.648,320.018 C116.535,314.489 117.684,306.643 123.212,302.525 L123.212,302.525 Z" id="Shape" fill="#8CD5F4"></path>
            <path d="M343.434,311.822 C346.901,313.317 350.562,314.076 354.314,314.076 C365.307,314.076 375.223,307.554 379.576,297.461 C380.554,295.193 381.458,292.897 382.328,290.59 C382.342,290.559 382.361,290.532 382.375,290.501 C382.5,290.21 382.599,289.915 382.686,289.619 C387.025,277.873 389.979,265.661 391.438,253.192 C392.129,247.268 390.922,241.415 387.948,236.263 C383.62,228.766 375.908,223.691 367.317,222.686 C366.251,222.561 365.169,222.498 364.1,222.498 C350.162,222.498 338.429,232.948 336.81,246.806 C335.646,256.76 333.042,266.475 329.074,275.681 C326.165,282.426 326.057,289.901 328.769,296.727 C331.48,303.553 336.688,308.914 343.434,311.822 L343.434,311.822 Z M364.099,237.498 C364.587,237.498 365.084,237.526 365.575,237.584 C369.538,238.048 372.958,240.3 374.957,243.764 C376.307,246.1 376.853,248.759 376.539,251.451 C375.505,260.282 373.648,268.974 371.011,277.432 L369.263,276.678 C365.462,275.037 361.047,276.791 359.407,280.595 C357.766,284.398 359.52,288.811 363.324,290.451 L365.804,291.521 C363.824,296.111 359.315,299.076 354.315,299.076 C352.618,299.076 350.955,298.73 349.375,298.049 C346.31,296.727 343.942,294.29 342.709,291.188 C341.477,288.084 341.525,284.687 342.848,281.621 C345.404,275.693 347.447,269.576 348.999,263.334 L352.214,263.71 C352.51,263.744 352.804,263.762 353.095,263.762 C356.847,263.762 360.088,260.95 360.534,257.132 C361.015,253.018 358.07,249.292 353.956,248.812 L351.709,248.549 C352.443,242.248 357.771,237.498 364.099,237.498 L364.099,237.498 Z" id="Shape" fill="#38AADB"></path>
            <path d="M339.34,184.949 C345.291,184.949 350.965,183.066 355.747,179.505 C361.639,175.118 365.469,168.699 366.533,161.432 C367.597,154.165 365.767,146.916 361.381,141.025 C353.885,130.958 345.221,121.861 335.589,113.857 C335.366,113.643 335.132,113.437 334.878,113.247 C334.844,113.221 334.807,113.201 334.772,113.176 C332.872,111.619 330.949,110.089 328.975,108.619 C324.192,105.058 318.519,103.176 312.568,103.176 C303.911,103.176 295.66,107.318 290.495,114.254 C281.439,126.416 283.967,143.679 296.13,152.734 C304.169,158.719 311.28,165.832 317.268,173.872 C322.433,180.809 330.685,184.949 339.34,184.949 L339.34,184.949 Z M305.087,140.703 C299.559,136.587 298.409,128.74 302.525,123.212 C304.908,120.012 308.568,118.176 312.567,118.176 C315.266,118.176 317.841,119.031 320.015,120.651 C320.016,120.651 318.403,122.818 318.403,122.818 C315.929,126.14 316.618,130.839 319.94,133.312 C321.285,134.314 322.855,134.796 324.413,134.796 C326.702,134.796 328.963,133.752 330.434,131.775 L331.571,130.248 C338.085,136.255 344.039,142.853 349.349,149.984 C351.343,152.662 352.174,155.956 351.691,159.259 C351.208,162.562 349.466,165.48 346.787,167.475 C344.613,169.094 342.038,169.95 339.34,169.95 C335.342,169.95 331.681,168.114 329.298,164.914 L331.113,163.562 C334.435,161.088 335.123,156.389 332.649,153.067 C330.174,149.746 325.478,149.057 322.154,151.531 L319.557,153.465 C315.092,148.834 310.264,144.558 305.087,140.703 L305.087,140.703 Z" id="Shape" fill="#38AADB"></path>
        </g>
    </g>
</svg>