<?xml version="1.0" encoding="UTF-8"?>
<svg width="512px" height="502px" viewBox="0 0 512 502" version="1.1" xmlns="http://www.w3.org/2000/svg" xmlns:xlink="http://www.w3.org/1999/xlink">
    <!-- Generator: Sketch 47.1 (45422) - http://www.bohemiancoding.com/sketch -->
    <title>com_bg</title>
    <desc>Created with Sketch.</desc>
    <defs></defs>
    <g id="Page-1" stroke="none" stroke-width="1" fill="none" fill-rule="evenodd">
        <g id="com_bg" fill-rule="nonzero">
            <path d="M422.503,265.613 C418.388,265.613 415.052,268.949 415.052,273.064 C415.052,278.281 410.808,282.525 405.591,282.525 C400.375,282.525 396.13,278.281 396.13,273.064 C396.13,268.948 392.794,265.613 388.679,265.613 C384.564,265.613 381.228,268.949 381.228,273.064 C381.228,286.498 392.158,297.427 405.591,297.427 C419.024,297.427 429.954,286.497 429.954,273.064 C429.954,268.947 426.618,265.613 422.503,265.613 Z" id="Shape" fill="#8DC449"></path>
            <path d="M492.444,266.83 L471.472,260.112 C468.786,259.251 466.669,257.107 465.81,254.376 C461.39,240.323 454.72,227.13 445.985,215.162 C442.004,209.707 437.577,204.498 432.741,199.539 C435.835,185.966 437.517,170.605 437.299,157.334 C436.987,138.349 433.193,127.214 425.701,123.29 C421.666,121.174 409.386,114.746 342.919,145.172 C341.345,145.892 339.875,146.779 338.514,147.795 C334.033,146.591 329.453,145.477 324.845,144.477 C324.29,144.356 323.718,144.249 323.159,144.131 C328.545,132.365 331.69,119.586 332.281,106.394 C332.465,102.282 329.282,98.8 325.17,98.617 C321.069,98.413 317.576,101.615 317.393,105.727 C316.422,127.418 307.424,147.827 292.058,163.194 C282.877,172.375 272.127,179.044 260.67,183.244 C240.801,180.456 220.563,180.456 200.694,183.244 C189.236,179.044 178.487,172.375 169.306,163.194 C152.912,146.8 143.883,125.003 143.883,101.818 C143.883,78.632 152.912,56.836 169.306,40.442 C185.7,24.047 207.498,15.018 230.682,15.018 C253.866,15.018 275.664,24.047 292.058,40.442 C298.646,47.03 304.09,54.548 308.239,62.785 C310.09,66.461 314.571,67.941 318.246,66.089 C321.922,64.239 323.401,59.758 321.55,56.083 C316.687,46.424 310.31,37.617 302.597,29.903 C283.388,10.694 257.848,0.115 230.683,0.115 C203.518,0.115 177.978,10.694 158.769,29.903 C139.56,49.113 128.981,74.652 128.981,101.817 C128.981,128.982 139.56,154.522 158.769,173.731 C164.31,179.272 170.338,184.037 176.714,188.029 C176.716,188.029 176.718,188.028 176.72,188.028 C172.087,189.232 167.489,190.584 162.942,192.104 C159.039,193.409 156.933,197.63 158.238,201.534 C159.542,205.437 163.765,207.543 167.667,206.239 C208.303,192.654 253.063,192.654 293.699,206.239 C294.483,206.501 295.279,206.625 296.062,206.625 C299.179,206.625 302.085,204.653 303.128,201.534 C304.433,197.631 302.327,193.409 298.424,192.104 C293.877,190.584 289.279,189.231 284.646,188.028 C284.648,188.028 284.65,188.029 284.652,188.029 C291.029,184.037 297.056,179.272 302.597,173.731 C307.499,168.829 311.826,163.476 315.583,157.787 C317.637,158.186 319.676,158.604 321.685,159.04 C324.361,159.621 327.025,160.245 329.665,160.9 C329.582,161.224 329.497,161.547 329.428,161.876 C325.794,179.121 326.03,194.373 330.129,207.206 C333.813,218.741 340.462,228.086 349.889,234.983 C361,243.111 374.414,246.622 386.565,246.622 C395.71,246.622 404.141,244.632 410.333,241.125 C417.337,237.158 423.205,228.799 427.85,216.249 C429.997,218.755 432.032,221.322 433.95,223.95 C441.727,234.604 447.664,246.346 451.596,258.848 C453.905,266.191 459.637,271.969 466.928,274.306 L487.9,281.024 C493.403,282.787 497.1,287.852 497.1,293.63 L497.1,328.405 C497.1,334.183 493.403,339.248 487.9,341.011 L454.111,351.834 C448.705,353.567 444.13,357.282 441.229,362.296 C427.954,385.238 407.083,404.223 379.192,418.724 C375.97,420.401 373.738,423.4 373.066,426.954 L362.244,484.257 C361.945,485.836 360.562,486.981 358.955,486.981 L323.768,486.981 C322.161,486.981 320.778,485.835 320.479,484.257 L314.485,452.588 C313.305,446.357 307.461,442.218 301.171,443.171 C286.014,445.463 270.396,446.624 254.753,446.624 C243.115,446.624 231.626,445.975 220.603,444.694 C214.508,443.993 208.83,448.148 207.691,454.166 L201.995,484.257 C201.696,485.836 200.313,486.981 198.706,486.981 L163.519,486.981 C161.912,486.981 160.529,485.835 160.226,484.233 L149.806,430.111 C149.135,426.624 146.945,423.659 143.794,421.976 C96.25,396.595 71.12,354.191 71.12,299.351 C71.12,271.643 77.182,247.142 89.137,226.526 C100.293,207.287 116.587,191.38 137.566,179.245 C141.128,177.184 142.345,172.626 140.285,169.063 C138.225,165.501 133.667,164.286 130.104,166.344 C89.425,189.876 64.89,226.18 58.135,272.29 L58.135,272.289 C57.418,272.224 56.7,272.162 55.985,272.088 C56.115,267.113 55.215,262.093 53.255,257.221 C48.932,246.475 40.052,238.719 30.631,237.462 C23.207,236.468 16.142,239.62 11.239,246.098 C4.13,255.492 5.289,262.926 7.512,267.508 C11.265,275.241 20.912,280.711 36.921,284.15 C36.481,284.809 35.997,285.471 35.467,286.136 C26.008,297.999 14.864,300.622 7.628,300.869 C3.392,301.012 0,304.413 0,308.652 L0,308.688 C0,312.869 3.299,316.279 7.476,316.47 C8.011,316.495 8.57,316.508 9.152,316.508 C18.308,316.508 33.003,313.131 47.121,295.428 C49.35,292.634 51.166,289.686 52.562,286.64 C53.968,286.799 55.319,286.935 56.613,287.055 C56.613,287.052 56.613,287.05 56.614,287.047 C56.36,291.085 56.219,295.182 56.219,299.351 C56.219,330.379 63.616,358.044 78.203,381.581 C91.653,403.281 110.91,421.049 135.458,434.411 L145.588,487.027 C147.217,495.635 154.758,501.883 163.519,501.883 L198.706,501.883 C207.467,501.883 215.008,495.635 216.637,487.027 L221.787,459.819 C232.483,460.952 243.557,461.526 254.752,461.526 C270.112,461.526 285.454,460.456 300.406,458.344 L305.835,487.029 C307.465,495.637 315.006,501.884 323.766,501.884 L358.953,501.884 C367.714,501.884 375.255,495.636 376.885,487.025 L387.422,431.234 C417.19,415.493 439.628,394.815 454.126,369.759 C455.171,367.953 456.78,366.628 458.656,366.027 L492.444,355.204 C504.141,351.455 512,340.686 512,328.403 L512,293.628 C512,281.346 504.141,270.577 492.444,266.83 Z M421.278,178.273 C418.41,202.799 410.717,223.779 402.987,228.157 C394.201,233.134 373.916,234.095 358.686,222.954 C343.438,211.8 338.363,191.742 344.008,164.948 C344.008,164.947 344.008,164.947 344.008,164.947 C344.575,162.256 346.487,159.928 349.122,158.722 C386.426,141.646 407.933,136.061 415.923,136.061 C417.129,136.061 418.027,136.188 418.625,136.422 C421.025,138.98 424.173,153.521 421.278,178.273 Z M20.921,261.001 C20.15,259.411 21.97,256.616 23.124,255.09 C24.953,252.674 26.638,252.18 27.911,252.18 C28.18,252.18 28.431,252.202 28.661,252.233 C32.087,252.69 36.887,256.46 39.43,262.781 C40.029,264.269 40.807,266.734 40.989,269.808 C30.674,267.671 22.66,264.59 20.921,261.001 Z" id="Shape" fill="#38AADB"></path>
            <path d="M237.918,93.277 L237.918,66.613 C247.113,67.27 250.529,71.473 253.681,71.473 C257.622,71.473 259.461,66.482 259.461,63.986 C259.461,57.549 246.85,54.791 237.918,54.528 L237.918,50.98 C237.918,49.404 235.947,47.959 233.977,47.959 C231.743,47.959 230.167,49.404 230.167,50.98 L230.167,54.789 C217.688,56.103 205.209,62.671 205.209,79.222 C205.209,96.036 218.345,100.765 230.167,104.968 L230.167,135.837 C216.768,134.786 213.222,125.591 208.887,125.591 C205.603,125.591 202.845,129.926 202.845,133.079 C202.845,139.515 213.879,148.316 230.167,148.579 L230.167,148.579 L230.167,152.651 C230.167,154.227 231.744,155.672 233.977,155.672 C235.948,155.672 237.918,154.227 237.918,152.651 L237.918,148.185 C252.105,146.214 261.825,137.282 261.825,121.125 C261.825,103.261 249.346,97.48 237.918,93.277 Z M230.955,90.782 C223.993,88.155 218.345,85.397 218.345,77.91 C218.345,71.079 223.599,67.795 230.955,66.876 L230.955,90.782 L230.955,90.782 Z M237.129,135.574 L237.129,107.858 C243.565,110.616 248.688,114.294 248.688,122.569 C248.688,130.058 244.222,134.261 237.129,135.574 Z" id="Shape" fill="#8CD5F4"></path>
        </g>
    </g>
</svg>