<?xml version="1.0" encoding="iso-8859-1"?>
<!-- Generator: Adobe Illustrator 19.0.0, SVG Export Plug-In . SVG Version: 6.00 Build 0)  -->
<svg version="1.1" id="Layer_1" xmlns="http://www.w3.org/2000/svg" xmlns:xlink="http://www.w3.org/1999/xlink" x="0px" y="0px"
	 viewBox="0 0 512 512" style="enable-background:new 0 0 512 512;" xml:space="preserve">
<path style="fill:#FF675C;" d="M8.696,418.85V93.593c0-15.519,12.581-28.1,28.1-28.1h438.845c15.519,0,28.1,12.581,28.1,28.1V418.85
	c0,15.519-12.581,28.1-28.1,28.1H36.797C21.278,446.95,8.696,434.37,8.696,418.85z"/>
<path style="fill:#dc5b51;" d="M29.042,418.85V93.593c0-15.519,12.581-28.1,28.1-28.1H36.797c-15.519,0-28.1,12.581-28.1,28.1
	V418.85c0,15.519,12.581,28.1,28.1,28.1h20.345C41.623,446.95,29.042,434.37,29.042,418.85z"/>
<rect x="42.605" y="99.397" style="fill:#CCCCCC;" width="427.227" height="313.644"/>
<rect x="42.605" y="99.397" style="fill:#B3B3B3;" width="22.591" height="313.644"/>
<path d="M475.424,56.794H36.577C16.41,56.794,0,73.203,0,93.372v239.792c0,4.682,3.794,8.477,8.477,8.477s8.477-3.796,8.477-8.477
	V93.372c0-10.82,8.803-19.623,19.623-19.623h438.846c10.819,0,19.622,8.803,19.622,19.623v325.257
	c0,10.82-8.803,19.623-19.622,19.623H36.577c-10.82,0-19.623-8.803-19.623-19.623v-57.207c0-4.682-3.794-8.477-8.477-8.477
	S0,356.739,0,361.421v57.207c0,20.169,16.41,36.577,36.577,36.577h438.846c20.169,0,36.576-16.408,36.576-36.577V93.372
	C512,73.203,495.593,56.794,475.424,56.794z"/>
<path d="M321.561,90.703H42.386c-4.683,0-8.477,3.796-8.477,8.477v313.64c0,4.682,3.794,8.477,8.477,8.477h427.228
	c4.683,0,8.477-3.796,8.477-8.477V99.18c0-4.682-3.794-8.477-8.477-8.477H350.948c-4.683,0-8.477,3.796-8.477,8.477
	c0,4.682,3.794,8.477,8.477,8.477h110.189v296.685H50.863V107.657h270.698c4.683,0,8.477-3.796,8.477-8.477
	C330.038,94.498,326.244,90.703,321.561,90.703z"/>
<path d="M123.208,227.911c4.617-0.77,7.738-5.137,6.967-9.756c-0.77-4.618-5.127-7.738-9.756-6.968l-40.688,6.782
	c-2.249,0.375-4.254,1.641-5.559,3.512c-1.304,1.871-1.802,4.189-1.377,6.429l18.65,98.331c0.434,2.292,1.794,4.304,3.759,5.561
	c1.377,0.88,2.964,1.337,4.569,1.337c0.687,0,1.378-0.084,2.056-0.253l40.688-10.173c4.543-1.135,7.303-5.738,6.168-10.28
	c-1.136-4.543-5.743-7.304-10.281-6.168l-31.976,7.993l-6.347-33.462l27.306-7.281c4.523-1.206,7.214-5.852,6.006-10.375
	c-1.207-4.523-5.854-7.215-10.376-6.006l-26.104,6.961l-5.846-30.826L123.208,227.911z"/>
<path d="M198.297,240.028l-42.382,7.629c-4.608,0.83-7.671,5.237-6.843,9.845c0.738,4.1,4.31,6.977,8.334,6.977
	c0.498,0,1.005-0.044,1.512-0.136l42.382-7.629c4.608-0.83,7.671-5.237,6.843-9.845C207.313,242.26,202.902,239.196,198.297,240.028
	z"/>
<path d="M203.948,268.848l-42.384,7.629c-4.607,0.83-7.67,5.237-6.842,9.845c0.738,4.1,4.31,6.977,8.334,6.977
	c0.498,0,1.005-0.044,1.512-0.136l42.384-7.629c4.607-0.83,7.67-5.237,6.842-9.845C212.965,271.081,208.551,268.018,203.948,268.848
	z"/>
<path d="M242.145,304.839c0.46,0,0.928-0.037,1.397-0.115c4.618-0.766,7.742-5.132,6.975-9.75l-1.643-9.908
	c-0.765-4.618-5.13-7.745-9.75-6.975c-4.618,0.766-7.742,5.132-6.975,9.75l1.643,9.908
	C234.481,301.897,238.074,304.839,242.145,304.839z"/>
<path d="M326.105,234.246c-1.294-7.8-5.547-14.63-11.98-19.232c-6.43-4.601-14.267-6.423-22.069-5.127
	c-7.801,1.294-14.63,5.549-19.233,11.98c-0.057,0.078-0.112,0.157-0.166,0.235c-6.198-4.521-14.133-6.653-22.285-5.3
	c-16.103,2.672-27.031,17.946-24.359,34.05l1.828,11.017c0.766,4.618,5.127,7.739,9.75,6.975c4.618-0.766,7.742-5.132,6.975-9.75
	l-1.828-11.017c-1.142-6.881,3.528-13.408,10.409-14.549c6.874-1.138,13.408,3.528,14.55,10.408l7.781,46.893
	c0.687,4.149,4.28,7.091,8.353,7.09c0.46,0,0.928-0.037,1.397-0.115c4.149-0.688,7.091-4.283,7.09-8.355
	c0-0.46-0.037-0.927-0.116-1.396l-7.781-46.895c-0.553-3.333,0.225-6.682,2.191-9.43c1.966-2.749,4.884-4.566,8.218-5.119
	c6.877-1.142,13.406,3.528,14.549,10.408l7.781,46.895c0.765,4.617,5.132,7.74,9.75,6.975c4.618-0.766,7.742-5.132,6.975-9.75
	L326.105,234.246z"/>
<path d="M367.656,203.786c-10.247,3.618-18.475,11.011-23.162,20.817c-9.678,20.241-1.083,44.582,19.157,54.26
	c5.567,2.661,11.53,4.002,17.522,4.002c4.564,0,9.145-0.778,13.577-2.343c10.247-3.618,18.475-11.011,23.162-20.817
	c2.019-4.224,0.232-9.284-3.991-11.304c-4.222-2.019-9.285-0.233-11.305,3.991c-2.734,5.72-7.532,10.032-13.51,12.143
	c-5.978,2.113-12.421,1.767-18.14-0.968c-11.807-5.646-16.82-19.843-11.175-31.65c2.734-5.719,7.532-10.031,13.51-12.143
	c5.978-2.109,12.42-1.767,18.14,0.968c4.222,2.018,9.284,0.234,11.305-3.992c2.019-4.224,0.232-9.285-3.991-11.304
	C388.948,200.757,377.907,200.167,367.656,203.786z"/>
<path d="M433.839,143.993c-3.274-12.149-15.817-19.37-27.972-16.095c-12.148,3.274-19.369,15.822-16.095,27.971
	c1.218,4.52,5.867,7.201,10.391,5.98c4.521-1.218,7.198-5.87,5.98-10.391c-0.842-3.123,1.014-6.348,4.137-7.19
	c3.116-0.841,6.347,1.014,7.189,4.137c1.969,7.305,1.563,14.895-1.173,21.948l-9.107,23.475c-1.155,2.979-0.539,6.354,1.597,8.732
	c1.631,1.814,3.935,2.812,6.306,2.811c0.735,0,1.477-0.095,2.205-0.292l26.625-7.175c4.521-1.218,7.198-5.871,5.979-10.391
	c-1.217-4.521-5.872-7.197-10.39-5.979l-10.462,2.819l3.052-7.867C436.153,166.044,436.753,154.809,433.839,143.993z"/>
<path d="M364.068,305.656c-4.662,0.427-8.095,4.553-7.668,9.215c0.402,4.399,4.1,7.704,8.432,7.704c0.259,0,0.521-0.011,0.783-0.036
	c18.865-1.729,37.778-2.605,56.214-2.605c4.683,0,8.477-3.796,8.477-8.477c0-4.682-3.794-8.477-8.477-8.477
	C402.878,302.981,383.444,303.88,364.068,305.656z"/>
<path d="M338.493,308.5c-108.613,14.182-183.959,50.315-187.114,51.846c-4.211,2.045-5.966,7.113-3.924,11.326
	c1.465,3.02,4.487,4.779,7.634,4.779c1.241,0,2.501-0.274,3.692-0.85c0.751-0.363,76.184-36.482,181.907-50.288
	c4.642-0.607,7.915-4.861,7.308-9.503C347.389,311.165,343.119,307.896,338.493,308.5z"/>
<g>
</g>
<g>
</g>
<g>
</g>
<g>
</g>
<g>
</g>
<g>
</g>
<g>
</g>
<g>
</g>
<g>
</g>
<g>
</g>
<g>
</g>
<g>
</g>
<g>
</g>
<g>
</g>
<g>
</g>
</svg>
