<?xml version="1.0" encoding="UTF-8"?>
<svg width="470px" height="420px" viewBox="0 0 470 420" version="1.1" xmlns="http://www.w3.org/2000/svg" xmlns:xlink="http://www.w3.org/1999/xlink">
    <!-- Generator: Sketch 47.1 (45422) - http://www.bohemiancoding.com/sketch -->
    <title>018-atom</title>
    <desc>Created with Sketch.</desc>
    <defs></defs>
    <g id="Page-1" stroke="none" stroke-width="1" fill="none" fill-rule="evenodd">
        <g id="018-atom" fill-rule="nonzero">
            <path d="M398.559,141.02 C389.709,137.616 380.267,134.527 370.339,131.755 C372.902,121.771 374.948,112.049 376.426,102.682 C384.115,53.925 375.618,19.723 352.501,6.376 C345.781,2.496 338.058,0.528 329.547,0.528 C302.665,0.528 268.697,20.493 234.429,54.209 C226.943,46.857 219.423,40.104 211.927,34.042 C173.548,3.004 139.677,-6.739 116.562,6.608 C101.706,15.185 92.671,32.701 90.436,57.26 C90.06,61.385 93.1,65.033 97.225,65.408 C101.363,65.79 104.997,62.744 105.373,58.619 C106.611,45.025 110.857,27.221 124.061,19.598 C141.171,9.717 169.76,19.233 202.495,45.704 C209.638,51.48 216.809,57.921 223.956,64.937 C209.583,80.23 195.28,97.831 181.546,117.284 C157.386,119.483 134.374,123.172 113.255,128.232 C109.557,113.856 107.017,100.139 105.764,87.405 C105.359,83.283 101.705,80.271 97.566,80.676 C93.444,81.081 90.431,84.752 90.837,88.874 C92.163,102.348 94.845,116.84 98.754,132.007 C89.158,134.713 80.024,137.719 71.443,141.019 C25.371,158.739 5.68434189e-14,183.199 5.68434189e-14,209.892 C5.68434189e-14,236.585 25.371,261.045 71.441,278.764 C80.291,282.168 89.733,285.257 99.661,288.029 C97.098,298.013 95.052,307.735 93.574,317.102 C85.885,365.859 94.382,400.061 117.499,413.408 C124.219,417.288 131.942,419.256 140.453,419.256 C167.026,419.256 200.524,399.74 234.391,366.725 C241.646,373.811 248.931,380.334 256.194,386.207 C283.355,408.173 308.253,419.473 328.683,419.472 C337.121,419.471 344.802,417.542 351.559,413.641 C374.676,400.294 383.173,366.092 375.484,317.335 C374.007,307.969 371.961,298.248 369.398,288.265 C384.837,284.013 399.038,279.005 411.616,273.305 C415.389,271.595 417.061,267.151 415.351,263.378 C413.641,259.605 409.196,257.932 405.424,259.643 C393.512,265.041 380.047,269.793 365.382,273.835 C359.319,253.574 351.245,232.423 341.406,211.027 C351.687,188.905 360.091,167.023 366.349,146.091 C422.014,161.677 455,186.293 455,209.892 C455,225.139 441.704,237.719 430.55,245.586 C427.165,247.974 426.357,252.653 428.744,256.038 C431.132,259.424 435.811,260.231 439.196,257.844 C459.349,243.629 470,227.047 470,209.892 C470,183.199 444.629,158.739 398.559,141.02 Z M345,19.367 C362.112,29.247 368.166,58.763 361.607,100.346 C360.202,109.253 358.257,118.505 355.818,128.015 C334.611,122.987 311.519,119.335 287.286,117.18 C273.69,97.938 259.42,80.341 244.911,64.927 C247.566,62.309 250.223,59.769 252.875,57.325 C282.127,30.372 309.355,15.529 329.546,15.529 C335.39,15.529 340.59,16.82 345,19.367 Z M267.773,115.783 C257.004,115.196 246.061,114.892 235,114.892 C223.569,114.892 212.262,115.213 201.145,115.839 C211.953,101.279 223.151,87.769 234.45,75.681 C245.767,87.743 256.95,101.198 267.773,115.783 Z M234.397,345.338 C222.679,332.918 211.101,318.997 199.911,303.872 C211.425,304.546 223.145,304.892 235,304.892 C246.419,304.892 257.732,304.559 268.871,303.923 C257.691,318.987 246.094,332.933 234.397,345.338 Z M235,289.892 C218.885,289.892 203.422,289.268 188.686,288.108 C180.409,276.032 172.402,263.328 164.779,250.124 C157.276,237.129 150.374,224.017 144.122,210.969 C150.612,197.308 157.829,183.557 165.718,169.892 C173.358,156.66 181.468,143.829 189.895,131.585 C204.269,130.486 219.324,129.892 235,129.892 C250.273,129.892 264.956,130.456 278.994,131.501 C287.428,143.768 295.584,156.686 303.343,170.124 C311.193,183.721 318.377,197.403 324.843,210.997 C318.624,223.939 311.752,236.954 304.283,249.891 C296.658,263.098 288.563,275.906 280.153,288.13 C265.437,289.288 250.323,289.892 235,289.892 Z M169.385,286.237 C150.932,284.105 133.803,281.108 118.18,277.427 C122.924,261.638 128.938,245.267 136.109,228.637 C141.007,238.325 146.237,248.01 151.788,257.624 C157.456,267.442 163.337,276.995 169.385,286.237 Z M170.575,133.408 C164.464,142.726 158.497,152.399 152.728,162.392 C146.795,172.668 141.229,183.002 136.051,193.32 C128.508,176.002 122.193,158.944 117.263,142.571 C133.466,138.712 151.305,135.588 170.575,133.408 Z M102.757,146.342 C108.992,167.144 117.358,188.962 127.562,210.989 C117.749,232.351 109.697,253.466 103.649,273.694 C47.986,258.107 15,233.491 15,209.892 C15,186.42 47.634,161.941 102.757,146.342 Z M140.454,404.255 C134.61,404.255 129.41,402.964 125,400.417 C107.888,390.537 101.834,361.021 108.393,319.438 C109.798,310.531 111.743,301.279 114.182,291.769 C134.7,296.634 156.982,300.21 180.355,302.388 C194.306,322.195 208.973,340.271 223.885,356.036 C221.631,358.237 219.376,360.384 217.125,362.459 C187.873,389.413 160.645,404.255 140.454,404.255 Z M360.668,319.671 C367.227,361.254 361.173,390.77 344.061,400.65 C326.948,410.529 298.362,401.014 265.627,374.544 C258.734,368.97 251.813,362.777 244.915,356.045 C259.676,340.467 274.377,322.442 288.478,302.466 C311.91,300.315 334.3,296.769 354.867,291.957 C357.312,301.483 359.261,310.75 360.668,319.671 Z M299.499,286.263 C305.584,276.98 311.526,267.345 317.272,257.392 C322.789,247.836 327.985,238.231 332.851,228.635 C340.046,245.295 346.079,261.698 350.838,277.518 C334.774,281.251 317.527,284.188 299.499,286.263 Z M316.333,162.624 C310.515,152.546 304.474,142.746 298.256,133.276 C317.611,135.422 335.532,138.519 351.82,142.357 C346.865,158.85 340.518,175.98 332.92,193.373 C327.768,183.114 322.232,172.841 316.333,162.624 Z" id="Shape" fill="#38AADB"></path>
            <path d="M235,172.392 C214.322,172.392 197.5,189.214 197.5,209.892 C197.5,230.57 214.322,247.392 235,247.392 C255.678,247.392 272.5,230.57 272.5,209.892 C272.5,189.214 255.678,172.392 235,172.392 Z M235,232.392 C222.594,232.392 212.5,222.298 212.5,209.892 C212.5,197.486 222.594,187.392 235,187.392 C247.406,187.392 257.5,197.486 257.5,209.892 C257.5,222.298 247.406,232.392 235,232.392 Z" id="Shape" fill="#8CD5F4"></path>
        </g>
    </g>
</svg>