<?xml version="1.0" standalone="no"?>
<!DOCTYPE svg PUBLIC "-//W3C//DTD SVG 20010904//EN"
 "http://www.w3.org/TR/2001/REC-SVG-20010904/DTD/svg10.dtd">
<svg version="1.0" xmlns="http://www.w3.org/2000/svg"
 width="16.000000pt" height="16.000000pt" viewBox="0 0 16.000000 16.000000"
 preserveAspectRatio="xMidYMid meet">
<metadata>
Created by potrace 1.11, written by Peter Selinger 2001-2013
</metadata>
<g transform="translate(0.000000,16.000000) scale(0.001247,-0.001247)"
fill="#000000" stroke="none">
<path d="M10764 12062 c2 -4 -33 -8 -77 -10 -47 -2 -85 -9 -90 -15 -6 -9 -10
-9 -14 1 -6 15 -33 16 -33 1 0 -6 -9 -9 -20 -6 -11 3 -18 1 -14 -4 3 -5 -3 -9
-13 -9 -11 0 -23 -4 -28 -8 -6 -5 -43 -15 -82 -22 -40 -7 -73 -16 -73 -20 0
-3 -27 -12 -60 -19 -33 -8 -60 -17 -60 -21 0 -4 -16 -11 -35 -14 -19 -4 -35
-11 -35 -15 0 -5 -20 -14 -45 -21 -25 -7 -45 -17 -45 -21 0 -5 -7 -9 -15 -9
-13 0 -64 -30 -110 -65 -10 -8 -27 -12 -37 -9 -12 4 -18 0 -18 -11 0 -8 -11
-20 -25 -25 -14 -5 -25 -14 -25 -20 0 -5 -11 -12 -25 -16 -14 -3 -25 -12 -25
-19 0 -14 -27 -28 -40 -20 -4 3 -7 -3 -6 -13 1 -12 -8 -18 -26 -20 -28 -3 -40
-22 -15 -22 6 -1 0 -8 -15 -16 -16 -8 -28 -19 -28 -24 0 -6 -9 -10 -20 -10
-13 0 -20 -7 -20 -18 0 -10 -20 -40 -45 -66 -25 -27 -45 -51 -45 -53 0 -2 -21
-25 -47 -51 -26 -26 -48 -49 -48 -52 -1 -12 -50 -60 -62 -60 -8 0 -11 -5 -8
-11 4 -6 -1 -17 -11 -24 -11 -8 -16 -15 -12 -15 4 0 -6 -14 -22 -30 -17 -17
-30 -35 -30 -40 0 -6 -7 -10 -15 -10 -8 0 -15 -7 -15 -15 0 -8 -11 -22 -25
-31 -14 -9 -25 -21 -25 -28 -1 -20 -49 -68 -62 -60 -7 5 -8 3 -3 -5 4 -8 -1
-21 -14 -32 -12 -11 -21 -24 -21 -29 0 -6 -7 -10 -15 -10 -8 0 -15 -7 -15 -15
0 -8 -9 -19 -20 -25 -11 -6 -20 -16 -20 -23 0 -7 -9 -23 -20 -35 -11 -12 -20
-24 -20 -27 0 -3 -16 -20 -35 -38 -19 -17 -35 -35 -35 -39 0 -8 -45 -60 -98
-114 -19 -19 -28 -34 -20 -35 7 0 3 -5 -9 -11 -13 -6 -23 -16 -23 -23 0 -7
-20 -34 -45 -61 -25 -26 -45 -51 -45 -56 0 -4 -7 -8 -15 -8 -8 0 -15 -7 -15
-15 0 -8 -8 -23 -17 -33 -10 -10 -31 -36 -48 -57 -16 -22 -34 -45 -40 -52 -20
-24 -31 -38 -64 -85 -19 -27 -38 -48 -42 -48 -4 0 -10 -9 -14 -19 -3 -10 -21
-36 -40 -57 -19 -22 -41 -47 -50 -56 -8 -10 -15 -22 -15 -28 0 -5 -6 -10 -13
-10 -6 0 -18 -14 -26 -32 -8 -18 -27 -45 -43 -60 -15 -15 -28 -30 -28 -32 0
-11 -64 -96 -72 -96 -4 0 -8 -6 -8 -14 0 -8 -7 -16 -15 -20 -8 -3 -15 -12 -15
-21 0 -8 -7 -15 -15 -15 -8 0 -15 -5 -15 -11 0 -6 -11 -25 -25 -43 -14 -18
-25 -36 -25 -40 0 -4 -15 -21 -32 -38 -18 -18 -33 -35 -33 -38 -1 -14 -22 -38
-43 -49 -12 -7 -20 -16 -17 -21 3 -5 -5 -16 -17 -24 -12 -9 -19 -18 -16 -22 6
-5 -4 -20 -37 -58 -6 -6 -22 -30 -38 -53 -15 -24 -32 -43 -37 -43 -6 0 -10 -7
-10 -15 0 -8 -9 -23 -20 -32 -11 -10 -20 -23 -20 -30 0 -7 -4 -13 -9 -13 -5 0
-13 -9 -16 -20 -3 -11 -13 -20 -21 -20 -8 0 -14 -7 -14 -16 0 -8 -4 -12 -10
-9 -5 3 -7 0 -4 -8 3 -8 -1 -21 -8 -28 -8 -8 -17 -22 -21 -31 -3 -10 -11 -18
-17 -18 -5 0 -10 -5 -10 -11 0 -6 -15 -25 -33 -43 -18 -17 -39 -43 -46 -58 -8
-16 -18 -28 -23 -28 -4 0 -8 -9 -8 -20 0 -11 -6 -20 -13 -20 -6 0 -18 -14 -26
-31 -7 -16 -26 -44 -42 -62 -16 -17 -29 -37 -29 -44 0 -7 -7 -13 -15 -13 -8 0
-15 -7 -15 -15 0 -8 -4 -15 -10 -15 -5 0 -10 -9 -10 -19 0 -10 -7 -21 -15 -25
-8 -3 -15 -12 -15 -21 0 -9 -9 -15 -21 -15 -14 0 -19 -5 -16 -14 3 -8 0 -17
-8 -19 -7 -3 -16 -19 -20 -36 -4 -17 -12 -34 -19 -38 -7 -5 -15 -16 -19 -26
-4 -9 -10 -16 -14 -15 -4 2 -8 0 -8 -3 0 -4 -9 -17 -20 -29 -11 -12 -19 -25
-19 -29 3 -13 -25 -43 -35 -36 -7 4 -11 -3 -11 -18 0 -14 -7 -27 -15 -31 -8
-3 -15 -15 -15 -26 0 -11 -7 -20 -16 -20 -8 0 -12 -4 -9 -10 3 -5 1 -10 -4
-10 -6 0 -11 -7 -11 -15 0 -8 -9 -23 -20 -32 -11 -10 -20 -23 -20 -29 0 -7 -7
-14 -15 -18 -8 -3 -15 -10 -15 -16 0 -10 -45 -76 -61 -90 -3 -3 -8 -13 -12
-23 -4 -10 -11 -16 -16 -12 -5 3 -11 -5 -13 -17 -2 -13 -9 -22 -16 -20 -9 2
-11 -4 -7 -17 3 -12 0 -21 -10 -25 -8 -3 -15 -11 -15 -18 0 -7 -12 -24 -26
-37 -14 -13 -31 -39 -39 -58 -8 -18 -19 -33 -24 -33 -6 0 -11 -7 -11 -15 0 -9
-7 -18 -15 -21 -8 -4 -15 -11 -15 -16 0 -6 -16 -32 -35 -58 -19 -26 -35 -53
-35 -59 0 -6 -7 -11 -16 -11 -10 0 -14 -5 -10 -15 3 -9 -1 -18 -9 -21 -8 -4
-15 -11 -15 -18 0 -6 -11 -23 -24 -37 -13 -14 -31 -40 -40 -57 -9 -18 -21 -32
-26 -32 -6 0 -10 -8 -10 -19 0 -10 -9 -21 -20 -24 -12 -3 -18 -11 -15 -19 3
-8 -2 -23 -12 -33 -10 -11 -24 -32 -32 -47 -8 -16 -18 -28 -23 -28 -4 0 -8 -7
-8 -15 0 -8 -4 -15 -10 -15 -5 0 -17 -15 -25 -32 -8 -18 -23 -45 -32 -59 -71
-106 -89 -129 -99 -129 -7 0 -15 -16 -18 -35 -4 -19 -11 -35 -17 -35 -5 0 -14
-11 -19 -25 -5 -14 -14 -25 -20 -25 -5 0 -10 -5 -10 -11 0 -17 -37 -59 -45
-51 -4 4 -4 -3 0 -16 5 -18 2 -25 -13 -29 -11 -2 -23 -15 -27 -26 -4 -12 -8
-24 -9 -27 -7 -20 -33 -50 -43 -50 -7 0 -13 -9 -13 -19 0 -11 -5 -23 -10 -26
-6 -4 -8 -10 -5 -15 3 -4 -2 -10 -10 -14 -8 -3 -15 -12 -15 -21 0 -8 -4 -15
-10 -15 -5 0 -10 -7 -10 -15 0 -9 -7 -18 -15 -21 -8 -4 -15 -13 -15 -21 0 -8
-4 -11 -10 -8 -5 3 -7 0 -4 -8 3 -8 -3 -21 -14 -28 -10 -8 -22 -26 -26 -41 -3
-16 -11 -28 -16 -28 -6 0 -10 -7 -10 -15 0 -8 -7 -15 -15 -15 -8 0 -15 -8 -15
-19 0 -10 -9 -30 -20 -44 -11 -14 -20 -28 -20 -31 0 -4 -20 -34 -45 -68 -25
-34 -45 -67 -45 -74 0 -6 -7 -14 -15 -18 -8 -3 -15 -12 -15 -21 0 -8 -4 -15
-9 -15 -5 0 -11 -10 -15 -23 -3 -12 -14 -32 -26 -44 -11 -12 -20 -27 -20 -32
0 -5 -13 -22 -28 -38 -16 -15 -32 -40 -35 -56 -4 -15 -12 -27 -17 -27 -6 0
-10 -5 -10 -12 0 -6 -11 -26 -25 -44 -14 -18 -25 -37 -25 -43 0 -6 -7 -11 -15
-11 -8 0 -15 -7 -15 -15 0 -8 -9 -19 -20 -25 -11 -6 -18 -16 -14 -21 3 -6 -3
-13 -15 -16 -12 -3 -21 -9 -21 -13 0 -4 -12 -15 -26 -25 -21 -14 -28 -14 -42
-3 -13 11 -15 11 -9 -4 5 -15 1 -18 -21 -18 -26 0 -62 29 -62 49 0 5 -7 12
-16 15 -8 3 -13 10 -9 15 3 6 0 13 -7 18 -7 4 -20 22 -28 38 -8 17 -21 36 -28
43 -6 7 -13 20 -13 28 -3 31 -4 35 -15 42 -6 4 -14 19 -18 35 -3 15 -11 27
-16 27 -6 0 -10 6 -10 14 0 8 -5 27 -12 43 -6 15 -11 31 -10 36 1 4 -2 7 -8 7
-5 0 -12 17 -16 37 -4 21 -13 44 -21 51 -7 7 -13 24 -13 36 0 13 -6 29 -14 35
-8 7 -18 31 -21 53 -4 23 -13 47 -20 54 -7 7 -16 33 -19 59 -4 25 -11 45 -16
45 -5 0 -12 16 -16 35 -3 19 -10 38 -15 40 -4 3 -6 12 -2 20 3 8 0 15 -5 15
-6 0 -14 20 -17 45 -4 24 -13 50 -21 56 -8 6 -14 27 -14 46 0 20 -6 36 -14 39
-8 3 -18 19 -21 35 -4 16 -10 29 -14 29 -4 0 -14 19 -22 42 -7 24 -21 50 -29
59 -8 9 -22 26 -30 38 -8 13 -25 34 -38 47 -12 14 -22 28 -22 32 0 4 -14 13
-31 21 -17 7 -38 21 -47 31 -9 9 -30 20 -47 24 -16 4 -33 13 -37 19 -9 16
-297 15 -306 0 -4 -6 -36 -15 -72 -22 -36 -6 -66 -15 -68 -21 -2 -5 -21 -10
-43 -10 -25 0 -39 -5 -39 -13 0 -7 -20 -19 -44 -26 -25 -7 -47 -18 -49 -24 -2
-6 -19 -11 -39 -11 -22 -1 -34 -5 -31 -12 5 -14 -55 -37 -70 -27 -6 4 -8 0 -4
-10 5 -12 -1 -19 -21 -23 -15 -4 -35 -15 -45 -25 -10 -11 -29 -19 -42 -19 -16
0 -25 -6 -25 -16 0 -11 -6 -15 -20 -11 -11 3 -18 1 -15 -3 9 -14 -25 -40 -51
-40 -13 0 -24 -6 -24 -12 0 -17 -71 -79 -82 -72 -5 3 -7 2 -6 -3 2 -5 -30 -42
-69 -82 -40 -40 -73 -79 -73 -87 0 -8 -4 -14 -9 -14 -5 0 -14 -13 -20 -30 -5
-16 -17 -30 -25 -30 -9 0 -13 -6 -10 -14 3 -8 0 -17 -5 -21 -6 -3 -9 -11 -5
-16 3 -5 0 -17 -7 -25 -16 -19 -16 -268 -1 -287 6 -7 13 -37 16 -67 3 -30 9
-68 14 -85 5 -16 7 -36 5 -43 -3 -7 -1 -18 5 -25 5 -7 15 -37 22 -67 7 -30 16
-62 20 -70 4 -9 11 -31 15 -50 4 -19 12 -41 18 -48 5 -7 10 -33 9 -57 0 -32 4
-45 14 -45 8 0 11 -6 8 -15 -4 -8 -1 -15 5 -15 6 0 11 -13 11 -28 0 -16 7 -44
16 -62 9 -18 19 -53 22 -79 3 -25 11 -50 18 -54 8 -4 14 -19 14 -33 0 -14 9
-44 19 -67 11 -23 23 -60 27 -82 4 -22 13 -46 21 -53 7 -7 13 -31 13 -53 0
-26 4 -39 14 -39 9 0 15 -16 19 -46 2 -26 9 -49 14 -53 6 -3 16 -31 23 -61 7
-30 18 -58 24 -62 6 -4 11 -28 11 -53 0 -37 3 -45 18 -45 15 0 17 -6 11 -35
-5 -28 -3 -35 10 -35 10 0 13 -6 10 -15 -4 -8 -2 -15 4 -15 13 0 34 -84 25
-106 -5 -13 -3 -16 10 -11 13 5 18 -2 23 -28 3 -19 10 -35 14 -35 5 0 14 -25
21 -55 7 -30 16 -55 20 -55 4 0 10 -18 14 -40 4 -22 10 -40 14 -40 10 0 31
-46 31 -69 0 -11 7 -21 15 -25 8 -3 15 -12 15 -20 0 -7 25 -63 56 -122 74
-144 88 -168 96 -172 4 -2 4 -10 1 -19 -4 -10 -2 -14 5 -9 6 3 13 -3 17 -14 3
-11 10 -20 15 -20 5 0 12 -10 16 -22 4 -13 38 -54 75 -92 38 -37 69 -72 69
-76 0 -4 18 -10 39 -14 22 -3 41 -10 43 -16 4 -12 200 -28 391 -31 76 -2 140
-7 143 -11 8 -12 54 -10 54 3 0 8 4 8 14 0 11 -9 19 -9 35 0 16 11 25 10 46
-1 19 -10 28 -11 37 -2 7 7 38 12 69 12 80 0 263 20 269 29 3 4 32 13 64 19
33 7 62 16 65 21 3 4 17 12 31 16 14 4 36 16 49 26 13 11 29 19 36 19 7 0 15
7 19 15 3 8 11 15 18 15 7 0 19 9 26 20 7 12 20 19 30 18 10 -2 17 3 17 12 0
8 10 26 23 40 12 14 25 33 28 43 3 9 10 17 15 17 6 0 8 4 4 9 -3 5 4 13 16 16
13 4 18 12 15 22 -5 11 -2 13 10 9 11 -4 14 -1 12 12 -3 21 36 75 47 64 4 -4
4 4 0 17 -6 18 -4 23 7 19 9 -4 14 2 16 15 0 12 6 23 11 25 5 2 19 23 31 48
12 24 26 44 31 44 5 0 9 9 9 19 0 10 7 21 15 25 8 3 15 12 15 21 0 8 4 15 9
15 5 0 23 24 39 54 17 29 38 56 46 59 9 4 16 18 16 32 0 14 7 28 15 31 8 4 15
12 15 20 0 8 7 14 15 14 8 0 15 8 15 19 0 10 7 24 15 31 8 7 13 16 10 20 -3 4
2 10 10 14 8 3 15 12 15 20 0 10 6 13 16 9 13 -5 15 -2 10 14 -4 13 2 28 19
47 14 15 25 31 25 36 0 5 9 14 20 20 11 6 18 15 15 19 -2 5 3 19 13 32 10 13
22 32 25 43 5 11 13 16 23 12 13 -5 15 -2 11 14 -3 14 3 29 19 45 13 13 24 27
24 30 0 3 18 30 39 59 22 30 37 56 34 60 -4 3 -1 6 5 6 6 0 14 9 17 20 3 11
13 20 21 20 8 0 14 8 14 19 0 15 97 163 119 181 3 3 13 19 21 35 8 17 21 34
27 38 7 4 13 14 13 22 0 9 6 12 15 9 11 -4 15 0 15 16 0 29 79 141 94 133 6
-3 8 -3 4 2 -8 9 21 66 40 78 6 4 12 15 12 22 0 8 4 15 9 15 5 0 16 16 25 35
9 19 21 35 26 35 6 0 10 7 10 15 0 9 10 20 23 25 12 5 18 9 14 9 -10 1 25 61
35 61 4 0 8 5 8 10 0 11 34 62 56 87 7 7 15 9 19 5 4 -4 4 3 1 16 -6 16 -3 22
8 22 9 0 16 7 16 15 0 8 12 28 26 44 14 16 25 32 24 36 -1 4 9 15 21 26 12 10
19 19 15 19 -4 0 0 7 8 16 9 8 16 22 16 29 0 8 11 22 25 31 14 9 33 33 42 53
9 20 23 40 30 44 7 4 13 14 13 22 0 9 6 12 17 8 10 -4 14 -2 10 4 -9 15 3 44
14 37 5 -3 8 -1 7 4 -4 11 61 112 72 112 4 0 10 9 13 20 4 14 10 18 23 13 14
-5 16 -3 11 11 -7 18 47 106 65 106 4 0 8 6 8 14 0 8 7 17 16 20 8 3 13 10 10
15 -3 5 6 21 19 35 14 15 25 31 25 36 0 5 9 14 20 20 11 6 20 18 20 26 0 9 5
12 12 8 7 -5 9 -2 6 8 -6 15 51 96 78 111 8 4 14 15 14 23 0 13 27 55 65 101
6 7 15 18 21 26 6 7 17 23 23 36 8 14 18 20 27 17 9 -3 14 0 12 7 -3 18 12 57
23 57 5 0 9 6 9 14 0 8 8 21 18 28 9 7 23 25 31 41 8 15 18 27 23 27 4 0 8 7
8 15 0 8 5 15 10 15 6 0 15 11 20 25 5 14 14 25 20 25 5 0 10 6 10 13 0 6 12
23 25 36 14 13 25 29 25 37 0 8 5 14 10 14 6 0 14 8 17 17 4 9 14 24 22 34 9
9 31 38 50 63 18 25 37 44 41 41 5 -3 11 -1 15 5 3 5 0 10 -7 10 -9 1 -8 4 3
13 9 7 19 22 23 35 4 12 18 30 32 38 13 9 21 20 18 25 -3 5 2 12 10 15 9 3 16
10 16 16 0 5 6 16 13 23 29 33 37 45 37 54 0 15 57 71 65 63 3 -3 3 1 -1 11
-3 9 -2 17 2 17 5 0 23 21 39 45 17 25 33 45 38 45 4 0 7 4 7 10 0 19 55 89
67 85 7 -2 12 -1 12 3 -1 4 -1 16 0 27 1 17 3 18 11 5 9 -14 11 -13 14 10 0 5
8 17 16 27 8 10 22 31 30 47 14 28 44 67 83 107 9 11 17 23 17 28 0 4 11 20
25 35 14 15 25 31 25 35 0 5 7 11 15 15 8 3 15 11 15 18 0 7 17 29 38 49 20
20 38 42 40 49 5 20 62 90 73 90 6 0 7 5 4 10 -3 6 1 10 9 10 9 0 16 6 16 13
0 6 14 28 30 47 16 19 35 41 42 49 7 8 13 20 14 27 1 7 12 23 23 36 12 13 34
40 50 60 16 21 32 34 36 30 5 -4 5 -2 2 5 -4 6 8 27 25 46 18 18 34 40 36 48
2 8 10 18 18 22 8 4 14 12 14 18 0 5 14 23 30 39 17 16 30 34 30 40 0 5 6 10
14 10 8 0 17 11 20 24 3 13 22 40 41 60 19 20 35 40 35 44 0 4 18 27 40 52 22
25 40 51 40 58 0 6 7 12 15 12 8 0 15 5 15 11 0 17 73 108 88 109 6 0 12 7 12
15 0 9 11 27 25 41 14 14 25 29 25 35 0 5 7 12 15 15 8 4 15 12 15 18 0 7 13
25 30 41 16 16 28 30 26 33 -3 2 7 16 22 31 15 15 32 36 39 47 6 10 16 18 22
16 6 -1 11 4 11 12 0 8 16 31 35 50 19 20 35 43 35 51 0 8 4 15 8 15 5 0 24
21 42 48 19 26 40 51 47 55 7 4 13 13 13 18 0 6 15 25 33 42 19 18 42 44 52
60 9 15 23 27 29 27 7 0 16 15 21 33 7 21 16 32 27 31 10 -1 17 1 16 5 -3 24
4 41 17 41 8 0 15 7 15 15 0 9 7 18 15 21 8 4 15 11 15 18 0 6 8 18 18 27 9 8
26 27 37 42 11 15 25 27 32 27 7 0 13 7 13 15 0 8 9 19 20 25 11 6 20 20 20
31 0 11 6 22 14 25 7 3 28 26 47 52 31 44 47 63 107 128 12 14 22 27 22 29 0
5 34 46 58 71 6 7 12 16 12 20 0 4 10 16 23 28 12 12 35 39 52 59 16 20 36 37
43 37 7 0 10 5 7 10 -3 6 -1 10 4 10 6 0 11 6 11 14 0 8 16 30 35 49 19 19 35
40 35 46 0 6 9 16 20 23 11 7 20 16 20 20 0 7 70 87 109 125 13 13 21 23 17
23 -4 0 6 13 22 28 15 15 31 36 35 46 4 10 13 16 22 13 9 -4 12 -1 9 8 -3 7 4
18 15 25 12 6 21 17 21 25 0 8 6 15 14 15 7 0 16 9 19 20 3 11 12 20 21 20 8
0 13 6 10 13 -2 7 6 24 18 37 13 14 22 28 21 32 -2 4 5 4 14 1 11 -4 14 -2 9
5 -4 6 5 17 21 26 15 8 22 15 14 16 -8 0 -1 12 18 30 17 17 31 34 31 39 0 4
10 20 23 34 12 14 31 37 42 52 11 14 33 41 48 60 16 20 25 39 21 46 -4 7 -3 9
3 6 15 -9 24 18 11 31 -8 8 -5 9 11 5 13 -3 21 -1 21 6 0 7 -5 9 -12 5 -7 -4
-8 -3 -4 4 4 6 13 9 21 5 18 -6 20 8 4 24 -8 8 -5 13 11 18 15 5 20 13 17 26
-3 10 -1 17 4 13 12 -7 11 157 -1 176 -7 12 -13 13 -28 4 -16 -10 -18 -9 -18
10 1 13 -4 20 -13 18 -7 -1 -18 4 -25 12 -6 7 -27 19 -46 24 -39 12 -743 16
-736 4z m350 -30 c3 -5 -1 -9 -9 -9 -8 0 -12 4 -9 9 3 4 7 8 9 8 2 0 6 -4 9
-8z m396 -2 c0 -5 -2 -10 -4 -10 -3 0 -8 5 -11 10 -3 6 -1 10 4 10 6 0 11 -4
11 -10z m117 -75 c0 -8 -4 -12 -9 -9 -5 3 -6 10 -3 15 9 13 12 11 12 -6z
m-377 1 c0 -2 -7 -7 -16 -10 -8 -3 -12 -2 -9 4 6 10 25 14 25 6z m-240 -40 c0
-3 -4 -8 -10 -11 -5 -3 -10 -1 -10 4 0 6 5 11 10 11 6 0 10 -2 10 -4z m591
-13 c13 -16 12 -17 -3 -4 -17 13 -22 21 -14 21 2 0 10 -8 17 -17z m-14 -82 c0
-11 -5 -18 -9 -15 -4 3 -5 11 -1 19 7 21 12 19 10 -4z m-99 -196 c-3 -3 -9 2
-12 12 -6 14 -5 15 5 6 7 -7 10 -15 7 -18z"/>
<path d="M5906 11472 c-3 -5 -79 -12 -168 -15 -224 -9 -338 -19 -333 -27 3 -4
-38 -11 -90 -15 -52 -4 -97 -10 -100 -15 -3 -4 -51 -13 -107 -20 -57 -7 -105
-16 -108 -20 -3 -4 -32 -12 -65 -18 -100 -19 -219 -47 -230 -54 -6 -3 -38 -12
-73 -19 -34 -7 -62 -16 -62 -20 0 -3 -17 -9 -39 -13 -21 -3 -51 -12 -67 -21
-16 -8 -48 -17 -71 -21 -24 -3 -43 -10 -43 -14 0 -5 -18 -11 -40 -15 -22 -4
-40 -10 -40 -15 0 -4 -22 -13 -50 -20 -27 -7 -50 -15 -50 -19 0 -4 -25 -13
-55 -20 -30 -7 -55 -16 -55 -21 0 -5 -16 -12 -35 -16 -19 -3 -35 -10 -35 -14
0 -4 -20 -13 -45 -20 -25 -7 -45 -16 -45 -21 0 -4 -13 -10 -30 -14 -16 -4 -30
-10 -30 -14 0 -4 -19 -14 -42 -21 -24 -8 -45 -17 -48 -20 -3 -4 -32 -19 -65
-35 -33 -15 -62 -31 -65 -34 -3 -4 -21 -13 -40 -21 -19 -8 -41 -20 -48 -27 -7
-7 -20 -13 -28 -13 -8 0 -14 -4 -14 -9 0 -5 -11 -12 -24 -15 -14 -3 -31 -12
-38 -19 -14 -12 -54 -37 -98 -59 -14 -7 -29 -16 -35 -21 -29 -22 -87 -57 -95
-57 -6 0 -10 -4 -10 -9 0 -5 -8 -12 -19 -16 -16 -5 -28 -13 -77 -53 -5 -5 -21
-15 -34 -22 -13 -7 -29 -17 -34 -22 -49 -40 -60 -48 -66 -48 -4 0 -16 -8 -28
-18 -11 -10 -33 -27 -47 -38 -15 -10 -37 -28 -49 -39 -13 -11 -33 -27 -46 -35
-13 -8 -33 -24 -46 -35 -13 -11 -41 -36 -64 -55 -23 -19 -54 -45 -68 -58 -15
-13 -43 -38 -63 -55 -69 -60 -379 -369 -379 -378 0 -4 -6 -12 -12 -16 -14 -8
-56 -55 -123 -138 -22 -26 -47 -56 -56 -65 -9 -10 -36 -44 -59 -76 -24 -33
-48 -63 -54 -69 -6 -5 -24 -30 -41 -55 -16 -25 -36 -49 -42 -53 -7 -4 -13 -15
-13 -23 0 -8 -7 -17 -15 -20 -8 -4 -15 -11 -15 -18 0 -7 -7 -21 -15 -31 -57
-74 -95 -131 -95 -142 0 -8 -7 -16 -15 -19 -8 -4 -15 -12 -15 -19 0 -7 -7 -18
-15 -25 -8 -7 -12 -16 -9 -21 3 -5 0 -9 -5 -9 -6 0 -11 -7 -11 -15 0 -9 -6
-18 -14 -21 -8 -3 -17 -17 -21 -31 -3 -15 -15 -38 -26 -51 -10 -14 -19 -31
-19 -38 0 -8 -4 -14 -10 -14 -5 0 -10 -5 -10 -12 0 -6 -18 -42 -39 -78 -22
-36 -43 -78 -46 -93 -4 -15 -11 -27 -15 -27 -7 0 -32 -59 -29 -69 0 -2 -3 -7
-8 -10 -10 -8 -43 -70 -43 -82 0 -4 -11 -33 -25 -63 -14 -30 -25 -60 -25 -65
0 -6 -4 -11 -8 -11 -5 0 -14 -22 -21 -50 -7 -27 -17 -50 -22 -50 -5 0 -9 -8
-9 -17 0 -10 -6 -29 -13 -43 -7 -14 -19 -47 -27 -75 -7 -27 -16 -52 -20 -55
-7 -5 -11 -20 -46 -145 -9 -33 -20 -62 -24 -65 -4 -3 -10 -27 -14 -55 -4 -27
-14 -63 -21 -80 -7 -16 -16 -51 -20 -77 -3 -27 -10 -48 -14 -48 -4 0 -13 -39
-20 -87 -7 -49 -17 -92 -21 -98 -4 -5 -11 -41 -15 -80 -4 -38 -11 -77 -15 -85
-4 -8 -13 -73 -20 -145 -7 -71 -16 -131 -21 -133 -12 -5 -12 -1095 0 -1107 5
-6 15 -71 21 -145 7 -74 16 -139 20 -145 5 -5 12 -43 15 -82 4 -40 11 -73 15
-73 3 0 12 -43 19 -95 8 -52 17 -95 22 -95 4 0 11 -25 14 -55 4 -30 11 -57 15
-60 5 -3 14 -37 21 -75 7 -39 16 -70 20 -70 4 0 11 -20 15 -45 3 -25 10 -45
14 -45 4 0 14 -29 21 -65 7 -36 16 -65 20 -65 4 0 10 -15 13 -32 3 -18 12 -45
20 -60 8 -15 17 -40 21 -57 4 -17 10 -31 15 -31 4 0 10 -14 14 -31 3 -17 22
-65 41 -106 19 -41 38 -86 41 -99 3 -13 10 -24 14 -24 5 0 11 -13 15 -29 3
-16 13 -35 20 -41 8 -7 17 -27 21 -46 3 -19 10 -34 14 -34 4 0 13 -12 19 -27
6 -16 15 -35 20 -43 5 -8 22 -42 38 -75 15 -33 31 -62 34 -65 4 -3 21 -32 38
-65 33 -63 53 -97 61 -105 3 -3 12 -18 20 -35 8 -16 21 -34 27 -38 7 -4 13
-15 13 -22 0 -8 5 -15 12 -15 6 0 9 -3 6 -6 -5 -4 78 -125 170 -249 4 -6 27
-37 51 -70 25 -33 55 -71 68 -84 13 -13 23 -28 23 -32 0 -5 13 -22 30 -37 16
-16 30 -32 30 -35 0 -3 18 -25 40 -49 73 -80 89 -98 86 -98 -4 0 18 -23 160
-171 79 -82 194 -188 329 -304 32 -27 63 -55 69 -60 6 -6 38 -32 71 -58 33
-26 75 -60 94 -75 18 -15 41 -31 50 -36 9 -5 18 -12 21 -15 3 -3 25 -20 50
-36 53 -35 65 -44 90 -67 10 -9 27 -19 38 -22 11 -4 27 -15 37 -26 10 -11 24
-20 32 -20 7 0 13 -3 13 -7 0 -5 25 -21 55 -38 30 -16 55 -32 55 -36 0 -4 16
-13 35 -19 19 -6 35 -15 35 -20 0 -5 16 -14 35 -20 19 -6 35 -16 35 -21 0 -5
11 -11 25 -15 14 -3 25 -9 25 -13 0 -4 16 -13 35 -20 19 -7 35 -16 35 -21 0
-4 11 -11 25 -14 14 -4 25 -11 25 -16 0 -6 7 -10 16 -10 16 0 114 -49 124 -61
3 -4 24 -12 48 -19 23 -7 42 -17 42 -22 0 -4 6 -8 13 -8 6 0 35 -11 62 -25 28
-13 56 -25 63 -25 6 0 12 -4 12 -8 0 -5 23 -14 50 -21 28 -7 50 -16 50 -21 0
-4 16 -11 35 -14 19 -4 35 -11 35 -15 0 -5 17 -12 38 -16 20 -4 51 -13 67 -20
47 -21 184 -65 200 -65 8 0 15 -4 15 -9 0 -5 22 -12 49 -16 26 -4 60 -12 74
-20 14 -7 44 -16 66 -20 23 -4 41 -11 41 -16 0 -5 10 -9 22 -9 34 0 142 -23
149 -32 3 -4 33 -11 67 -14 34 -4 62 -10 62 -14 0 -4 50 -13 110 -20 61 -7
110 -17 110 -21 0 -5 17 -9 38 -9 20 0 89 -7 152 -16 63 -8 147 -19 185 -24
95 -12 922 -12 1010 1 150 21 302 39 337 39 20 0 38 4 40 9 2 6 51 15 111 22
59 7 107 16 107 20 0 4 27 10 60 14 33 4 60 11 60 16 0 5 9 9 20 9 36 0 150
24 150 32 0 4 23 10 50 14 28 4 50 10 50 14 0 5 32 14 70 21 39 7 70 16 70 20
0 4 18 10 40 14 22 4 42 11 45 15 3 5 30 14 60 21 30 7 55 16 55 20 0 4 25 13
55 20 30 7 55 16 55 20 0 5 18 12 40 15 22 4 45 13 51 20 6 7 26 16 45 20 19
3 34 10 34 15 0 4 16 11 35 15 19 3 35 10 35 15 0 4 19 14 43 20 23 7 49 18
57 24 8 7 27 15 43 19 15 3 27 10 27 15 0 5 14 12 30 16 17 4 30 11 30 15 0 5
19 15 43 22 23 7 47 17 53 23 6 6 33 22 60 35 27 14 55 31 62 37 7 7 20 13 28
13 8 0 14 4 14 9 0 5 16 15 35 22 19 7 35 16 35 20 0 4 15 12 33 20 17 7 34
15 37 18 10 12 86 61 93 61 5 0 13 5 20 10 47 39 62 50 78 55 11 4 19 10 19
14 0 4 11 13 25 19 14 7 31 17 38 22 55 47 74 60 85 60 6 0 12 4 12 9 0 4 19
21 42 37 23 16 55 41 72 57 17 15 33 27 37 27 3 0 18 11 33 25 15 14 32 25 37
25 6 0 7 5 4 10 -3 6 -2 10 3 10 5 0 20 9 33 20 13 12 38 32 54 46 167 142
430 406 565 569 79 96 115 138 133 156 9 11 17 23 17 28 0 5 11 19 25 32 13
13 25 29 25 36 0 7 6 16 14 20 7 4 25 26 40 48 47 71 51 77 68 97 10 11 20 29
23 39 4 11 11 19 17 19 6 0 8 9 5 20 -3 11 -1 18 3 15 9 -6 50 46 50 63 0 6 3
12 8 14 8 3 62 84 62 93 0 4 7 13 15 22 8 8 13 19 10 24 -4 5 -1 9 5 9 6 0 16
12 22 28 7 15 20 38 30 51 10 13 18 32 18 41 0 10 7 20 15 24 8 3 15 9 14 13
-2 15 13 53 22 53 5 0 9 9 9 20 0 11 5 20 10 20 6 0 10 7 10 15 0 8 4 15 8 15
6 0 18 22 37 70 1 3 7 18 14 34 6 16 9 38 6 50 -2 11 -2 15 1 9 10 -22 22 -14
29 17 4 16 11 30 16 30 5 0 8 3 7 8 -1 4 4 19 12 34 11 23 11 30 -1 45 -11 13
-11 15 -1 9 16 -10 41 20 42 50 0 12 7 27 16 35 8 7 13 21 11 31 -3 10 -1 18
4 18 5 0 9 7 9 15 0 8 5 15 10 15 6 0 9 3 8 8 -3 16 25 102 34 102 6 0 8 9 5
20 -3 11 -1 20 4 20 5 0 9 10 9 23 0 13 4 27 10 33 5 5 11 26 12 46 2 20 6 34
11 31 4 -2 7 4 7 14 0 11 4 23 8 29 5 5 15 36 22 69 7 33 16 65 20 70 4 6 6
20 5 33 -1 13 2 25 7 28 4 3 8 16 8 30 0 16 4 23 11 18 8 -5 10 1 7 20 -3 14
-2 29 2 31 4 3 10 32 14 64 4 33 11 63 16 66 15 9 12 37 -2 29 -7 -4 -5 1 4
11 16 17 16 19 0 32 -16 12 -16 13 1 7 14 -5 17 0 17 30 0 20 5 36 11 36 7 0
10 15 7 39 -2 22 0 37 4 35 17 -11 7 26 -9 36 -17 11 -17 11 0 6 14 -4 17 -1
15 12 -2 9 -9 16 -14 15 -6 -1 -11 5 -11 12 0 10 4 12 12 5 17 -14 25 -2 25
41 0 21 4 40 8 43 14 9 14 116 0 116 -7 0 -6 5 4 13 18 14 29 125 35 352 2 77
6 157 9 179 4 21 3 36 -2 33 -5 -3 -8 59 -7 139 1 79 -1 142 -5 140 -4 -2 -7
21 -8 52 -1 32 -3 86 -6 122 -3 36 -5 94 -6 129 -2 51 -5 62 -16 58 -10 -4
-13 -1 -9 9 8 21 -18 253 -29 260 -4 3 -8 16 -8 30 0 13 -4 24 -8 24 -4 0 -6
16 -4 35 2 19 0 41 -6 48 -7 9 -33 126 -36 169 -1 3 -4 10 -8 14 -4 4 -11 29
-14 56 -4 27 -11 51 -15 54 -5 3 -9 14 -9 25 0 10 -3 19 -7 19 -5 0 -9 19 -10
41 -2 23 -7 47 -12 53 -4 6 -14 35 -21 64 -6 28 -16 54 -20 57 -5 3 -11 23
-15 45 -4 22 -10 40 -14 40 -4 0 -14 25 -21 55 -7 30 -17 55 -22 55 -4 0 -8 8
-8 18 0 9 -6 28 -13 42 -7 14 -19 44 -26 68 -8 23 -17 42 -21 42 -4 0 -11 16
-14 35 -4 19 -11 35 -16 35 -6 0 -9 3 -8 8 1 4 -4 20 -10 35 -7 16 -12 34 -12
42 0 7 -4 15 -8 17 -10 4 -62 111 -62 127 0 6 -4 11 -9 11 -5 0 -15 17 -22 38
-6 20 -15 39 -18 42 -11 9 -31 44 -48 83 -9 20 -19 37 -24 37 -4 0 -12 12 -18
28 -7 15 -23 45 -36 67 -14 22 -28 48 -31 58 -4 9 -11 17 -16 17 -5 0 -7 4 -4
9 3 5 -1 14 -9 21 -8 7 -15 18 -15 25 0 7 -7 15 -15 19 -8 3 -15 10 -15 16 0
11 -34 62 -57 88 -7 7 -13 17 -13 21 0 6 -50 78 -87 126 -22 28 -91 123 -105
145 -9 14 -25 35 -37 47 -12 12 -21 26 -21 32 0 5 -7 12 -16 15 -12 4 -30 -8
-60 -40 -24 -25 -44 -49 -44 -51 0 -3 -12 -18 -27 -32 -16 -15 -45 -47 -65
-72 -56 -68 -111 -131 -203 -234 -11 -13 -36 -42 -55 -66 -19 -23 -43 -51 -52
-61 -19 -19 -24 -48 -8 -48 5 0 16 -12 24 -27 8 -16 26 -40 40 -55 14 -15 26
-31 26 -35 0 -5 8 -16 18 -25 28 -27 43 -48 35 -48 -4 0 0 -5 10 -11 9 -5 17
-17 17 -24 0 -8 5 -15 10 -15 6 0 15 -11 20 -25 5 -14 14 -25 20 -25 5 0 10
-5 10 -10 0 -10 48 -89 60 -100 6 -5 79 -131 124 -212 14 -27 23 -48 20 -48
-3 0 2 -7 10 -16 9 -8 16 -22 16 -30 0 -8 4 -14 9 -14 4 0 14 -21 21 -47 8
-27 16 -50 19 -53 12 -10 48 -86 55 -115 4 -16 20 -57 36 -91 16 -33 32 -78
36 -99 4 -21 13 -50 20 -64 7 -14 16 -45 20 -68 3 -24 10 -43 14 -43 5 0 11
-22 15 -50 4 -27 10 -50 14 -50 4 0 13 -35 20 -77 7 -43 16 -85 21 -94 4 -9
11 -42 15 -75 4 -32 10 -63 13 -69 3 -5 7 -18 8 -30 1 -11 7 -49 13 -85 6 -36
11 -88 11 -115 0 -28 4 -55 9 -60 12 -13 31 -389 31 -611 0 -210 -18 -536 -31
-548 -5 -6 -9 -29 -9 -52 0 -23 -9 -86 -19 -140 -11 -55 -22 -120 -26 -146 -3
-27 -10 -48 -14 -48 -4 0 -13 -41 -20 -90 -7 -50 -16 -90 -21 -90 -4 0 -10
-22 -14 -50 -4 -27 -11 -50 -15 -50 -5 0 -12 -21 -16 -47 -4 -26 -14 -61 -22
-76 -8 -16 -15 -44 -16 -62 -1 -18 -6 -33 -12 -32 -5 1 -10 -5 -10 -13 0 -8
-3 -19 -7 -25 -3 -5 -9 -25 -13 -43 -3 -17 -10 -32 -15 -32 -5 0 -12 -15 -15
-33 -4 -17 -16 -51 -26 -74 -11 -23 -19 -47 -19 -52 0 -6 -4 -11 -9 -11 -5 0
-12 -13 -16 -29 -6 -28 -145 -315 -163 -336 -4 -5 -15 -25 -22 -43 -8 -17 -18
-32 -21 -32 -4 0 -10 -8 -13 -17 -4 -10 -18 -36 -31 -58 -14 -22 -32 -55 -40
-72 -8 -18 -20 -33 -25 -33 -6 0 -10 -5 -10 -10 0 -6 -16 -33 -35 -60 -19 -27
-35 -53 -35 -57 0 -5 -12 -19 -25 -32 -14 -13 -25 -29 -25 -37 0 -8 -4 -14 -8
-14 -5 0 -31 -33 -59 -73 -28 -39 -60 -81 -70 -92 -10 -11 -29 -33 -41 -50
-13 -16 -40 -50 -60 -75 -44 -53 -407 -416 -445 -445 -15 -11 -45 -36 -67 -55
-54 -48 -84 -72 -110 -90 -12 -8 -34 -25 -48 -37 -15 -13 -33 -23 -39 -23 -7
0 -13 -4 -13 -9 0 -4 -19 -21 -42 -37 -24 -16 -45 -31 -48 -34 -3 -3 -25 -19
-50 -35 -25 -17 -51 -36 -58 -42 -7 -7 -24 -16 -37 -19 -13 -3 -26 -12 -29
-20 -3 -8 -12 -14 -21 -14 -8 0 -15 -4 -15 -9 0 -5 -9 -13 -20 -16 -11 -3 -26
-12 -33 -18 -6 -7 -39 -25 -72 -42 -33 -16 -65 -35 -72 -42 -7 -6 -23 -15 -36
-19 -12 -4 -24 -10 -27 -14 -7 -10 -114 -60 -128 -60 -7 0 -12 -4 -12 -8 0
-10 -112 -62 -134 -62 -9 0 -16 -4 -16 -10 0 -5 -11 -12 -25 -16 -14 -3 -42
-15 -62 -25 -21 -10 -45 -19 -55 -19 -10 0 -18 -4 -18 -9 0 -5 -25 -15 -55
-22 -30 -7 -55 -16 -55 -20 0 -4 -14 -10 -31 -14 -17 -4 -42 -13 -57 -21 -15
-7 -46 -16 -69 -20 -24 -3 -43 -10 -43 -15 0 -4 -20 -11 -45 -15 -25 -3 -45
-10 -45 -14 0 -4 -34 -13 -75 -21 -41 -7 -75 -16 -75 -20 0 -4 -40 -13 -90
-20 -49 -7 -90 -16 -90 -20 0 -4 -26 -10 -57 -14 -32 -4 -62 -11 -68 -15 -5
-4 -68 -13 -140 -20 -71 -7 -132 -16 -135 -20 -10 -14 -358 -35 -575 -35 -216
0 -555 21 -565 35 -3 4 -58 12 -123 19 -65 6 -126 16 -135 21 -9 5 -47 12 -84
15 -38 4 -68 10 -68 14 0 4 -40 13 -90 20 -49 7 -90 16 -90 20 0 4 -30 13 -67
20 -38 8 -72 17 -78 21 -5 4 -29 11 -52 15 -24 4 -43 10 -43 15 0 4 -27 13
-60 20 -33 7 -60 16 -60 20 0 5 -18 11 -40 15 -22 4 -40 10 -40 14 0 4 -25 14
-55 21 -30 7 -55 17 -55 21 0 4 -15 11 -32 15 -18 3 -58 19 -88 34 -30 16 -82
41 -115 55 -33 15 -62 31 -65 34 -3 4 -24 13 -47 19 -24 7 -43 17 -43 22 0 4
-14 11 -30 15 -17 4 -30 10 -30 15 0 4 -15 13 -32 21 -18 7 -35 15 -38 18 -3
3 -31 19 -62 36 -32 16 -58 33 -58 36 0 4 -10 11 -22 15 -25 8 -81 45 -86 57
-2 4 -8 7 -13 7 -14 0 -149 90 -149 100 0 4 -10 10 -22 14 -13 3 -37 18 -54
33 -16 15 -49 41 -72 57 -23 16 -42 32 -42 36 0 4 -11 12 -25 18 -14 6 -41 26
-61 44 -68 62 -81 73 -124 108 -54 43 -335 324 -372 371 -15 19 -43 52 -63 74
-21 22 -54 63 -75 90 -20 28 -44 56 -53 64 -10 7 -17 17 -17 22 0 4 -11 20
-25 35 -13 14 -30 39 -37 55 -7 16 -16 29 -20 29 -9 0 -88 118 -88 131 0 5 -6
12 -14 15 -8 3 -17 13 -20 22 -3 9 -17 35 -31 57 -14 22 -32 54 -40 72 -8 17
-18 33 -22 35 -9 3 -25 32 -92 163 -25 50 -49 92 -53 93 -4 2 -8 9 -8 15 0 11
-32 81 -71 158 -11 20 -19 44 -19 53 0 9 -4 16 -9 16 -5 0 -12 14 -16 31 -4
17 -13 42 -21 57 -8 15 -17 42 -20 60 -3 17 -10 32 -14 32 -5 0 -14 25 -21 55
-7 30 -15 55 -19 55 -4 0 -11 17 -15 37 -4 21 -10 43 -15 48 -4 6 -13 37 -19
70 -7 33 -16 69 -21 80 -5 11 -14 38 -19 60 -5 22 -17 67 -25 100 -8 33 -15
72 -16 87 0 14 -4 28 -9 30 -5 2 -15 58 -22 125 -7 67 -16 120 -19 117 -6 -7
-26 164 -41 351 -12 145 -4 665 9 674 5 3 12 55 16 114 4 60 11 116 16 125 5
9 14 64 20 122 7 58 15 107 19 110 4 3 13 44 21 93 7 48 16 87 20 87 4 0 10
23 14 50 4 28 11 50 15 50 5 0 12 24 16 53 4 28 13 63 20 77 7 14 16 42 20 63
4 20 11 37 15 37 4 0 11 17 15 38 4 20 15 55 25 77 10 22 21 55 25 73 3 17 10
32 15 32 4 0 11 16 14 35 4 19 11 35 16 35 6 0 10 8 10 18 0 9 18 53 39 97 22
44 49 101 60 127 12 26 26 50 31 53 6 4 8 11 5 16 -4 5 -2 9 4 9 5 0 12 14 16
30 4 17 10 30 14 30 5 0 15 17 24 38 16 37 37 73 48 82 3 3 12 20 20 38 8 17
17 32 21 32 5 0 8 5 8 11 0 6 11 25 25 43 14 18 25 38 25 44 0 7 4 12 9 12 5
0 11 8 14 18 5 18 211 305 256 356 14 17 43 47 64 69 20 22 37 42 37 44 0 6
14 22 112 126 117 126 237 242 328 317 50 41 86 72 120 104 14 13 35 28 47 35
12 6 37 25 55 41 18 17 41 33 50 36 10 3 18 9 18 13 0 5 13 14 29 21 16 6 32
18 35 26 3 8 12 14 21 14 8 0 15 4 15 8 0 5 12 15 28 23 15 8 32 19 39 24 7 6
19 15 26 21 8 7 27 19 43 28 16 9 43 25 59 36 17 11 41 25 55 32 14 7 31 18
38 25 7 7 24 16 38 19 13 3 24 10 24 14 0 4 11 11 25 14 14 4 25 10 25 15 0 5
17 15 38 22 20 6 39 15 42 19 7 10 114 60 128 60 7 0 12 5 12 10 0 6 20 15 45
22 25 7 45 16 45 20 0 4 6 8 13 8 6 0 35 12 62 25 28 14 58 25 68 25 9 0 17 5
17 10 0 6 7 10 16 10 8 0 34 9 57 19 24 11 56 23 72 27 16 4 40 13 54 20 14 8
36 14 48 14 12 0 24 4 27 9 3 5 30 14 58 21 29 6 67 18 83 25 17 7 51 16 78
19 26 4 47 11 47 16 0 5 26 12 58 16 31 4 59 10 62 15 3 5 50 14 103 21 53 7
97 15 97 19 0 4 33 10 73 14 39 4 77 11 82 16 6 4 80 13 165 19 85 7 162 15
171 20 38 19 793 18 805 -1 3 -5 33 -9 67 -9 89 0 289 -19 312 -30 11 -5 50
-12 88 -15 37 -4 67 -11 67 -16 0 -5 15 -9 33 -9 49 -1 281 -53 272 -61 -3 -3
26 -11 65 -18 38 -7 70 -17 70 -22 0 -5 8 -9 18 -9 17 0 79 -20 97 -31 6 -4
25 -10 43 -14 17 -3 32 -11 32 -16 0 -5 8 -9 18 -9 10 0 35 -9 57 -20 22 -11
45 -20 52 -20 6 0 16 -6 20 -13 4 -8 29 -19 56 -27 26 -7 47 -16 47 -21 0 -4
14 -10 30 -14 17 -4 30 -10 30 -14 0 -4 16 -13 35 -20 19 -7 35 -17 35 -22 0
-5 12 -9 28 -9 20 0 33 9 51 35 13 19 27 35 32 35 5 0 9 7 9 15 0 7 6 18 13
22 7 4 35 38 62 76 27 37 52 67 56 67 3 0 12 14 19 30 7 17 16 30 19 30 4 0
29 30 56 68 27 37 55 71 62 75 7 4 13 14 13 22 0 7 4 15 9 17 17 6 91 108 91
125 0 12 -18 26 -55 42 -30 14 -55 28 -55 33 0 4 -6 8 -12 8 -7 0 -35 11 -63
25 -27 13 -56 25 -62 25 -7 0 -13 4 -13 9 0 4 -20 14 -45 21 -25 7 -45 16 -45
21 0 4 -13 10 -30 14 -16 4 -30 10 -30 15 0 4 -22 13 -50 20 -27 7 -50 16 -50
20 0 4 -15 11 -32 14 -18 3 -46 13 -61 21 -15 8 -43 17 -62 21 -19 3 -35 10
-35 14 0 4 -25 12 -55 19 -30 7 -57 16 -60 21 -3 4 -23 11 -45 15 -22 4 -40
10 -40 15 0 4 -34 13 -75 19 -41 7 -75 16 -75 21 0 4 -24 11 -52 15 -29 4 -69
13 -89 20 -20 7 -62 16 -93 20 -31 4 -56 11 -56 15 0 4 -30 11 -67 15 -38 3
-97 13 -133 21 -36 8 -100 18 -142 21 -43 3 -75 9 -73 13 5 9 -109 18 -338 26
-98 4 -180 11 -183 16 -7 11 -431 11 -438 0z m5460 -5078 c1 -9 0 -13 -4 -10
-3 4 -7 14 -8 22 -1 9 0 13 4 10 3 -4 7 -14 8 -22z m20 -100 c1 -9 0 -13 -4
-10 -3 4 -7 14 -8 22 -1 9 0 13 4 10 3 -4 7 -14 8 -22z m-236 -23 c0 -6 -4
-12 -8 -15 -5 -3 -9 1 -9 9 0 8 4 15 9 15 4 0 8 -4 8 -9z m196 -46 c-1 -8 -5
-17 -8 -21 -5 -4 -4 16 1 34 3 9 9 -1 7 -13z m29 -75 c3 -6 -1 -7 -9 -4 -18 7
-21 14 -7 14 6 0 13 -4 16 -10z m-120 -160 c-3 -5 -12 -10 -18 -10 -7 0 -6 4
3 10 19 12 23 12 15 0z m52 -25 c0 -8 -4 -12 -9 -9 -5 3 -6 10 -3 15 9 13 12
11 12 -6z m-43 -33 c2 -4 -5 -9 -17 -9 -17 -2 -19 0 -7 7 18 12 18 12 24 2z
m46 -2 c0 -5 -2 -10 -4 -10 -3 0 -8 5 -11 10 -3 6 -1 10 4 10 6 0 11 -4 11
-10z m-44 -105 c-1 -8 -5 -17 -8 -21 -5 -4 -4 16 1 34 3 9 9 -1 7 -13z m4 -55
c0 -5 -5 -10 -11 -10 -5 0 -7 5 -4 10 3 6 8 10 11 10 2 0 4 -4 4 -10z m-40
-36 c0 -8 -19 -13 -24 -6 -3 5 1 9 9 9 8 0 15 -2 15 -3z m65 -24 c-3 -5 -12
-10 -18 -10 -7 0 -6 4 3 10 19 12 23 12 15 0z m32 -5 c0 -8 -4 -12 -9 -9 -5 3
-6 10 -3 15 9 13 12 11 12 -6z m-83 -33 c3 -5 -1 -9 -9 -9 -8 0 -12 4 -9 9 3
4 7 8 9 8 2 0 6 -4 9 -8z m51 -2 c3 -6 -1 -7 -9 -4 -18 7 -21 14 -7 14 6 0 13
-4 16 -10z m40 -20 c-3 -5 -12 -10 -18 -10 -7 0 -6 4 3 10 19 12 23 12 15 0z
m-111 -41 c3 -3 -4 -5 -14 -6 -11 -1 -20 2 -20 7 0 8 25 8 34 -1z m110 3 c2
-4 -4 -8 -14 -8 -10 0 -16 4 -14 8 3 4 9 8 14 8 5 0 11 -4 14 -8z m-87 -57 c0
-8 -4 -15 -9 -15 -10 0 -11 14 -1 23 9 10 10 9 10 -8z m-202 -53 c-3 -3 -11 0
-18 7 -9 10 -8 11 6 5 10 -3 15 -9 12 -12z m209 10 c3 -5 -1 -9 -9 -9 -8 0
-12 4 -9 9 3 4 7 8 9 8 2 0 6 -4 9 -8z m41 -22 c-3 -5 -12 -10 -18 -10 -7 0
-6 4 3 10 19 12 23 12 15 0z m-132 -15 c-3 -9 -8 -14 -10 -11 -3 3 -2 9 2 15
9 16 15 13 8 -4z m67 -25 c0 -5 -5 -10 -11 -10 -5 0 -7 5 -4 10 3 6 8 10 11
10 2 0 4 -4 4 -10z m-40 -34 c0 -3 -4 -8 -10 -11 -5 -3 -10 -1 -10 4 0 6 5 11
10 11 6 0 10 -2 10 -4z m40 -6 c0 -5 -2 -10 -4 -10 -3 0 -8 5 -11 10 -3 6 -1
10 4 10 6 0 11 -4 11 -10z m-65 -148 c-3 -3 -11 0 -18 7 -9 10 -8 11 6 5 10
-3 15 -9 12 -12z m100 -40 c-3 -3 -11 0 -18 7 -9 10 -8 11 6 5 10 -3 15 -9 12
-12z m-120 -1 c3 -5 2 -12 -3 -15 -5 -3 -9 1 -9 9 0 17 3 19 12 6z m2 -48 c-4
-3 -1 -13 6 -22 11 -14 10 -14 -5 -2 -16 12 -16 31 -1 31 4 0 3 -3 0 -7z m-22
-43 c3 -5 1 -10 -4 -10 -6 0 -11 5 -11 10 0 6 2 10 4 10 3 0 8 -4 11 -10z
m-50 -20 c-3 -5 -12 -10 -18 -10 -7 0 -6 4 3 10 19 12 23 12 15 0z m165 6 c0
-2 -8 -10 -17 -17 -16 -13 -17 -12 -4 4 13 16 21 21 21 13z m-19 -59 c-10 -9
-11 -8 -5 6 3 10 9 15 12 12 3 -3 0 -11 -7 -18z m-95 -49 c3 -4 -1 -5 -10 -4
-8 1 -18 5 -22 8 -3 4 1 5 10 4 8 -1 18 -5 22 -8z m80 -3 c-1 -8 -5 -17 -8
-21 -5 -4 -4 16 1 34 3 9 9 -1 7 -13z m-39 -30 c0 -8 -4 -12 -9 -9 -5 3 -6 10
-3 15 9 13 12 11 12 -6z m-117 -5 c0 -5 -2 -10 -4 -10 -3 0 -8 5 -11 10 -3 6
-1 10 4 10 6 0 11 -4 11 -10z m133 -65 c4 -8 3 -16 -1 -19 -4 -3 -9 4 -9 15
-2 23 3 25 10 4z m-116 -24 c0 -11 -5 -18 -9 -15 -4 3 -5 11 -1 19 7 21 12 19
10 -4z m3 -71 c0 -5 -2 -10 -4 -10 -3 0 -8 5 -11 10 -3 6 -1 10 4 10 6 0 11
-4 11 -10z m-46 -118 c3 -5 -1 -9 -9 -9 -8 0 -12 4 -9 9 3 4 7 8 9 8 2 0 6 -4
9 -8z m21 -70 c-3 -3 -11 0 -18 7 -9 10 -8 11 6 5 10 -3 15 -9 12 -12z m-40
-1 c3 -5 2 -12 -3 -15 -5 -3 -9 1 -9 9 0 17 3 19 12 6z m21 -87 c1 -9 0 -13
-4 -10 -3 4 -7 14 -8 22 -1 9 0 13 4 10 3 -4 7 -14 8 -22z m4 -84 c0 -5 -5
-10 -11 -10 -5 0 -7 5 -4 10 3 6 8 10 11 10 2 0 4 -4 4 -10z m-102 -25 c-3 -3
-9 2 -12 12 -6 14 -5 15 5 6 7 -7 10 -15 7 -18z m12 -115 c8 -5 11 -10 5 -10
-5 0 -17 5 -25 10 -8 5 -10 10 -5 10 6 0 17 -5 25 -10z m-219 -413 c-10 -9
-11 -8 -5 6 3 10 9 15 12 12 3 -3 0 -11 -7 -18z"/>
<path d="M12435 5750 c3 -5 8 -10 11 -10 2 0 4 5 4 10 0 6 -5 10 -11 10 -5 0
-7 -4 -4 -10z"/>
</g>
</svg>
