<?xml version="1.0" encoding="UTF-8"?>
<svg width="302px" height="470px" viewBox="0 0 302 470" version="1.1" xmlns="http://www.w3.org/2000/svg" xmlns:xlink="http://www.w3.org/1999/xlink">
    <!-- Generator: Sketch 47.1 (45422) - http://www.bohemiancoding.com/sketch -->
    <title>tech_bg</title>
    <desc>Created with Sketch.</desc>
    <defs></defs>
    <g id="Page-1" stroke="none" stroke-width="1" fill="none" fill-rule="evenodd">
        <g id="tech_bg" fill-rule="nonzero" fill="#38AADB">
            <path d="M299.646,396.844 L296.908,388.812 C298.367,385.286 299.177,381.426 299.177,377.379 C299.177,366.29 293.124,356.594 284.153,351.401 L239.36,220.018 L271.379,220.018 L271.379,222.518 C271.379,226.66 274.737,230.018 278.879,230.018 C283.021,230.018 286.379,226.66 286.379,222.518 L286.379,202.518 C286.379,198.376 283.021,195.018 278.879,195.018 C274.737,195.018 271.379,198.376 271.379,202.518 L271.379,205.018 L234.246,205.018 L195.983,92.788 C195.81,92.282 195.582,91.802 195.311,91.35 C195.606,89.267 195.763,87.147 195.763,85 C195.763,62.743 179.517,44.219 158.263,40.637 L158.263,7.5 C158.263,3.358 154.905,0 150.763,0 C146.621,0 143.263,3.358 143.263,7.5 L143.263,40.637 C122.009,44.219 105.763,62.743 105.763,85 C105.763,87.71 106.009,90.378 106.476,92.981 L68.279,205.017 L30.146,205.017 L30.146,202.517 C30.146,198.375 26.788,195.017 22.646,195.017 C18.504,195.017 15.146,198.375 15.146,202.517 L15.146,222.517 C15.146,226.659 18.504,230.017 22.646,230.017 C26.788,230.017 30.146,226.659 30.146,222.517 L30.146,220.017 L63.165,220.017 L39.45,289.578 C38.113,293.499 40.208,297.761 44.128,299.097 C44.93,299.37 45.746,299.5 46.549,299.5 C49.67,299.5 52.584,297.537 53.647,294.418 L115.507,112.974 C118.659,116.946 122.492,120.399 126.887,123.147 L23.395,426.703 C20.785,424.57 18.652,421.877 17.253,418.782 C14.842,413.45 14.727,407.518 16.93,402.079 C16.983,401.949 17.032,401.817 17.077,401.684 L43.966,322.814 C45.303,318.893 43.208,314.631 39.288,313.295 C35.367,311.96 31.105,314.054 29.769,317.973 L18.494,351.043 C8.879,356.25 2.83,366.22 2.83,377.377 C2.83,381.562 3.713,385.682 5.389,389.481 L2.943,396.654 C-0.729,405.877 -0.503,415.921 3.585,424.961 C6.7,431.85 11.91,437.613 18.359,441.471 L12.015,460.077 C10.678,463.998 12.773,468.26 16.693,469.596 C17.495,469.869 18.311,469.999 19.114,469.999 C22.235,469.999 25.149,468.036 26.212,464.917 L47.171,403.442 C56.486,398.154 62.348,388.279 62.348,377.375 C62.348,373.383 61.542,369.436 60.012,365.78 L109.708,220.014 L143.261,220.014 L143.261,232.514 C143.261,236.656 146.619,240.014 150.761,240.014 C154.903,240.014 158.261,236.656 158.261,232.514 L158.261,220.014 L191.815,220.014 L241.51,365.776 C240.008,369.346 239.175,373.265 239.175,377.375 C239.175,388.527 245.296,398.27 254.351,403.44 L275.311,464.916 C276.374,468.035 279.288,469.998 282.409,469.998 C283.211,469.998 284.028,469.868 284.83,469.595 C288.75,468.259 290.845,463.997 289.508,460.076 L283.169,441.483 C298.187,432.566 305.486,413.974 299.646,396.844 L299.646,396.844 Z M254.176,377.379 C254.176,369.108 260.905,362.379 269.176,362.379 C277.447,362.379 284.176,369.108 284.176,377.379 C284.176,385.65 277.447,392.379 269.176,392.379 C260.905,392.379 254.176,385.65 254.176,377.379 Z M266.965,347.469 C261.749,347.851 256.9,349.57 252.759,352.288 L174.638,123.147 C179.361,120.194 183.436,116.428 186.712,112.078 L266.965,347.469 Z M158.262,122.5 C158.262,126.636 154.898,130 150.762,130 C146.626,130 143.262,126.636 143.262,122.5 C143.262,121.987 143.314,121.486 143.413,121.002 C144.118,117.574 147.145,115 150.762,115 C154.379,115 157.407,117.574 158.108,120.987 C158.21,121.486 158.262,121.987 158.262,122.5 Z M150.762,55 C167.304,55 180.762,68.458 180.762,85 C180.762,94.597 176.205,103.417 168.75,109.001 C164.641,103.539 158.107,100 150.762,100 C143.417,100 136.883,103.539 132.774,109.001 C125.319,103.417 120.762,94.598 120.762,85 C120.762,68.458 134.22,55 150.762,55 L150.762,55 Z M158.262,205.018 L158.262,192.518 C158.262,188.376 154.904,185.018 150.762,185.018 C146.62,185.018 143.262,188.376 143.262,192.518 L143.262,205.018 L114.823,205.018 L136.916,140.216 C140.737,143.209 145.543,145 150.762,145 C155.981,145 160.787,143.209 164.609,140.215 L186.702,205.017 L158.262,205.017 L158.262,205.018 Z M278.148,426.757 L271.508,407.28 C276.714,406.878 281.551,405.145 285.678,402.416 C288.429,411.472 285.195,421.077 278.148,426.757 L278.148,426.757 Z" id="Shape"></path>
        </g>
    </g>
</svg>