<?xml version="1.0" encoding="iso-8859-1"?>
<!-- Generator: Adobe Illustrator 19.0.0, SVG Export Plug-In . SVG Version: 6.00 Build 0)  -->
<svg version="1.1" id="Layer_1" xmlns="http://www.w3.org/2000/svg" xmlns:xlink="http://www.w3.org/1999/xlink" x="0px" y="0px"
	 viewBox="0 0 512 512" style="enable-background:new 0 0 512 512;" xml:space="preserve">
<rect x="8.017" y="157.662" style="fill:#BDBDC0;" width="495.967" height="273.637"/>
<polygon style="fill:#A7A7AB;" points="25.119,414.196 25.119,157.662 8.017,157.662 8.017,431.299 503.983,431.299 
	503.983,414.196 "/>
<g>
	<circle style="fill:#0AADBF;" cx="264.551" cy="243.173" r="25.653"/>
	<circle style="fill:#0AADBF;" cx="350.063" cy="243.173" r="25.653"/>
	<circle style="fill:#0AADBF;" cx="435.574" cy="243.173" r="25.653"/>
</g>
<g>
	<circle style="fill:#F9D84E;" cx="418.472" cy="354.338" r="51.307"/>
	<circle style="fill:#F9D84E;" cx="290.205" cy="354.338" r="51.307"/>
</g>
<circle style="fill:#64666D;" cx="127.733" cy="354.338" r="51.307"/>
<circle style="fill:#383A43;" cx="127.733" cy="354.338" r="34.205"/>
<path style="fill:#D3D3D5;" d="M110.63,183.315v162.472c0,9.446,7.658,17.102,17.102,17.102s17.102-7.656,17.102-17.102V183.315
	H110.63z"/>
<circle style="fill:#FD5E95;" cx="127.733" cy="166.213" r="85.511"/>
<path style="fill:#D14D7B;" d="M59.324,166.213c0-44.34,33.749-80.793,76.96-85.085c-2.813-0.279-5.665-0.426-8.551-0.426
	c-47.227,0-85.511,38.285-85.511,85.511s38.285,85.511,85.511,85.511c2.886,0,5.738-0.148,8.551-0.426
	C93.073,247.006,59.324,210.553,59.324,166.213z"/>
<circle style="fill:#FD8EB4;" cx="153.386" cy="140.56" r="25.653"/>
<path d="M503.983,149.645H219.776c-3.119-17.417-11.115-33.65-23.303-46.853c-3.001-3.253-8.073-3.456-11.328-0.453
	c-3.254,3.004-3.456,8.074-0.453,11.328c13.244,14.347,20.536,33.008,20.536,52.546c0,42.731-34.764,77.495-77.495,77.495
	s-77.495-34.764-77.495-77.495s34.764-77.495,77.495-77.495c13.591,0,26.959,3.566,38.657,10.313
	c3.835,2.213,8.737,0.897,10.95-2.939c2.212-3.835,0.896-8.737-2.939-10.95c-14.131-8.149-30.267-12.457-46.667-12.457
	c-45.92,0-84.215,33.264-92.058,76.96H8.017c-4.428,0-8.017,3.589-8.017,8.017v273.637c0,4.427,3.588,8.017,8.017,8.017h371.975
	c4.428,0,8.017-3.589,8.017-8.017c0-4.427-3.588-8.017-8.017-8.017H16.033V165.678h18.178c-0.001,0.179-0.006,0.356-0.006,0.534
	c0,42.877,29.003,79.102,68.42,90.101c-0.001,0.074-0.011,0.145-0.011,0.22v44.114c-0.311,0.107-0.621,0.228-0.924,0.376
	c-20.528,10.043-33.281,30.472-33.281,53.313c0,32.711,26.612,59.324,59.324,59.324s59.324-26.612,59.324-59.324
	c0-22.239-12.27-42.425-32.022-52.679c-0.705-0.367-1.44-0.614-2.183-0.756v-44.592c39.411-11.002,68.409-47.225,68.409-90.098
	c0-0.179-0.012-0.356-0.013-0.534h274.719v257.603H410.99c-4.428,0-8.017,3.589-8.017,8.017c0,4.427,3.588,8.017,8.017,8.017h92.994
	c4.428,0,8.017-3.589,8.017-8.017V157.662C512,153.234,508.412,149.645,503.983,149.645z M171.023,354.338
	c0,23.871-19.42,43.29-43.29,43.29s-43.29-19.42-43.29-43.29c0-14.258,6.825-27.211,18.171-35.253v26.702
	c0,13.851,11.268,25.119,25.119,25.119s25.119-11.268,25.119-25.119V319.07C164.188,327.131,171.023,340.163,171.023,354.338z
	 M136.818,345.787c0,5.01-4.076,9.086-9.086,9.086c-5.01,0-9.086-4.076-9.086-9.086v-86.488c2.991,0.29,6.02,0.443,9.086,0.443
	c3.066,0,6.095-0.153,9.086-0.443V345.787z"/>
<path d="M230.881,243.173c0,18.566,15.105,33.67,33.67,33.67c18.566,0,33.67-15.105,33.67-33.67s-15.105-33.67-33.67-33.67
	S230.881,224.608,230.881,243.173z M264.551,225.537c9.725,0,17.637,7.912,17.637,17.637c0,9.725-7.912,17.637-17.637,17.637
	c-9.725,0-17.637-7.912-17.637-17.637C246.914,233.448,254.826,225.537,264.551,225.537z"/>
<path d="M383.733,243.173c0-18.566-15.105-33.67-33.67-33.67c-18.566,0-33.67,15.105-33.67,33.67s15.105,33.67,33.67,33.67
	C368.628,276.843,383.733,261.739,383.733,243.173z M332.426,243.173c0-9.725,7.912-17.637,17.637-17.637
	c9.725,0,17.637,7.912,17.637,17.637c0,9.725-7.912,17.637-17.637,17.637C340.338,260.81,332.426,252.898,332.426,243.173z"/>
<path d="M401.904,243.173c0,18.566,15.105,33.67,33.67,33.67c18.566,0,33.67-15.105,33.67-33.67s-15.105-33.67-33.67-33.67
	C417.009,209.503,401.904,224.608,401.904,243.173z M435.574,225.537c9.725,0,17.637,7.912,17.637,17.637
	c0,9.725-7.912,17.637-17.637,17.637s-17.637-7.912-17.637-17.637C417.937,233.448,425.849,225.537,435.574,225.537z"/>
<path d="M418.472,413.662c32.711,0,59.324-26.612,59.324-59.324s-26.612-59.324-59.324-59.324s-59.324,26.612-59.324,59.324
	S385.76,413.662,418.472,413.662z M418.472,311.048c23.871,0,43.29,19.42,43.29,43.29c0,23.871-19.42,43.29-43.29,43.29
	c-23.871,0-43.29-19.42-43.29-43.29C375.182,330.468,394.601,311.048,418.472,311.048z"/>
<path d="M290.205,413.662c32.711,0,59.324-26.612,59.324-59.324s-26.612-59.324-59.324-59.324s-59.324,26.612-59.324,59.324
	S257.493,413.662,290.205,413.662z M290.205,311.048c23.871,0,43.29,19.42,43.29,43.29c0,23.871-19.42,43.29-43.29,43.29
	c-23.871,0-43.29-19.42-43.29-43.29C246.914,330.468,266.334,311.048,290.205,311.048z"/>
<path d="M444.125,199.883c4.428,0,8.017-3.589,8.017-8.017s-3.588-8.017-8.017-8.017h-17.102c-4.428,0-8.017,3.589-8.017,8.017
	s3.588,8.017,8.017,8.017H444.125z"/>
<path d="M358.614,199.883c4.428,0,8.017-3.589,8.017-8.017s-3.588-8.017-8.017-8.017h-17.102c-4.428,0-8.017,3.589-8.017,8.017
	s3.588,8.017,8.017,8.017H358.614z"/>
<path d="M273.102,199.883c4.428,0,8.017-3.589,8.017-8.017s-3.588-8.017-8.017-8.017H256c-4.428,0-8.017,3.589-8.017,8.017
	s3.588,8.017,8.017,8.017H273.102z"/>
<g>
</g>
<g>
</g>
<g>
</g>
<g>
</g>
<g>
</g>
<g>
</g>
<g>
</g>
<g>
</g>
<g>
</g>
<g>
</g>
<g>
</g>
<g>
</g>
<g>
</g>
<g>
</g>
<g>
</g>
</svg>
